<svg xmlns="http://www.w3.org/2000/svg" width="90" height="90" viewBox="0 0 90 90">
  <g id="Grupo_134909" data-name="Grupo 134909" transform="translate(-548 -2051.53)">
    <circle id="Elipse_5213" data-name="Elipse 5213" cx="45" cy="45" r="45" transform="translate(548 2051.53)" fill="#b13e8d"/>
    <g id="Grupo_134705" data-name="Grupo 134705" transform="translate(566.107 2071.207)">
      <path id="Trazado_190672" data-name="Trazado 190672" d="M1372.61,3202.345a1.293,1.293,0,1,1-1.293-1.293,1.292,1.292,0,0,1,1.293,1.293Zm0,0" transform="translate(-1344.424 -3197.355)" fill="#fff"/>
      <path id="Trazado_190673" data-name="Trazado 190673" d="M1227.281,3207.436h-50.634v-27.513h20.762a4.987,4.987,0,0,0,9.109,0h16.831a.788.788,0,0,0,0-1.576h-16.417c.014-.151.022-.3.022-.458a4.99,4.99,0,1,0-9.98,0c0,.155.008.307.022.458h-21.137a.788.788,0,0,0-.788.788v32.291a.789.789,0,0,0,.788.788h1.846a.788.788,0,0,0,0-1.576h-1.058v-1.627h50.634v1.627h-46.65a.788.788,0,0,0,0,1.576h12.042v7.839h-5.091a.788.788,0,0,0-.788.788v1.918a.788.788,0,0,0,.788.788h24.159a.788.788,0,1,0,0-1.576H1188.37v-.343h27.189v.343h-.892a.788.788,0,1,0,0,1.576h1.679a.789.789,0,0,0,.788-.788v-1.918a.788.788,0,0,0-.788-.788h-5.092v-7.839h16.815a.788.788,0,0,0,.788-.788v-32.291a.788.788,0,0,0-.788-.788h-1.793a.788.788,0,0,0,0,1.576h1.005m-25.317-5.449a3.414,3.414,0,1,1-3.414,3.415,3.418,3.418,0,0,1,3.414-3.415Zm7.715,45.579h-15.43v-7.839h15.43v7.839Zm0,0" transform="translate(-1175.071 -3172.899)" fill="#fff"/>
    </g>
  </g>
</svg>
