<svg id="Grupo_134820" data-name="Grupo 134820" xmlns="http://www.w3.org/2000/svg" xmlns:xlink="http://www.w3.org/1999/xlink" width="52.019" height="39.586" viewBox="0 0 52.019 39.586">
  <defs>
    <clipPath id="clip-path">
      <rect id="Rectángulo_42374" data-name="Rectángulo 42374" width="52.019" height="39.586" fill="none"/>
    </clipPath>
  </defs>
  <g id="Grupo_134819" data-name="Grupo 134819" clip-path="url(#clip-path)">
    <path id="Trazado_190776" data-name="Trazado 190776" d="M-554.427-9.994a.761.761,0,0,0-.223-.538l-.885-.884a.761.761,0,0,0-1.076,0,.761.761,0,0,0,0,1.076l.346.346-2.645,2.645-8.129-8.128,2.646-2.646,5.8,5.8a.761.761,0,0,0,.538.223.76.76,0,0,0,.539-.223.761.761,0,0,0,0-1.076l-6.335-6.335a.761.761,0,0,0-1.076,0l-3.184,3.184-.063-.063a1.9,1.9,0,0,0-1.349-.559,1.9,1.9,0,0,0-1.349.559l-2.553,2.553a1.9,1.9,0,0,0-.559,1.349,1.9,1.9,0,0,0,.1.616l-5.293-.242a.765.765,0,0,0-.573.222l-2.5,2.5-4.765-.573a1.908,1.908,0,0,0-.381-2.146l-2.553-2.553a1.9,1.9,0,0,0-1.349-.559,1.9,1.9,0,0,0-1.349.559l-.062.063-3.184-3.184a.762.762,0,0,0-1.077,0l-1.25,1.25a.761.761,0,0,0,0,1.077.761.761,0,0,0,1.077,0l.713-.712,2.645,2.646-8.129,8.129-2.646-2.646,5.417-5.417a.761.761,0,0,0,0-1.077.761.761,0,0,0-1.076,0l-5.955,5.955a.761.761,0,0,0,0,1.076l3.184,3.184-.062.062a1.9,1.9,0,0,0-.558,1.349,1.9,1.9,0,0,0,.558,1.349L-600.5.764a1.9,1.9,0,0,0,1.349.557,1.932,1.932,0,0,0,.557-.083l4.843,4.843a2.707,2.707,0,0,0-.587,1.69,2.711,2.711,0,0,0,.8,1.93l.044.044a2.71,2.71,0,0,0,1.929.8h.032a2.721,2.721,0,0,0,.8,1.96l.044.045h0a2.718,2.718,0,0,0,1.929.8h.033a2.72,2.72,0,0,0,.8,1.962l.044.044a2.71,2.71,0,0,0,1.929.8h.032a2.72,2.72,0,0,0,.8,1.96l.044.045a2.72,2.72,0,0,0,1.93.8,2.721,2.721,0,0,0,1.689-.585l.177.177a2.726,2.726,0,0,0,1.933.8,2.727,2.727,0,0,0,1.935-.8,2.717,2.717,0,0,0,.8-1.934c0-.016,0-.033,0-.05h.048a2.727,2.727,0,0,0,1.934-.8,2.728,2.728,0,0,0,.8-1.983h.05a2.719,2.719,0,0,0,1.934-.8,2.729,2.729,0,0,0,.8-1.983h.05a2.718,2.718,0,0,0,1.934-.8,2.739,2.739,0,0,0,0-3.868l-.163-.163,1.428-1.428a.762.762,0,0,0,0-1.076.762.762,0,0,0-1.077,0l-1.428,1.428-7.463-7.464h2.213a.761.761,0,0,0,.538-.223l1.636-1.635a.761.761,0,0,0,0-1.076.761.761,0,0,0-1.077,0L-575.875-3.9h-6.173a.762.762,0,0,0-.538.223l-2.036,2.035a1.211,1.211,0,0,1-.863.357,1.212,1.212,0,0,1-.863-.357,1.218,1.218,0,0,1-.358-.864,1.217,1.217,0,0,1,.357-.863l4.914-4.913.021-.021,2.5-2.5,6.333.29,8.936,8.935-3.1,3.1a.761.761,0,0,0,0,1.076.759.759,0,0,0,.538.223.759.759,0,0,0,.538-.223l3.186-3.186a1.909,1.909,0,0,0,.811.183,1.9,1.9,0,0,0,1.349-.558l2.553-2.553a1.894,1.894,0,0,0,.559-1.349,1.894,1.894,0,0,0-.559-1.349l-.062-.062,3.184-3.184a.763.763,0,0,0,.223-.539Zm-47.548,7.128a.381.381,0,0,1-.112-.272.383.383,0,0,1,.112-.272l10.407-10.407a.384.384,0,0,1,.272-.113.384.384,0,0,1,.273.113l2.552,2.553a.385.385,0,0,1,0,.544L-598.877-.313a.385.385,0,0,1-.544,0Zm9.558,11.535-.044-.044a1.208,1.208,0,0,1,0-1.706,1.2,1.2,0,0,1,.852-.352,1.2,1.2,0,0,1,.853.353l.045.044a1.207,1.207,0,0,1,.146,1.527c-.058.049-.115.1-.169.156s-.106.111-.155.169a1.207,1.207,0,0,1-1.527-.146Zm2.8,2.8-.044-.045A1.208,1.208,0,0,1-589.8,9.9c.058-.049.115-.1.17-.155s.106-.112.155-.17a1.208,1.208,0,0,1,1.527.146l.045.045a1.208,1.208,0,0,1,.146,1.528c-.058.049-.115.1-.17.155s-.106.112-.155.17a1.207,1.207,0,0,1-1.528-.146Zm2.8,2.8-.044-.044A1.207,1.207,0,0,1-587,12.7c.058-.049.115-.1.169-.155s.106-.112.155-.17a1.2,1.2,0,0,1,.674-.206,1.2,1.2,0,0,1,.853.353l.044.044a1.207,1.207,0,0,1,.147,1.527c-.058.049-.115.1-.169.156s-.106.111-.155.169a1.207,1.207,0,0,1-1.528-.146Zm4.509,2.8a1.207,1.207,0,0,1-1.705,0l-.045-.045a1.207,1.207,0,0,1-.147-1.527c.059-.049.115-.1.17-.155s.106-.112.156-.17a1.208,1.208,0,0,1,1.527.146l.044.045a1.207,1.207,0,0,1,0,1.705Zm-5.125-21.522a2.729,2.729,0,0,0-.8,1.94,2.73,2.73,0,0,0,.8,1.94,2.726,2.726,0,0,0,1.94.8,2.722,2.722,0,0,0,1.94-.8l1.812-1.812h1.806l9.78,9.78a1.214,1.214,0,0,1,0,1.715,1.206,1.206,0,0,1-.857.355,1.2,1.2,0,0,1-.751-.261c-.032-.035-5.967-5.954-5.967-5.954a.762.762,0,0,0-1.077,0,.761.761,0,0,0,0,1.077l5.86,5.86c.034.034.068.066.1.1a1.214,1.214,0,0,1-.094,1.609,1.205,1.205,0,0,1-.858.355,1.2,1.2,0,0,1-.75-.261c-.032-.035-5.968-5.954-5.968-5.954a.761.761,0,0,0-1.077,0,.761.761,0,0,0,0,1.077l5.86,5.86q.05.051.1.1a1.213,1.213,0,0,1-.094,1.608,1.214,1.214,0,0,1-1.608.095c-.032-.035-5.968-5.955-5.968-5.955a.761.761,0,0,0-1.076,0,.761.761,0,0,0,0,1.076l5.86,5.86c.034.034.069.067.1.1a1.2,1.2,0,0,1,.261.75,1.2,1.2,0,0,1-.354.856,1.214,1.214,0,0,1-.86.357,1.212,1.212,0,0,1-.858-.355l-.36-.36a2.731,2.731,0,0,0-.652-2.811l-.045-.045a2.712,2.712,0,0,0-1.93-.8h-.031c0-.01,0-.021,0-.031a2.71,2.71,0,0,0-.8-1.93l-.044-.044a2.72,2.72,0,0,0-1.962-.8,2.719,2.719,0,0,0-.8-1.962l-.045-.045a2.711,2.711,0,0,0-1.93-.8h-.032a2.721,2.721,0,0,0-.8-1.961l-.044-.044a2.711,2.711,0,0,0-1.929-.8,2.736,2.736,0,0,0-.882.146L-597.357.32l9.128-9.127,4.614.555Zm28.578-.146L-561.4-2.035a.385.385,0,0,1-.544,0l-.078-.078,0,0,0,0-10.321-10.321a.384.384,0,0,1-.112-.273.384.384,0,0,1,.113-.272l2.552-2.553a.382.382,0,0,1,.273-.113.382.382,0,0,1,.272.113l10.407,10.407a.382.382,0,0,1,.113.272.383.383,0,0,1-.113.272Zm0,0" transform="translate(606.395 20.125)" fill="#f7ca18"/>
  </g>
</svg>
