<svg id="Grupo_134831" data-name="Grupo 134831" xmlns="http://www.w3.org/2000/svg" width="38.821" height="59.147" viewBox="0 0 38.821 59.147">
  <rect id="Rectángulo_42377" data-name="Rectángulo 42377" width="24.984" height="3.951" transform="translate(6.918 6.627)" fill="#f7ca18"/>
  <path id="Trazado_190791" data-name="Trazado 190791" d="M-580.7,3011.191a.872.872,0,0,0-.871.872v2.624h-35.334v-42.539a.871.871,0,0,0-.871-.872.871.871,0,0,0-.871.872v43.41a.872.872,0,0,0,.871.872H-580.7a.872.872,0,0,0,.871-.872v-3.495a.872.872,0,0,0-.872-.872Zm0,0" transform="translate(618.652 -2957.282)" fill="#f7ca18"/>
  <path id="Trazado_190792" data-name="Trazado 190792" d="M-580.706,2874.366h-37.078a.871.871,0,0,0-.871.871v10.758a.871.871,0,0,0,.871.871.871.871,0,0,0,.872-.871v-9.886h35.335v49.8a.871.871,0,0,0,.872.871.872.872,0,0,0,.871-.871v-50.673a.871.871,0,0,0-.871-.871Zm0,0" transform="translate(618.655 -2874.366)" fill="#f7ca18"/>
  <path id="Trazado_190793" data-name="Trazado 190793" d="M-575.9,2962.214h17.077a.872.872,0,0,0,.871-.872.872.872,0,0,0-.871-.871H-575.9a.871.871,0,0,0-.871.871.871.871,0,0,0,.871.872Zm0,0" transform="translate(582.824 -2948.037)" fill="#f7ca18"/>
  <path id="Trazado_190794" data-name="Trazado 190794" d="M-429.77,2960.471h-4.536a.872.872,0,0,0-.872.871.872.872,0,0,0,.872.872h4.536a.872.872,0,0,0,.871-.872.872.872,0,0,0-.871-.871Zm0,0" transform="translate(461.673 -2948.037)" fill="#f7ca18"/>
  <path id="Trazado_190795" data-name="Trazado 190795" d="M-504.077,2979.784h-17.077a.871.871,0,0,0-.871.872.872.872,0,0,0,.871.872h17.077a.872.872,0,0,0,.871-.872.872.872,0,0,0-.871-.872Zm0,0" transform="translate(535.98 -2964.561)" fill="#f7ca18"/>
  <path id="Trazado_190796" data-name="Trazado 190796" d="M-575.9,2981.527h4.536a.872.872,0,0,0,.871-.872.872.872,0,0,0-.871-.872H-575.9a.871.871,0,0,0-.871.872.871.871,0,0,0,.871.872Zm0,0" transform="translate(582.824 -2964.561)" fill="#f7ca18"/>
  <path id="Trazado_190797" data-name="Trazado 190797" d="M-505.107,3060.89h10.089a.871.871,0,0,0,.871-.872.871.871,0,0,0-.871-.871h-10.089a.872.872,0,0,0-.871.871.872.872,0,0,0,.871.872Zm0,0" transform="translate(522.25 -3032.464)" fill="#f7ca18"/>
  <path id="Trazado_190798" data-name="Trazado 190798" d="M-414.641,3059.147h-1.983a.871.871,0,0,0-.871.871.872.872,0,0,0,.871.872h1.983a.872.872,0,0,0,.871-.872.872.872,0,0,0-.871-.871Zm0,0" transform="translate(446.543 -3032.464)" fill="#f7ca18"/>
  <path id="Trazado_190799" data-name="Trazado 190799" d="M-462.671,3078.46H-472.76a.871.871,0,0,0-.872.872.872.872,0,0,0,.872.872h10.089a.872.872,0,0,0,.871-.872.872.872,0,0,0-.871-.872Zm0,0" transform="translate(494.574 -3048.988)" fill="#f7ca18"/>
  <path id="Trazado_190800" data-name="Trazado 190800" d="M-505.107,3080.2h1.983a.872.872,0,0,0,.872-.872.871.871,0,0,0-.872-.872h-1.983a.872.872,0,0,0-.871.872.872.872,0,0,0,.871.872Zm0,0" transform="translate(522.25 -3048.988)" fill="#f7ca18"/>
  <path id="Trazado_190801" data-name="Trazado 190801" d="M-505.107,3123.121h10.089a.872.872,0,0,0,.871-.872.872.872,0,0,0-.871-.872h-10.089a.872.872,0,0,0-.871.872.872.872,0,0,0,.871.872Zm0,0" transform="translate(522.25 -3085.709)" fill="#f7ca18"/>
  <path id="Trazado_190802" data-name="Trazado 190802" d="M-414.641,3121.378h-1.983a.872.872,0,0,0-.871.872.872.872,0,0,0,.871.872h1.983a.872.872,0,0,0,.871-.872.872.872,0,0,0-.871-.872Zm0,0" transform="translate(446.543 -3085.709)" fill="#f7ca18"/>
  <path id="Trazado_190803" data-name="Trazado 190803" d="M-462.671,3140.69H-472.76a.871.871,0,0,0-.872.872.872.872,0,0,0,.872.872h10.089a.872.872,0,0,0,.871-.872.872.872,0,0,0-.871-.872Zm0,0" transform="translate(494.574 -3102.232)" fill="#f7ca18"/>
  <path id="Trazado_190804" data-name="Trazado 190804" d="M-505.107,3142.433h1.983a.871.871,0,0,0,.872-.872.871.871,0,0,0-.872-.872h-1.983a.872.872,0,0,0-.871.872.872.872,0,0,0,.871.872Zm0,0" transform="translate(522.25 -3102.232)" fill="#f7ca18"/>
  <path id="Trazado_190805" data-name="Trazado 190805" d="M-494.146,3184.479a.872.872,0,0,0-.871-.872h-10.09a.872.872,0,0,0-.871.872.872.872,0,0,0,.871.872h10.09a.872.872,0,0,0,.871-.872Zm0,0" transform="translate(522.25 -3138.953)" fill="#f7ca18"/>
  <path id="Trazado_190806" data-name="Trazado 190806" d="M-414.641,3183.608h-1.983a.871.871,0,0,0-.871.872.872.872,0,0,0,.871.872h1.983a.872.872,0,0,0,.871-.872.872.872,0,0,0-.871-.872Zm0,0" transform="translate(446.543 -3138.953)" fill="#f7ca18"/>
  <path id="Trazado_190807" data-name="Trazado 190807" d="M-472.76,3204.668h10.089a.872.872,0,0,0,.871-.871.871.871,0,0,0-.871-.872H-472.76a.871.871,0,0,0-.872.872.871.871,0,0,0,.872.871Zm0,0" transform="translate(494.574 -3155.48)" fill="#f7ca18"/>
  <path id="Trazado_190808" data-name="Trazado 190808" d="M-505.107,3202.925a.871.871,0,0,0-.871.872.872.872,0,0,0,.871.871h1.983a.871.871,0,0,0,.872-.871.871.871,0,0,0-.872-.872Zm0,0" transform="translate(522.25 -3155.48)" fill="#f7ca18"/>
  <path id="Trazado_190809" data-name="Trazado 190809" d="M-600.116,3008.82a.871.871,0,0,0,.872.871h31.724a.87.87,0,0,0,.871-.871.871.871,0,0,0-.871-.871h-31.723a.871.871,0,0,0-.872.871Zm0,0" transform="translate(602.793 -2988.659)" fill="#f7ca18"/>
  <path id="Trazado_190810" data-name="Trazado 190810" d="M-561.029,3052.465a.881.881,0,0,0,1.241,0,.9.9,0,0,0,.1-.122l3.742-3.742a.867.867,0,0,0,0-1.223.867.867,0,0,0-1.224,0l-3.232,3.233-.42-.42a.881.881,0,0,0-1.242,0,.88.88,0,0,0,0,1.241Zm0,0" transform="translate(570.453 -3022.178)" fill="#f7ca18"/>
  <path id="Trazado_190811" data-name="Trazado 190811" d="M-557.2,3109.72l-3.233,3.232-.42-.419a.881.881,0,0,0-1.242,0,.881.881,0,0,0,0,1.242l1.033,1.032a.881.881,0,0,0,1.242,0,.931.931,0,0,0,.1-.122l3.741-3.741a.868.868,0,0,0,0-1.223.867.867,0,0,0-1.223,0Zm0,0" transform="translate(570.477 -3075.519)" fill="#f7ca18"/>
  <path id="Trazado_190812" data-name="Trazado 190812" d="M-555.973,3171.95a.868.868,0,0,0-1.223,0l-3.233,3.233-.42-.419a.881.881,0,0,0-1.242,0,.881.881,0,0,0,0,1.241l1.033,1.033a.881.881,0,0,0,1.242,0,.946.946,0,0,0,.1-.122l3.741-3.742a.867.867,0,0,0,0-1.224Zm0,0" transform="translate(570.477 -3128.763)" fill="#f7ca18"/>
</svg>
