<svg xmlns="http://www.w3.org/2000/svg" width="46.991" height="58.519" viewBox="0 0 46.991 58.519">
  <g id="Grupo_134832" data-name="Grupo 134832" transform="translate(0)">
    <path id="Trazado_190813" data-name="Trazado 190813" d="M-476.255,1165.646a.86.86,0,0,1,.857-.857h9.827a.86.86,0,0,1,.857.857.86.86,0,0,1-.857.857H-475.4a.86.86,0,0,1-.857-.857Zm0,0" transform="translate(494.848 -1146.854)" fill="#f7ca18"/>
    <path id="Trazado_190814" data-name="Trazado 190814" d="M-476.255,1149.361a.86.86,0,0,1,.857-.857h9.827a.86.86,0,0,1,.857.857.86.86,0,0,1-.857.857H-475.4a.86.86,0,0,1-.857-.857Zm0,0" transform="translate(494.848 -1132.895)" fill="#f7ca18"/>
    <path id="Trazado_190815" data-name="Trazado 190815" d="M-476.255,1133.072a.86.86,0,0,1,.857-.857h9.827a.86.86,0,0,1,.857.857.86.86,0,0,1-.857.857H-475.4a.86.86,0,0,1-.857-.857Zm0,0" transform="translate(494.848 -1118.933)" fill="#f7ca18"/>
    <path id="Trazado_190816" data-name="Trazado 190816" d="M-405.03,1055.38a10.13,10.13,0,0,1-10.13,10.13,10.13,10.13,0,0,1-10.13-10.13,10.13,10.13,0,0,1,10.13-10.13,10.13,10.13,0,0,1,10.13,10.13Zm0,0" transform="translate(451.164 -1044.393)" fill="#f7ca18"/>
    <path id="Trazado_190817" data-name="Trazado 190817" d="M-390.451,1080.432l-2.627-2.627-5.7,5.7-2.627-2.627-2.627,2.627,5.254,5.254Zm0,0" transform="translate(432.946 -1072.297)" fill="#fff4eb"/>
    <path id="Trazado_190818" data-name="Trazado 190818" d="M-565.761,1216.2h3.112a.857.857,0,0,0,.857-.857.857.857,0,0,0-.857-.857h-3.112a.857.857,0,0,0-.857.857.857.857,0,0,0,.857.857Zm0,0" transform="translate(572.301 -1189.446)" fill="#f7ca18"/>
    <path id="Trazado_190819" data-name="Trazado 190819" d="M-557.473,1231.388a.858.858,0,0,0-.857-.857h-7.43a.857.857,0,0,0-.857.857.857.857,0,0,0,.857.857h7.43a.857.857,0,0,0,.857-.857Zm0,0" transform="translate(572.301 -1203.203)" fill="#f7ca18"/>
    <path id="Trazado_190820" data-name="Trazado 190820" d="M-518.011,1342.828a.857.857,0,0,0-.857.857.857.857,0,0,0,.857.857h9.835a.857.857,0,0,0,.857-.857.857.857,0,0,0-.857-.857Zm0,0" transform="translate(531.373 -1299.457)" fill="#f7ca18"/>
    <path id="Trazado_190821" data-name="Trazado 190821" d="M-541.424,1359.736a.857.857,0,0,0-.857-.857h-23.48a.857.857,0,0,0-.857.857.857.857,0,0,0,.857.857h23.48a.857.857,0,0,0,.857-.857Zm0,0" transform="translate(572.301 -1313.215)" fill="#f7ca18"/>
    <path id="Trazado_190822" data-name="Trazado 190822" d="M-563.629,1257.977h-2.131a.857.857,0,0,0-.857.857.857.857,0,0,0,.857.857h2.131a.857.857,0,0,0,.857-.857.857.857,0,0,0-.857-.857Zm0,0" transform="translate(572.301 -1226.729)" fill="#f7ca18"/>
    <path id="Trazado_190823" data-name="Trazado 190823" d="M-563.629,1275.559h-2.131a.857.857,0,0,0-.857.857.857.857,0,0,0,.857.857h2.131a.857.857,0,0,0,.857-.857.857.857,0,0,0-.857-.857Zm0,0" transform="translate(572.301 -1241.798)" fill="#f7ca18"/>
    <path id="Trazado_190824" data-name="Trazado 190824" d="M-563.629,1293.141h-2.131a.857.857,0,0,0-.857.857.857.857,0,0,0,.857.857h2.131a.857.857,0,0,0,.857-.857.857.857,0,0,0-.857-.857Zm0,0" transform="translate(572.301 -1256.869)" fill="#f7ca18"/>
    <path id="Trazado_190825" data-name="Trazado 190825" d="M-563.629,1310.723h-2.131a.857.857,0,0,0-.857.857.857.857,0,0,0,.857.857h2.131a.857.857,0,0,0,.857-.857.857.857,0,0,0-.857-.857Zm0,0" transform="translate(572.301 -1271.939)" fill="#f7ca18"/>
    <path id="Trazado_190826" data-name="Trazado 190826" d="M-529.317,1258.834a.857.857,0,0,0,.857.857h18.151a.857.857,0,0,0,.857-.857.857.857,0,0,0-.857-.857H-528.46a.857.857,0,0,0-.857.857Zm0,0" transform="translate(540.329 -1226.729)" fill="#f7ca18"/>
    <path id="Trazado_190827" data-name="Trazado 190827" d="M-523.578,1275.559h-4.882a.857.857,0,0,0-.857.857.857.857,0,0,0,.857.857h4.882a.857.857,0,0,0,.857-.857.857.857,0,0,0-.857-.857Zm0,0" transform="translate(540.329 -1241.798)" fill="#f7ca18"/>
    <path id="Trazado_190828" data-name="Trazado 190828" d="M-529.317,1294a.857.857,0,0,0,.857.857h12.745a.858.858,0,0,0,.857-.857.857.857,0,0,0-.857-.857H-528.46a.857.857,0,0,0-.857.857Zm0,0" transform="translate(540.329 -1256.869)" fill="#f7ca18"/>
    <path id="Trazado_190829" data-name="Trazado 190829" d="M-511.145,1311.58a.857.857,0,0,0-.857-.857H-528.46a.857.857,0,0,0-.857.857.857.857,0,0,0,.857.857H-512a.857.857,0,0,0,.857-.857Zm0,0" transform="translate(540.329 -1271.939)" fill="#f7ca18"/>
    <path id="Trazado_190830" data-name="Trazado 190830" d="M-475.4,1097.663h4a.857.857,0,0,0,.857-.857.857.857,0,0,0-.857-.857h-4a.857.857,0,0,0-.857.857.857.857,0,0,0,.857.857Zm0,0" transform="translate(494.848 -1087.849)" fill="#f7ca18"/>
    <path id="Trazado_190831" data-name="Trazado 190831" d="M-473.9,1182.77a.857.857,0,0,0,.857-.857.857.857,0,0,0-.857-.857H-475.4a.857.857,0,0,0-.857.857.857.857,0,0,0,.857.857Zm0,0" transform="translate(494.848 -1160.796)" fill="#f7ca18"/>
    <path id="Trazado_190832" data-name="Trazado 190832" d="M-570.391,1039.25a10.945,10.945,0,0,0-7.38,2.855h-27.766a.857.857,0,0,0-.857.857v53.949a.857.857,0,0,0,.857.857H-589.5a.857.857,0,0,0,.857-.857.857.857,0,0,0-.857-.857h-15.18v-52.235H-579.3a10.928,10.928,0,0,0-2.075,6.418,10.987,10.987,0,0,0,.239,2.283,11,11,0,0,0,2.131,4.523l.035.043a10.6,10.6,0,0,0,1.825,1.808,10.937,10.937,0,0,0,5.6,2.269v34.891h-14.769a.857.857,0,0,0-.857.857.858.858,0,0,0,.857.857h15.627a.857.857,0,0,0,.857-.857v-35.7a10.979,10.979,0,0,0,2.388-.384.858.858,0,0,0,.6-1.055.857.857,0,0,0-1.055-.6,9.3,9.3,0,0,1-2.486.337,9.283,9.283,0,0,1-9.272-9.272,9.283,9.283,0,0,1,9.272-9.272,9.283,9.283,0,0,1,9.272,9.272,9.261,9.261,0,0,1-4.16,7.737.857.857,0,0,0-.241,1.188.858.858,0,0,0,1.188.241,10.971,10.971,0,0,0,4.927-9.165,11,11,0,0,0-10.987-10.987Zm0,0" transform="translate(606.395 -1039.25)" fill="#f7ca18"/>
  </g>
</svg>
