<svg xmlns="http://www.w3.org/2000/svg" xmlns:xlink="http://www.w3.org/1999/xlink" width="55.721" height="44.253" viewBox="0 0 55.721 44.253">
  <defs>
    <clipPath id="clip-path">
      <rect id="Rectángulo_42376" data-name="Rectángulo 42376" width="55.721" height="42.403" fill="none"/>
    </clipPath>
  </defs>
  <g id="Grupo_134830" data-name="Grupo 134830" transform="translate(0 -0.001)">
    <g id="Grupo_134828" data-name="Grupo 134828" transform="translate(0 1.852)">
      <g id="Grupo_134827" data-name="Grupo 134827">
        <g id="Grupo_134826" data-name="Grupo 134826" clip-path="url(#clip-path)">
          <path id="Trazado_190788" data-name="Trazado 190788" d="M-708.451,2361.173l-5.1-.614a2.044,2.044,0,0,0-.408-2.3l-2.735-2.735a2.028,2.028,0,0,0-1.445-.6,2.029,2.029,0,0,0-1.445.6l-.067.067-3.41-3.411a.816.816,0,0,0-1.154,0l-1.339,1.34a.815.815,0,0,0,0,1.153.815.815,0,0,0,1.153,0l.763-.763,2.833,2.834-8.707,8.707-2.834-2.834,5.8-5.8a.815.815,0,0,0,0-1.153.815.815,0,0,0-1.153,0l-6.379,6.379a.815.815,0,0,0,0,1.153l3.41,3.411-.067.067a2.03,2.03,0,0,0-.6,1.445,2.03,2.03,0,0,0,.6,1.445L-728,2372.3a2.037,2.037,0,0,0,1.445.6,2.073,2.073,0,0,0,.6-.089l5.187,5.188a2.9,2.9,0,0,0-.629,1.81,2.9,2.9,0,0,0,.856,2.067l.048.047a2.9,2.9,0,0,0,2.067.856h.035a2.914,2.914,0,0,0,.854,2.1l.047.048h0a2.913,2.913,0,0,0,2.067.855h.035a2.913,2.913,0,0,0,.854,2.1l.047.047a2.9,2.9,0,0,0,2.067.856h.034a2.912,2.912,0,0,0,.854,2.1l.048.048a2.913,2.913,0,0,0,2.067.855,2.914,2.914,0,0,0,1.809-.626l.19.19a2.92,2.92,0,0,0,2.071.857,2.921,2.921,0,0,0,2.073-.858,2.91,2.91,0,0,0,.859-2.072c0-.018,0-.035,0-.053h.052a2.921,2.921,0,0,0,2.072-.856,2.922,2.922,0,0,0,.856-2.124h.053a2.912,2.912,0,0,0,2.072-.858,2.923,2.923,0,0,0,.856-2.125h.054a2.911,2.911,0,0,0,2.072-.858,2.933,2.933,0,0,0,0-4.143l-.175-.175,1.53-1.53a.816.816,0,0,0,0-1.153.815.815,0,0,0-1.154,0l-1.53,1.53-7.995-8h2.37a.814.814,0,0,0,.577-.239l1.752-1.751a.815.815,0,0,0,0-1.153.816.816,0,0,0-1.154,0l-1.513,1.512h-6.613a.816.816,0,0,0-.577.239l-2.18,2.18a1.3,1.3,0,0,1-.924.383,1.3,1.3,0,0,1-.924-.382,1.3,1.3,0,0,1-.384-.926,1.3,1.3,0,0,1,.383-.925l5.263-5.263.023-.023m-22.024,5.822a.409.409,0,0,1-.121-.292.41.41,0,0,1,.121-.292l11.147-11.147a.412.412,0,0,1,.292-.121.412.412,0,0,1,.292.121l2.734,2.735a.412.412,0,0,1,0,.583l-11.147,11.148a.413.413,0,0,1-.583,0Zm10.238,12.356-.047-.047a1.294,1.294,0,0,1,0-1.827,1.289,1.289,0,0,1,.913-.377,1.287,1.287,0,0,1,.914.378l.048.047a1.293,1.293,0,0,1,.157,1.635c-.062.053-.123.108-.181.167s-.114.119-.166.181a1.293,1.293,0,0,1-1.636-.156Zm3,3-.048-.047a1.294,1.294,0,0,1-.157-1.636c.063-.052.124-.108.182-.166s.113-.119.166-.181a1.294,1.294,0,0,1,1.636.156l.048.048a1.294,1.294,0,0,1,.157,1.637c-.062.053-.123.107-.182.166s-.113.12-.166.182a1.293,1.293,0,0,1-1.636-.157Zm3,3-.047-.047a1.293,1.293,0,0,1-.157-1.637c.062-.052.123-.107.181-.166s.114-.12.166-.182a1.289,1.289,0,0,1,.722-.221,1.287,1.287,0,0,1,.914.378l.047.048a1.292,1.292,0,0,1,.157,1.635c-.062.052-.123.108-.182.167s-.114.119-.166.181a1.293,1.293,0,0,1-1.636-.157Zm4.83,3a1.293,1.293,0,0,1-1.827,0l-.048-.048a1.292,1.292,0,0,1-.157-1.635c.063-.053.124-.108.182-.167s.114-.12.167-.182a1.294,1.294,0,0,1,1.635.157l.048.048a1.293,1.293,0,0,1,0,1.827ZM-714,2366.72a2.923,2.923,0,0,0-.86,2.078,2.924,2.924,0,0,0,.861,2.078,2.92,2.92,0,0,0,2.078.861,2.917,2.917,0,0,0,2.078-.861l1.941-1.941h1.935l10.476,10.477a1.3,1.3,0,0,1,0,1.836,1.291,1.291,0,0,1-.919.381,1.29,1.29,0,0,1-.8-.28c-.034-.038-6.391-6.378-6.391-6.378a.817.817,0,0,0-1.154,0,.816.816,0,0,0,0,1.154l6.277,6.277c.036.036.073.07.11.1a1.3,1.3,0,0,1-.1,1.723,1.291,1.291,0,0,1-.919.381,1.286,1.286,0,0,1-.8-.28c-.034-.037-6.392-6.378-6.392-6.378a.816.816,0,0,0-1.153,0,.815.815,0,0,0,0,1.153l6.277,6.277c.036.036.073.071.11.1a1.3,1.3,0,0,1-.1,1.723,1.3,1.3,0,0,1-1.722.1c-.034-.038-6.392-6.379-6.392-6.379a.816.816,0,0,0-1.153,0,.816.816,0,0,0,0,1.154l6.277,6.277c.036.036.074.071.111.106a1.289,1.289,0,0,1,.279.8,1.289,1.289,0,0,1-.379.917,1.3,1.3,0,0,1-.921.382,1.3,1.3,0,0,1-.92-.381l-.385-.386a2.926,2.926,0,0,0-.7-3.01l-.048-.048a2.9,2.9,0,0,0-2.067-.856h-.033c0-.011,0-.022,0-.033a2.9,2.9,0,0,0-.856-2.067l-.047-.047a2.915,2.915,0,0,0-2.1-.854,2.914,2.914,0,0,0-.854-2.1l-.048-.048a2.9,2.9,0,0,0-2.067-.856h-.034a2.915,2.915,0,0,0-.854-2.1l-.047-.047a2.9,2.9,0,0,0-2.067-.856,2.934,2.934,0,0,0-.944.156l-5.214-5.215,9.777-9.777,4.942.594Z" transform="translate(734.317 -2349.921)" fill="#f7ca18"/>
        </g>
      </g>
      <path id="Trazado_190789" data-name="Trazado 190789" d="M-681.453,2461.293l.521-.521a.816.816,0,0,0,0-1.154.816.816,0,0,0-1.153,0l-.521.521a.816.816,0,0,0,0,1.153.813.813,0,0,0,.577.239.812.812,0,0,0,.577-.239Zm0,0" transform="translate(689.84 -2442.757)" fill="#f7ca18"/>
    </g>
    <g id="Grupo_134829" data-name="Grupo 134829" transform="translate(20.294)">
      <path id="Trazado_190790" data-name="Trazado 190790" d="M-577.355,2324.354a.821.821,0,0,0-.029,1.16l1.305,1.373-.439.417-1-1.053a.82.82,0,0,0-.979-.159l-.625-.657a1.372,1.372,0,0,0-1.4-.363l-.947-1a2.027,2.027,0,0,0-1.428-.634,2.027,2.027,0,0,0-1.461.561,2.045,2.045,0,0,0-.073,2.888l.948,1a1.37,1.37,0,0,0,.291,1.417l.625.657a.821.821,0,0,0,.109.987l7.821,8.227a.82.82,0,0,0,.98.158l1.031,1.084.007.008.008.007,1.772,1.864.007.008.008.008,7.8,8.2a.835.835,0,0,0,.27.2l5.044,2.3a.821.821,0,0,0,.905-.152l.009-.009a.818.818,0,0,0,.18-.909l-2.161-5.036a.82.82,0,0,0-.159-.241l-2.713-2.854a.82.82,0,0,0-1.16-.03.821.821,0,0,0-.029,1.16l2.148,2.26-1.693,1.61-10.06-10.582,1.693-1.61,5.813,6.115a.82.82,0,0,0,1.16.029.82.82,0,0,0,.029-1.159l-5.834-6.138a.82.82,0,0,0-.109-.986l-5.689-5.985.439-.417,9.249,9.729a.82.82,0,0,0,1.16.03.821.821,0,0,0,.029-1.16l-11.685-12.291a.821.821,0,0,0-1.16-.029Zm17.528,24.28.86,2-2.008-.914Zm-23.417-22.873a.4.4,0,0,1,.014-.569.4.4,0,0,1,.29-.11.4.4,0,0,1,.28.124l.849.893-.584.555Zm1.424,2.609,1.693-1.61.418.44-1.693,1.61Zm4.651.63c.008.01.016.02.025.029s.018.017.027.026l5.663,5.957-2.564,2.438-6.69-7.038,2.564-2.437Zm0,0" transform="translate(584.995 -2323.441)" fill="#f7ca18"/>
    </g>
  </g>
</svg>
