<svg xmlns="http://www.w3.org/2000/svg" xmlns:xlink="http://www.w3.org/1999/xlink" width="68.346" height="77.592" viewBox="0 0 68.346 77.592">
  <defs>
    <clipPath id="clip-path">
      <rect id="Rectángulo_42360" data-name="Rectángulo 42360" width="68.346" height="77.592" fill="none"/>
    </clipPath>
  </defs>
  <g id="Grupo_134849" data-name="Grupo 134849" transform="translate(-2639.591 -886.102)">
    <path id="Trazado_190740" data-name="Trazado 190740" d="M2733.893,991.479a1.133,1.133,0,0,0-1.133,1.133v5.674h-23.448a1.133,1.133,0,0,0,0,2.267h24.581a1.133,1.133,0,0,0,1.133-1.133v-6.807a1.133,1.133,0,0,0-1.133-1.133Zm0,0" transform="translate(-27.207 -41.8)" fill="#f7ca18"/>
    <path id="Trazado_190741" data-name="Trazado 190741" d="M2682.691,986.63h-5.768a1.133,1.133,0,1,0,0,2.266h5.768a1.133,1.133,0,0,0,0-2.266Zm0,0" transform="translate(-14.359 -39.877)" fill="#f7ca18"/>
    <path id="Trazado_190742" data-name="Trazado 190742" d="M2659.53,926.61a1.132,1.132,0,0,0-1.134,1.133v.233a1.133,1.133,0,0,0,2.267,0v-.233a1.133,1.133,0,0,0-1.133-1.133Zm0,0" transform="translate(-7.46 -16.068)" fill="#f7ca18"/>
    <path id="Trazado_190743" data-name="Trazado 190743" d="M2678.112,929.109a1.133,1.133,0,0,0,1.133-1.133v-.233a1.133,1.133,0,1,0-2.266,0v.233a1.133,1.133,0,0,0,1.133,1.133Zm0,0" transform="translate(-14.831 -16.068)" fill="#f7ca18"/>
    <path id="Trazado_190744" data-name="Trazado 190744" d="M2670.717,940.362a1.134,1.134,0,0,0-1.377-1.8,3.546,3.546,0,0,1-3.853,0,1.133,1.133,0,0,0-1.376,1.8,5.793,5.793,0,0,0,6.606,0Zm0,0" transform="translate(-9.55 -20.717)" fill="#f7ca18"/>
    <path id="Trazado_190745" data-name="Trazado 190745" d="M2722.769,946.711h-6.435v-3.544a7.729,7.729,0,0,0-7.721-7.72h-13.187a7.729,7.729,0,0,0-7.72,7.72v3.544h-6.436a1.145,1.145,0,0,0-1.133,1.133v.638a16.493,16.493,0,0,1,3.267,1.9l-.513-1.4h11.09v1.3a1.133,1.133,0,0,0,1.133,1.133h13.811a1.133,1.133,0,0,0,1.133-1.133v-1.3h11.578v17.2a1.133,1.133,0,0,0,2.266,0V947.844a1.146,1.146,0,0,0-1.133-1.133Zm-14.977,2.436h-11.545V947.2h11.545Zm6.276-2.436h-4.01v-.641a1.132,1.132,0,0,0-1.133-1.133h-13.811a1.132,1.132,0,0,0-1.133,1.133v.641h-4.01v-3.544a5.46,5.46,0,0,1,5.454-5.454h13.187a5.46,5.46,0,0,1,5.455,5.454Zm0,0" transform="translate(-16.084 -19.573)" fill="#f7ca18"/>
    <g id="Grupo_134745" data-name="Grupo 134745" transform="translate(2639.591 886.102)">
      <g id="Grupo_134744" data-name="Grupo 134744" clip-path="url(#clip-path)">
        <path id="Trazado_190747" data-name="Trazado 190747" d="M2670.167,933.556c-.3-.373-.621-.731-.954-1.073l-.019-.023a.883.883,0,0,0-.086-.081,15.9,15.9,0,0,0-1.75-1.531,16.487,16.487,0,0,0-3.267-1.9,15.722,15.722,0,0,0-1.9-.682v-1.458a11.692,11.692,0,0,0,7.037-8.709c.115.007.23.013.346.013a5.483,5.483,0,0,0,3.981-9.256,16.825,16.825,0,0,0,1.949-4.853q1.246-.573,2.513-1.3a1.133,1.133,0,0,0-.333-2.092c-.021,0-.733-.156-1.8-.452a17.243,17.243,0,0,0-1.041-5.42,11.882,11.882,0,0,0-6.653-6.6,24.173,24.173,0,0,0-10.387-1.928c-6.547.165-14.97,2.921-17.157,10.145-1.878,6.2-.7,10.39.847,12.971a5.483,5.483,0,0,0,4.38,8.786c.115,0,.23-.006.344-.013a11.692,11.692,0,0,0,7.159,8.76v1.4a15.9,15.9,0,0,0-6.346,3.563c-.21.193-.413.392-.612.594-.012.013-.028.026-.041.041l-.03.036a15.854,15.854,0,0,0-4.409,9.587,1.133,1.133,0,0,0,1.024,1.232,1.035,1.035,0,0,0,.106,0,1.132,1.132,0,0,0,1.126-1.029,13.579,13.579,0,0,1,3.077-7.437,6.7,6.7,0,0,1,1.586-1.619,13.638,13.638,0,0,1,4.569-2.614,4.413,4.413,0,0,0,2.171,3.164,5,5,0,0,0,4.373,0,4.412,4.412,0,0,0,2.17-3.161,13.514,13.514,0,0,1,4.556,2.624,8.7,8.7,0,0,1,1.582,1.624,13.652,13.652,0,0,1,3.154,8.687v17.729h-27.3V946.394a1.133,1.133,0,0,0-2.266,0V962.42a1.133,1.133,0,0,0,1.133,1.133h29.562a1.133,1.133,0,0,0,1.133-1.133v-3.63h4.232a1.133,1.133,0,0,0,0-2.266H2673.7V943.558c0-.08,0-.16-.005-.241a12.5,12.5,0,0,0-.257-2.615,15.929,15.929,0,0,0-3.272-7.146Zm-.589-17.709c-.034,0-.068,0-.1,0l.535-6.4a3.219,3.219,0,0,1-.433,6.408Zm2.112-8.283a5.475,5.475,0,0,0-1.49-.387l.113-1.348c.83-.205,1.674-.454,2.531-.752a14.846,14.846,0,0,1-1.154,2.487Zm-25.812,8.283a3.218,3.218,0,0,1-.434-6.407l.534,6.4c-.033,0-.066,0-.1,0Zm-1.768-11.784a1.133,1.133,0,0,0,.739,2.143q.16-.057.315-.116l.091,1.087a5.426,5.426,0,0,0-2.011.639c-1.556-2.861-1.707-6.567-.424-10.8,1.837-6.066,9.253-8.389,15.046-8.536,6.084-.153,13.031,1.961,14.849,7.031a15.31,15.31,0,0,1,.866,3.937,20.935,20.935,0,0,1-5.52-2.725,1.133,1.133,0,0,0-1.366,1.808,25.7,25.7,0,0,0,7.61,3.54l-.177.078a1.146,1.146,0,0,0-.134.058,27.083,27.083,0,0,1-23.964-1.343,1.138,1.138,0,0,0-1.506.261,10.287,10.287,0,0,1-4.415,2.942Zm15.82,25.052v.847a2.141,2.141,0,0,1-4.282,0v-2.453a11.677,11.677,0,0,0,4.282-.021Zm-2.2-3.685a9.486,9.486,0,0,1-9.4-8.645l-.981-11.76a12.792,12.792,0,0,0,2.292-1.777,30,30,0,0,0,13.821,3.413A28.528,28.528,0,0,0,2668,906.3l-.875,10.487a9.485,9.485,0,0,1-9.4,8.645Zm0,0" transform="translate(-2639.628 -886.142)" fill="#f7ca18"/>
      </g>
    </g>
  </g>
</svg>
