<svg xmlns="http://www.w3.org/2000/svg" xmlns:xlink="http://www.w3.org/1999/xlink" width="1600" height="506.153" viewBox="0 0 1600 506.153">
  <defs>
    <clipPath id="clip-path">
      <path id="Trazado_189429" data-name="Trazado 189429" d="M1599.51,481.229H.344L0,19.187C0,8.59,10.783,0,24.084,0L1575.916.4C1589.217.4,1600,9,1600,19.592Z" transform="translate(-270.398)" fill="#7fc733"/>
    </clipPath>
    <linearGradient id="linear-gradient" x1="0.927" y1="0.938" x2="0.019" y2="1.029" gradientUnits="objectBoundingBox">
      <stop offset="0" stop-color="#6836bf"/>
      <stop offset="0.256" stop-color="#6836bf"/>
      <stop offset="0.637" stop-color="#6836bf"/>
      <stop offset="1" stop-color="#6836bf"/>
    </linearGradient>
  </defs>
  <g id="Grupo_134908" data-name="Grupo 134908" transform="translate(0 -1458.847)">
    <g id="Enmascarar_grupo_140" data-name="Enmascarar grupo 140" transform="translate(1329.602 1965) rotate(180)" opacity="0.152" clip-path="url(#clip-path)">
      <g id="Grupo_131880" data-name="Grupo 131880" transform="translate(-36.335 -953.414)">
        <path id="Trazado_189422" data-name="Trazado 189422" d="M1337.324,581.936s-236.853,89.409-366.286-96.666S674.154,78.956,418.921,97.1s-334.081,0-334.081,0S14.383,54.428-19.387,20.658,20.741.455,20.741.455H1355.42v568.9Z" transform="translate(28.224 811.455)" fill="url(#linear-gradient)"/>
        <path id="Unión_28" data-name="Unión 28" d="M196.5,659.308a305.621,305.621,0,0,1-64.652-19.538,261.178,261.178,0,0,1-58.558-34.348,200.391,200.391,0,0,1-45.269-49.115A170.888,170.888,0,0,1,3.237,492.466,220.066,220.066,0,0,1,1.255,431.51a187.611,187.611,0,0,1,15.911-58.437c.968-2.1,2.014-4.241,3.21-6.542A161.743,161.743,0,0,1,68.2,311.1a191.217,191.217,0,0,1,31.487-18.851,213.906,213.906,0,0,1,34.689-12.95c20.239-5.647,41.342-8.394,64.535-8.394,33.328,0,65.9,5.553,100.381,11.434l.052.015,2.553.431c23.7,4.042,43.065,5.917,60.953,5.917,18.194,0,34.25-1.966,49.077-6.014a136.11,136.11,0,0,0,23.106-8.558,124.027,124.027,0,0,0,21.578-13.195,155.073,155.073,0,0,0,24.337-23.2,214.2,214.2,0,0,0,19.539-27.207c11.8-19.2,21.633-40.553,31.141-61.195l.029-.061c8.55-18.55,17.388-37.732,27.652-55.4a249.117,249.117,0,0,1,16.779-25.445,176.642,176.642,0,0,1,20.3-22.661A171.375,171.375,0,0,1,712.138,0h.541A175.757,175.757,0,0,1,749.57,4.167a179.084,179.084,0,0,1,37,12.36c25.907,12.016,45.37,29.226,56.3,49.767a83.5,83.5,0,0,1,7.385,19.2,96.275,96.275,0,0,1,2.7,19.139c.584,12.739-.938,25.709-2.42,38.245v.042c-2.03,17.209-4.122,35.012-.926,52.84a89.043,89.043,0,0,0,5.644,19.195,82.405,82.405,0,0,0,9.105,16.115c6.705,9.236,15.387,17.327,26.561,24.725,20.72,13.72,46.8,22.777,72.009,31.533l.049.021c13.579,4.715,27.615,9.588,40.365,15.071,14.285,6.139,25.536,12.469,34.4,19.337q3.526,2.733,6.925,5.765h215.9V444.572s7.6,131.459-170.63,88.1c-.059-.013-.116-.027-.172-.042l-.478-.113c-6.223-1.524-12.6-3.242-19.064-5.134a676.91,676.91,0,0,0-96.309-20.31c-.175-.025-.333-.049-.508-.072l-1.044-.145q-17.159-2.364-34.2-3.988c-.029,0-.059-.007-.086-.01l-1.246-.116c-.284-.029-.559-.057-.838-.082l-.326-.029c-23.219-2.166-47.35-3.51-72.129-4.012-31.06-.621-60.721.126-87.808,1.611l-.669.037c-.423.021-.856.044-1.28.069-.654.04-1.309.076-1.966.113l-.107.007q-5.01.291-10.021.623c-11.517.764-23.041,1.68-34.493,2.745-18.436,1.717-34.819,3.645-48.553,5.472q-5.269.7-10.431,1.44l-.064,0c-22.723,3.24-35.885,5.841-35.885,5.841l-.084-.008a329.229,329.229,0,0,0-47.7,15.624c-29.69,12.105-57.739,27.613-78.855,39.773-39.368,22.668-81.413,46.239-124.464,63.585a420.046,420.046,0,0,1-65.153,20.689,327.124,327.124,0,0,1-33.593,5.771,296.13,296.13,0,0,1-34.38,2.038A283.857,283.857,0,0,1,196.5,659.308Z" transform="translate(763.699 1414.865) rotate(-111)" fill="#3e2072" stroke="rgba(0,0,0,0)" stroke-miterlimit="10" stroke-width="1" opacity="0.15" style="mix-blend-mode: color-burn;isolation: isolate"/>
      </g>
    </g>
    <g id="Grupo_134386" data-name="Grupo 134386" transform="translate(1156.558 1748.152)" opacity="0.15">
      <path id="Trazado_139692" data-name="Trazado 139692" d="M55.088,38.3a5.847,5.847,0,1,1-5.846-5.846A5.849,5.849,0,0,1,55.088,38.3" transform="translate(-43.393 -32.458)" fill="#7fc733"/>
      <path id="Trazado_139693" data-name="Trazado 139693" d="M69.043,38.3A5.847,5.847,0,1,1,63.2,32.458,5.849,5.849,0,0,1,69.043,38.3" transform="translate(-18.975 -32.458)" fill="#7fc733"/>
      <path id="Trazado_139694" data-name="Trazado 139694" d="M83,38.3a5.847,5.847,0,1,1-5.849-5.846A5.849,5.849,0,0,1,83,38.3" transform="translate(5.444 -32.458)" fill="#7fc733"/>
      <path id="Trazado_139695" data-name="Trazado 139695" d="M110.909,38.3a5.847,5.847,0,1,1-5.846-5.846,5.849,5.849,0,0,1,5.846,5.846" transform="translate(54.278 -32.458)" fill="#7fc733"/>
      <path id="Trazado_139696" data-name="Trazado 139696" d="M124.864,38.3a5.847,5.847,0,1,1-5.849-5.846,5.849,5.849,0,0,1,5.849,5.846" transform="translate(78.697 -32.458)" fill="#7fc733"/>
      <path id="Trazado_139697" data-name="Trazado 139697" d="M138.82,38.3a5.847,5.847,0,1,1-5.849-5.846A5.849,5.849,0,0,1,138.82,38.3" transform="translate(103.115 -32.458)" fill="#7fc733"/>
      <path id="Trazado_139698" data-name="Trazado 139698" d="M152.775,38.3a5.847,5.847,0,1,1-5.846-5.846,5.849,5.849,0,0,1,5.846,5.846" transform="translate(127.53 -32.458)" fill="#7fc733"/>
      <path id="Trazado_139699" data-name="Trazado 139699" d="M55.088,51.291a5.847,5.847,0,1,1-5.846-5.846,5.849,5.849,0,0,1,5.846,5.846" transform="translate(-43.393 -9.731)" fill="#7fc733"/>
      <path id="Trazado_139700" data-name="Trazado 139700" d="M69.043,51.291A5.847,5.847,0,1,1,63.2,45.445a5.849,5.849,0,0,1,5.846,5.846" transform="translate(-18.975 -9.731)" fill="#7fc733"/>
      <path id="Trazado_139701" data-name="Trazado 139701" d="M83,51.291a5.847,5.847,0,1,1-5.849-5.846A5.849,5.849,0,0,1,83,51.291" transform="translate(5.444 -9.731)" fill="#7fc733"/>
      <path id="Trazado_139702" data-name="Trazado 139702" d="M96.954,51.291A5.847,5.847,0,1,1,91.1,45.445a5.849,5.849,0,0,1,5.849,5.846" transform="translate(29.86 -9.731)" fill="#7fc733"/>
      <path id="Trazado_139703" data-name="Trazado 139703" d="M110.909,51.291a5.847,5.847,0,1,1-5.846-5.846,5.849,5.849,0,0,1,5.846,5.846" transform="translate(54.278 -9.731)" fill="#7fc733"/>
      <path id="Trazado_139704" data-name="Trazado 139704" d="M124.864,51.291a5.847,5.847,0,1,1-5.849-5.846,5.849,5.849,0,0,1,5.849,5.846" transform="translate(78.697 -9.731)" fill="#7fc733"/>
      <path id="Trazado_139705" data-name="Trazado 139705" d="M138.82,51.291a5.847,5.847,0,1,1-5.849-5.846,5.849,5.849,0,0,1,5.849,5.846" transform="translate(103.115 -9.731)" fill="#7fc733"/>
      <path id="Trazado_139706" data-name="Trazado 139706" d="M152.775,51.291a5.847,5.847,0,1,1-5.846-5.846,5.849,5.849,0,0,1,5.846,5.846" transform="translate(127.53 -9.731)" fill="#7fc733"/>
      <path id="Trazado_139707" data-name="Trazado 139707" d="M55.088,64.279a5.847,5.847,0,1,1-5.846-5.849,5.849,5.849,0,0,1,5.846,5.849" transform="translate(-43.393 12.988)" fill="#7fc733"/>
      <path id="Trazado_139708" data-name="Trazado 139708" d="M69.043,64.279A5.847,5.847,0,1,1,63.2,58.43a5.849,5.849,0,0,1,5.846,5.849" transform="translate(-18.975 12.988)" fill="#7fc733"/>
      <path id="Trazado_139709" data-name="Trazado 139709" d="M83,64.279A5.847,5.847,0,1,1,77.15,58.43,5.849,5.849,0,0,1,83,64.279" transform="translate(5.444 12.988)" fill="#7fc733"/>
      <path id="Trazado_139710" data-name="Trazado 139710" d="M96.954,64.279A5.847,5.847,0,1,1,91.1,58.43a5.849,5.849,0,0,1,5.849,5.849" transform="translate(29.86 12.988)" fill="#7fc733"/>
      <path id="Trazado_139711" data-name="Trazado 139711" d="M110.909,64.279a5.847,5.847,0,1,1-5.846-5.849,5.849,5.849,0,0,1,5.846,5.849" transform="translate(54.278 12.988)" fill="#7fc733"/>
      <path id="Trazado_139712" data-name="Trazado 139712" d="M124.864,64.279a5.847,5.847,0,1,1-5.849-5.849,5.849,5.849,0,0,1,5.849,5.849" transform="translate(78.697 12.988)" fill="#7fc733"/>
      <path id="Trazado_139713" data-name="Trazado 139713" d="M138.82,64.279a5.847,5.847,0,1,1-5.849-5.849,5.849,5.849,0,0,1,5.849,5.849" transform="translate(103.115 12.988)" fill="#7fc733"/>
      <path id="Trazado_139714" data-name="Trazado 139714" d="M152.775,64.279a5.847,5.847,0,1,1-5.846-5.849,5.849,5.849,0,0,1,5.846,5.849" transform="translate(127.53 12.988)" fill="#7fc733"/>
    </g>
    <g id="Grupo_134387" data-name="Grupo 134387" transform="translate(1353.748 1739.152) rotate(-90)" opacity="0.15">
      <path id="Trazado_139692-2" data-name="Trazado 139692" d="M55.088,38.3a5.847,5.847,0,1,1-5.846-5.846A5.849,5.849,0,0,1,55.088,38.3" transform="translate(-43.393 -32.458)" fill="#7fc733"/>
      <path id="Trazado_139693-2" data-name="Trazado 139693" d="M69.043,38.3A5.847,5.847,0,1,1,63.2,32.458,5.849,5.849,0,0,1,69.043,38.3" transform="translate(-18.975 -32.458)" fill="#7fc733"/>
      <path id="Trazado_139694-2" data-name="Trazado 139694" d="M83,38.3a5.847,5.847,0,1,1-5.849-5.846A5.849,5.849,0,0,1,83,38.3" transform="translate(5.444 -32.458)" fill="#7fc733"/>
      <path id="Trazado_139695-2" data-name="Trazado 139695" d="M110.909,38.3a5.847,5.847,0,1,1-5.846-5.846,5.849,5.849,0,0,1,5.846,5.846" transform="translate(54.278 -32.458)" fill="#7fc733"/>
      <path id="Trazado_139696-2" data-name="Trazado 139696" d="M124.864,38.3a5.847,5.847,0,1,1-5.849-5.846,5.849,5.849,0,0,1,5.849,5.846" transform="translate(78.697 -32.458)" fill="#7fc733"/>
      <path id="Trazado_139697-2" data-name="Trazado 139697" d="M138.82,38.3a5.847,5.847,0,1,1-5.849-5.846A5.849,5.849,0,0,1,138.82,38.3" transform="translate(103.115 -32.458)" fill="#7fc733"/>
      <path id="Trazado_139698-2" data-name="Trazado 139698" d="M152.775,38.3a5.847,5.847,0,1,1-5.846-5.846,5.849,5.849,0,0,1,5.846,5.846" transform="translate(127.53 -32.458)" fill="#7fc733"/>
      <path id="Trazado_139699-2" data-name="Trazado 139699" d="M55.088,51.291a5.847,5.847,0,1,1-5.846-5.846,5.849,5.849,0,0,1,5.846,5.846" transform="translate(-43.393 -9.731)" fill="#7fc733"/>
      <path id="Trazado_139700-2" data-name="Trazado 139700" d="M69.043,51.291A5.847,5.847,0,1,1,63.2,45.445a5.849,5.849,0,0,1,5.846,5.846" transform="translate(-18.975 -9.731)" fill="#7fc733"/>
      <path id="Trazado_139701-2" data-name="Trazado 139701" d="M83,51.291a5.847,5.847,0,1,1-5.849-5.846A5.849,5.849,0,0,1,83,51.291" transform="translate(5.444 -9.731)" fill="#7fc733"/>
      <path id="Trazado_139702-2" data-name="Trazado 139702" d="M96.954,51.291A5.847,5.847,0,1,1,91.1,45.445a5.849,5.849,0,0,1,5.849,5.846" transform="translate(29.86 -9.731)" fill="#7fc733"/>
      <path id="Trazado_139703-2" data-name="Trazado 139703" d="M110.909,51.291a5.847,5.847,0,1,1-5.846-5.846,5.849,5.849,0,0,1,5.846,5.846" transform="translate(54.278 -9.731)" fill="#7fc733"/>
      <path id="Trazado_139704-2" data-name="Trazado 139704" d="M124.864,51.291a5.847,5.847,0,1,1-5.849-5.846,5.849,5.849,0,0,1,5.849,5.846" transform="translate(78.697 -9.731)" fill="#7fc733"/>
      <path id="Trazado_139705-2" data-name="Trazado 139705" d="M138.82,51.291a5.847,5.847,0,1,1-5.849-5.846,5.849,5.849,0,0,1,5.849,5.846" transform="translate(103.115 -9.731)" fill="#7fc733"/>
      <path id="Trazado_139706-2" data-name="Trazado 139706" d="M152.775,51.291a5.847,5.847,0,1,1-5.846-5.846,5.849,5.849,0,0,1,5.846,5.846" transform="translate(127.53 -9.731)" fill="#7fc733"/>
      <path id="Trazado_139707-2" data-name="Trazado 139707" d="M55.088,64.279a5.847,5.847,0,1,1-5.846-5.849,5.849,5.849,0,0,1,5.846,5.849" transform="translate(-43.393 12.988)" fill="#7fc733"/>
      <path id="Trazado_139708-2" data-name="Trazado 139708" d="M69.043,64.279A5.847,5.847,0,1,1,63.2,58.43a5.849,5.849,0,0,1,5.846,5.849" transform="translate(-18.975 12.988)" fill="#7fc733"/>
      <path id="Trazado_139709-2" data-name="Trazado 139709" d="M83,64.279A5.847,5.847,0,1,1,77.15,58.43,5.849,5.849,0,0,1,83,64.279" transform="translate(5.444 12.988)" fill="#7fc733"/>
      <path id="Trazado_139710-2" data-name="Trazado 139710" d="M96.954,64.279A5.847,5.847,0,1,1,91.1,58.43a5.849,5.849,0,0,1,5.849,5.849" transform="translate(29.86 12.988)" fill="#7fc733"/>
      <path id="Trazado_139711-2" data-name="Trazado 139711" d="M110.909,64.279a5.847,5.847,0,1,1-5.846-5.849,5.849,5.849,0,0,1,5.846,5.849" transform="translate(54.278 12.988)" fill="#7fc733"/>
      <path id="Trazado_139712-2" data-name="Trazado 139712" d="M124.864,64.279a5.847,5.847,0,1,1-5.849-5.849,5.849,5.849,0,0,1,5.849,5.849" transform="translate(78.697 12.988)" fill="#7fc733"/>
      <path id="Trazado_139713-2" data-name="Trazado 139713" d="M138.82,64.279a5.847,5.847,0,1,1-5.849-5.849,5.849,5.849,0,0,1,5.849,5.849" transform="translate(103.115 12.988)" fill="#7fc733"/>
      <path id="Trazado_139714-2" data-name="Trazado 139714" d="M152.775,64.279a5.847,5.847,0,1,1-5.846-5.849,5.849,5.849,0,0,1,5.846,5.849" transform="translate(127.53 12.988)" fill="#7fc733"/>
    </g>
  </g>
</svg>
