<svg xmlns="http://www.w3.org/2000/svg" xmlns:xlink="http://www.w3.org/1999/xlink" width="190" height="112" viewBox="0 0 190 112">
  <defs>
    <linearGradient id="linear-gradient" x1="0.5" x2="0.5" y2="1" gradientUnits="objectBoundingBox">
      <stop offset="0" stop-color="#f7ca2e" stop-opacity="0"/>
      <stop offset="0.091" stop-color="#f7ca2e" stop-opacity="0.129"/>
      <stop offset="0.283" stop-color="#f7ca2e" stop-opacity="0.388"/>
      <stop offset="0.465" stop-color="#f7ca2e" stop-opacity="0.612"/>
      <stop offset="0.633" stop-color="#f7ca2e" stop-opacity="0.78"/>
      <stop offset="0.784" stop-color="#f7ca2e" stop-opacity="0.902"/>
      <stop offset="0.911" stop-color="#f7ca2e" stop-opacity="0.969"/>
      <stop offset="1" stop-color="#f7ca2e"/>
    </linearGradient>
    <linearGradient id="linear-gradient-2" x1="0.5" x2="0.5" y2="1" gradientUnits="objectBoundingBox">
      <stop offset="0" stop-color="#b13e8d" stop-opacity="0"/>
      <stop offset="0.091" stop-color="#b13e8d" stop-opacity="0.129"/>
      <stop offset="0.283" stop-color="#b13e8d" stop-opacity="0.388"/>
      <stop offset="0.465" stop-color="#b13e8d" stop-opacity="0.612"/>
      <stop offset="0.633" stop-color="#b13e8d" stop-opacity="0.78"/>
      <stop offset="0.784" stop-color="#b13e8d"/>
      <stop offset="0.911" stop-color="#b13e8d" stop-opacity="0.969"/>
      <stop offset="1" stop-color="#b13e8d"/>
    </linearGradient>
    <filter id="Rectángulo_40718" x="41" y="4" width="108" height="108" filterUnits="userSpaceOnUse">
      <feOffset dy="3" input="SourceAlpha"/>
      <feGaussianBlur stdDeviation="3" result="blur"/>
      <feFlood flood-opacity="0.161"/>
      <feComposite operator="in" in2="blur"/>
      <feComposite in="SourceGraphic"/>
    </filter>
    <clipPath id="clip-path">
      <rect id="Rectángulo_42364" data-name="Rectángulo 42364" width="63.797" height="70.891" fill="none"/>
    </clipPath>
  </defs>
  <g id="Grupo_134904" data-name="Grupo 134904" transform="translate(-153 -1404)">
    <g id="Grupo_134396" data-name="Grupo 134396" transform="translate(-27 -425)">
      <g id="Grupo_128316" data-name="Grupo 128316" transform="translate(0 -87)">
        <rect id="Rectángulo_40586" data-name="Rectángulo 40586" width="190" height="20" transform="translate(180 1961)" fill="none"/>
        <g id="Grupo_108405" data-name="Grupo 108405" transform="translate(209.5 1980)">
          <path id="Rectángulo_5242" data-name="Rectángulo 5242" d="M0,0H12a0,0,0,0,1,0,0V43.333a3,3,0,0,1-3,3H3a3,3,0,0,1-3-3V0A0,0,0,0,1,0,0Z" transform="translate(0 0)" fill="url(#linear-gradient)"/>
        </g>
        <g id="Grupo_108406" data-name="Grupo 108406" transform="translate(340 1968) rotate(180)">
          <path id="Rectángulo_5242-2" data-name="Rectángulo 5242" d="M0,0H12a0,0,0,0,1,0,0V49a3,3,0,0,1-3,3H3a3,3,0,0,1-3-3V0A0,0,0,0,1,0,0Z" transform="translate(0 0)" fill="url(#linear-gradient-2)"/>
        </g>
        <g transform="matrix(1, 0, 0, 1, 180, 1916)" filter="url(#Rectángulo_40718)">
          <path id="Rectángulo_40718-2" data-name="Rectángulo 40718" d="M10,0H80A10,10,0,0,1,90,10V90a0,0,0,0,1,0,0H10A10,10,0,0,1,0,80V10A10,10,0,0,1,10,0Z" transform="translate(50 10)" fill="#f6f6f6"/>
        </g>
      </g>
    </g>
    <g id="Grupo_134754" data-name="Grupo 134754" transform="translate(-2099.317 -1063.763)">
      <g id="Grupo_134753" data-name="Grupo 134753" transform="translate(2315.521 2487.872)">
        <g id="Grupo_134752" data-name="Grupo 134752" transform="translate(0)" clip-path="url(#clip-path)">
          <path id="Trazado_190748" data-name="Trazado 190748" d="M2378.445,2546.445l-1.2-1.465a1.973,1.973,0,0,0-2.776-.273l-.393.323-2.233-2.719a1.035,1.035,0,0,0-1.6,1.314l2.233,2.718-6.03,4.952-6.77-8.245-1.314-1.6-2.056-2.5,6.031-4.952,2.056,2.5,1.313,1.6,2.086,2.54a1.035,1.035,0,1,0,1.6-1.314l-2.742-3.339h0l-2.712-3.3.393-.322a1.975,1.975,0,0,0,.273-2.776l-1.2-1.466a4.626,4.626,0,0,0-6.5-.638l-.093.076-2.057-2.5a22.21,22.21,0,1,0-33.859-.555,22.259,22.259,0,0,0,12.643,7.649,1.035,1.035,0,1,0,.421-2.027,20.131,20.131,0,1,1,18.715-5.858c-.022.021-.042.042-.062.065a20.629,20.629,0,0,1-1.775,1.642,20.131,20.131,0,0,1-13.221,4.569,1.035,1.035,0,0,0-.047,2.07c.166,0,.331.006.5.006a22.2,22.2,0,0,0,10.927-2.878l2.081,2.535-.092.076a4.622,4.622,0,0,0-.639,6.5l1.2,1.465a1.973,1.973,0,0,0,2.776.272l.393-.322,10.139,12.348-.392.322a1.975,1.975,0,0,0-.272,2.776l1.2,1.465a4.621,4.621,0,0,0,6.505.639l5.921-4.862a4.621,4.621,0,0,0,.638-6.505Zm-27.7-17.827q.715-.5,1.394-1.053.6-.49,1.154-1.017l1.905,2.321-2.537,2.083Zm3.447,9.383,0,0s0,0,0,0l-1.113.914-1.141-1.389a2.55,2.55,0,0,1,.353-3.591l.887-.729,0,0,.007-.006,4.126-3.388s0,0,0,0l.005,0,.888-.729a2.554,2.554,0,0,1,3.591.352l1.141,1.39Zm23.22,11.627a2.532,2.532,0,0,1-.92,1.723l-5.921,4.862a2.552,2.552,0,0,1-3.591-.353l-1.141-1.39,1.116-.916h0l7.62-6.256.01-.008.017-.015,1.1-.9,1.142,1.39a2.535,2.535,0,0,1,.567,1.868Zm0,0" transform="translate(-2315.781 -2488.136)" fill="#603eb7"/>
        </g>
      </g>
    </g>
  </g>
</svg>
