<svg xmlns="http://www.w3.org/2000/svg" xmlns:xlink="http://www.w3.org/1999/xlink" width="88" height="88" viewBox="0 0 88 88">
  <defs>
    <filter id="Rect치ngulo_40719" x="0" y="0" width="88" height="88" filterUnits="userSpaceOnUse">
      <feOffset dy="3" input="SourceAlpha"/>
      <feGaussianBlur stdDeviation="3" result="blur"/>
      <feFlood flood-opacity="0.161"/>
      <feComposite operator="in" in2="blur"/>
      <feComposite in="SourceGraphic"/>
    </filter>
  </defs>
  <g id="Grupo_134675" data-name="Grupo 134675" transform="translate(-1306.333 -348)">
    <g id="Grupo_128459" data-name="Grupo 128459" transform="translate(1081.333 -561)">
      <g transform="matrix(1, 0, 0, 1, 225, 909)" filter="url(#Rect치ngulo_40719)">
        <path id="Rect치ngulo_40719-2" data-name="Rect치ngulo 40719" d="M10,0H60A10,10,0,0,1,70,10V70a0,0,0,0,1,0,0H10A10,10,0,0,1,0,60V10A10,10,0,0,1,10,0Z" transform="translate(9 6)" fill="#b13e8d"/>
      </g>
    </g>
    <g id="Grupo_134621" data-name="Grupo 134621" transform="translate(149.307 -1733.218)">
      <path id="Trazado_190553" data-name="Trazado 190553" d="M1372.52,2127.1a1.248,1.248,0,1,1-1.248-1.248,1.247,1.247,0,0,1,1.248,1.248Zm0,0" transform="translate(-170.246 -24.585)" fill="#fff"/>
      <path id="Trazado_190554" data-name="Trazado 190554" d="M1225.461,2131.035h-48.869v-26.553h20.038a4.813,4.813,0,0,0,8.792,0h16.244a.76.76,0,1,0,0-1.521h-15.845c.013-.146.021-.293.021-.443a4.816,4.816,0,0,0-9.632,0c0,.15.008.3.021.443h-20.4a.761.761,0,0,0-.76.76v31.165a.761.761,0,0,0,.76.76h1.781a.76.76,0,1,0,0-1.521h-1.021v-1.57h48.869v1.57h-45.023a.76.76,0,1,0,0,1.521h11.622v7.566h-4.914a.76.76,0,0,0-.76.76v1.851a.76.76,0,0,0,.76.76h23.317a.76.76,0,0,0,0-1.521h-22.557v-.331h26.241v.331h-.86a.76.76,0,0,0,0,1.521h1.621a.761.761,0,0,0,.76-.76v-1.851a.76.76,0,0,0-.76-.76h-4.914v-7.566h16.228a.761.761,0,0,0,.76-.76v-31.165a.761.761,0,0,0-.76-.76h-1.731a.76.76,0,1,0,0,1.521h.97m-24.434-5.258a3.3,3.3,0,1,1-3.3,3.295,3.3,3.3,0,0,1,3.3-3.295Zm7.446,43.99H1193.58v-7.566h14.892v7.566Zm0,0" fill="#fff"/>
    </g>
  </g>
</svg>
