<svg xmlns="http://www.w3.org/2000/svg" xmlns:xlink="http://www.w3.org/1999/xlink" width="88" height="88" viewBox="0 0 88 88">
  <defs>
    <filter id="Trazado_188616" x="0" y="0" width="88" height="88" filterUnits="userSpaceOnUse">
      <feOffset dy="3" input="SourceAlpha"/>
      <feGaussianBlur stdDeviation="3" result="blur"/>
      <feFlood flood-opacity="0.161"/>
      <feComposite operator="in" in2="blur"/>
      <feComposite in="SourceGraphic"/>
    </filter>
  </defs>
  <g id="Grupo_134673" data-name="Grupo 134673" transform="translate(-1283.333 -190)">
    <g id="Grupo_128476" data-name="Grupo 128476" transform="translate(62 72)">
      <g transform="matrix(1, 0, 0, 1, 1221.33, 118)" filter="url(#Trazado_188616)">
        <path id="Trazado_188616-2" data-name="Trazado 188616" d="M7.778,0H62.222A7.778,7.778,0,0,1,70,7.778V70H7.778A7.778,7.778,0,0,1,0,62.222V7.778A7.778,7.778,0,0,1,7.778,0Z" transform="translate(9 6)" fill="#f7ca18"/>
      </g>
    </g>
    <g id="Grupo_134619" data-name="Grupo 134619" transform="translate(1298.553 211.139)">
      <path id="Trazado_190549" data-name="Trazado 190549" d="M912.005,2266.827" transform="translate(-887.919 -2248.781)" fill="#c2c6ce"/>
      <path id="Trazado_190550" data-name="Trazado 190550" d="M830.2,2187l-10.653-10.653,5.59-5.59,10.653,10.652-.977.976a1.1,1.1,0,0,0,1.562,1.562l1.265-1.264a1.8,1.8,0,0,0,0-2.547l-11.229-11.23a1.8,1.8,0,0,0-2.547,0l-6.167,6.167a1.8,1.8,0,0,0,0,2.547l.533.533-.049.051c-.087.09-.171.178-.245.253-.609.6-1.3,1.211-1.8,1.211h0l-1.656-.008h-.024a.082.082,0,0,1-.023,0,8.891,8.891,0,0,0-2.688.482l-.026.01-2.312.906-2.313-.906-.024-.009a8.816,8.816,0,0,0-2.666-.484h-.057l-1.669.009h0c-.5,0-1.191-.612-1.793-1.2-.084-.084-.17-.174-.257-.265l-.062-.064.516-.515a1.8,1.8,0,0,0,0-2.547l-6.167-6.167a1.8,1.8,0,0,0-2.543,0h0l0,0,0,0-11.227,11.227a1.8,1.8,0,0,0,0,2.547l6.166,6.167a1.8,1.8,0,0,0,2.546,0l0,0,0,0,0,0,.034-.035.046-.045.389-.39,1,.994a2.285,2.285,0,0,1,.613,1.914,5.227,5.227,0,0,0,1.617,4.1l5.5,5.5a1.077,1.077,0,0,0,.076.085l6.259,6.258a2.979,2.979,0,0,0,4.209,0,3.021,3.021,0,0,0,.473-.613l.375.375a8.635,8.635,0,0,1,5.756-.776,8.756,8.756,0,0,1,3.754-4.523h0a2.952,2.952,0,0,0,.855-1.849l4.46-4.453a5.224,5.224,0,0,0,1.617-4.1,2.285,2.285,0,0,1,.614-1.914l.977-.978.454.454a1.8,1.8,0,0,0,2.546,0l1.257-1.258a1.1,1.1,0,0,0-1.562-1.562l-.969.969m-41.625,0-5.59-5.59,10.652-10.652,5.59,5.59-.8.8-.2.2-8.684,8.684-.006.006-.957.957Zm29.812,13.135a.762.762,0,0,1-.541.224h0a.762.762,0,0,1-.5-.188l-8.379-8.493a1.1,1.1,0,1,0-1.572,1.552l7.4,7.5a1.156,1.156,0,0,0,.107.124l1.842,1.843a.769.769,0,1,1-1.087,1.087l-1-1-.053-.05c-.013-.015-.027-.03-.042-.044l-8.373-8.517a1.1,1.1,0,1,0-1.575,1.549l8.373,8.517c.019.019.039.038.059.056s.031.034.049.052a.769.769,0,1,1-1.088,1.088l-1.132-1.132-7.271-7.486a1.1,1.1,0,1,0-1.585,1.539l5.856,6.03a1.131,1.131,0,0,0,.16.2.767.767,0,0,1-1.085,1.085l-6.178-6.177a.927.927,0,0,0-.077-.086l-5.585-5.577a3.049,3.049,0,0,1-.969-2.578,4.383,4.383,0,0,0-1.261-3.439l-.995-.994L799,2179.7l.033.034c.1.1.193.2.293.3a5.068,5.068,0,0,0,3.348,1.844h.014l1.65-.008h.044a6.732,6.732,0,0,1,1.923.346l.074.029-.869.34-2.352.921a2.92,2.92,0,0,0-1.933,2.792h0c0,.058,0,.116.007.175,0,.012,0,.025,0,.038s0,.045.006.068,0,.048.009.071,0,.027.005.04.006.044.01.067,0,.023.006.036.009.047.013.072c.014.071.03.142.05.214,0,.02.011.04.016.06a2.955,2.955,0,0,0,.3.695c.006.011.013.022.02.033l.019.032a3.042,3.042,0,0,0,3.141,1.355l.079-.011,3.226-.437,10.254,10.254a.766.766,0,0,1,0,1.074Zm7.547-12.323a4.384,4.384,0,0,0-1.26,3.439,3.051,3.051,0,0,1-.97,2.579l-3.714,3.71-.034-.034-.012-.012-10.634-10.634-.021-.021-.009-.009-.013-.011-.01-.009-.013-.011-.01-.009-.013-.01-.011-.009-.013-.01-.011-.008-.016-.011-.016-.011-.015-.01-.011-.007-.014-.009-.011-.006a.154.154,0,0,1-.014-.01l-.011-.006-.016-.009-.01-.006-.018-.009-.009,0-.026-.013h0l-.025-.011-.009,0-.019-.008-.009,0-.019-.007-.009,0-.019-.007-.009,0-.022-.008-.006,0-.029-.008h0l-.026-.007-.009,0-.019,0-.011,0-.018,0-.011,0-.019,0-.012,0-.019,0h-.01l-.028,0h-.2l-.023,0h-.009l-.027,0-3.783.512-.034,0c-.795.132-1.028-.286-1.1-.546a.755.755,0,0,1,.467-.938l.021-.008,8.552-3.351a6.71,6.71,0,0,1,1.925-.348h.044l1.65.008h.014a5.077,5.077,0,0,0,3.355-1.852c.094-.094.191-.195.29-.3l.011-.012,7.118,7.118Zm0,0" transform="translate(-780.607 -2168.378)" fill="#603eb7"/>
    </g>
  </g>
</svg>
