<svg xmlns="http://www.w3.org/2000/svg" xmlns:xlink="http://www.w3.org/1999/xlink" width="190" height="112" viewBox="0 0 190 112">
  <defs>
    <linearGradient id="linear-gradient" x1="0.5" x2="0.5" y2="1" gradientUnits="objectBoundingBox">
      <stop offset="0" stop-color="#f7ca2e" stop-opacity="0"/>
      <stop offset="0.091" stop-color="#f7ca2e" stop-opacity="0.129"/>
      <stop offset="0.283" stop-color="#f7ca2e" stop-opacity="0.388"/>
      <stop offset="0.465" stop-color="#f7ca2e" stop-opacity="0.612"/>
      <stop offset="0.633" stop-color="#f7ca2e" stop-opacity="0.78"/>
      <stop offset="0.784" stop-color="#f7ca2e" stop-opacity="0.902"/>
      <stop offset="0.911" stop-color="#f7ca2e" stop-opacity="0.969"/>
      <stop offset="1" stop-color="#f7ca2e"/>
    </linearGradient>
    <linearGradient id="linear-gradient-2" x1="0.5" x2="0.5" y2="1" gradientUnits="objectBoundingBox">
      <stop offset="0" stop-color="#b13e8d" stop-opacity="0"/>
      <stop offset="0.091" stop-color="#b13e8d" stop-opacity="0.129"/>
      <stop offset="0.283" stop-color="#b13e8d" stop-opacity="0.388"/>
      <stop offset="0.465" stop-color="#b13e8d" stop-opacity="0.612"/>
      <stop offset="0.633" stop-color="#b13e8d" stop-opacity="0.78"/>
      <stop offset="0.784" stop-color="#b13e8d"/>
      <stop offset="0.911" stop-color="#b13e8d" stop-opacity="0.969"/>
      <stop offset="1" stop-color="#b13e8d"/>
    </linearGradient>
    <filter id="Rectángulo_40720" x="41" y="4" width="108" height="108" filterUnits="userSpaceOnUse">
      <feOffset dy="3" input="SourceAlpha"/>
      <feGaussianBlur stdDeviation="3" result="blur"/>
      <feFlood flood-opacity="0.161"/>
      <feComposite operator="in" in2="blur"/>
      <feComposite in="SourceGraphic"/>
    </filter>
  </defs>
  <g id="Grupo_134904" data-name="Grupo 134904" transform="translate(-180 -399)">
    <g id="Grupo_128321" data-name="Grupo 128321">
      <rect id="Rectángulo_40586" data-name="Rectángulo 40586" width="190" height="20" transform="translate(180 444)" fill="none"/>
      <g id="Grupo_108405" data-name="Grupo 108405" transform="translate(209.5 463)">
        <path id="Rectángulo_5242" data-name="Rectángulo 5242" d="M0,0H12a0,0,0,0,1,0,0V43.333a3,3,0,0,1-3,3H3a3,3,0,0,1-3-3V0A0,0,0,0,1,0,0Z" transform="translate(0 0)" fill="url(#linear-gradient)"/>
      </g>
      <g id="Grupo_108406" data-name="Grupo 108406" transform="translate(340 451) rotate(180)">
        <path id="Rectángulo_5242-2" data-name="Rectángulo 5242" d="M0,0H12a0,0,0,0,1,0,0V49a3,3,0,0,1-3,3H3a3,3,0,0,1-3-3V0A0,0,0,0,1,0,0Z" transform="translate(0 0)" fill="url(#linear-gradient-2)"/>
      </g>
      <g transform="matrix(1, 0, 0, 1, 180, 399)" filter="url(#Rectángulo_40720)">
        <path id="Rectángulo_40720-2" data-name="Rectángulo 40720" d="M10,0H80A10,10,0,0,1,90,10V90a0,0,0,0,1,0,0H10A10,10,0,0,1,0,80V10A10,10,0,0,1,10,0Z" transform="translate(50 10)" fill="#f6f6f6"/>
      </g>
    </g>
    <g id="Grupo_134764" data-name="Grupo 134764" transform="translate(812.518 839.797)">
      <path id="Trazado_190749" data-name="Trazado 190749" d="M-435.267-102.584h-19.911a1.029,1.029,0,0,1-1.029-1.029,1.029,1.029,0,0,1,1.029-1.029h19.911a1.029,1.029,0,0,1,1.029,1.029,1.03,1.03,0,0,1-1.029,1.029Zm0,0" transform="translate(-92.614 -261.888)" fill="#603eb7"/>
      <path id="Trazado_190750" data-name="Trazado 190750" d="M-435.267-70.7h-19.911a1.029,1.029,0,0,1-1.029-1.029,1.029,1.029,0,0,1,1.029-1.029h19.911a1.03,1.03,0,0,1,1.029,1.029,1.029,1.029,0,0,1-1.029,1.029Zm0,0" transform="translate(-92.614 -288.304)" fill="#603eb7"/>
      <path id="Trazado_190751" data-name="Trazado 190751" d="M-484.936-327.318l-.02.008a6.642,6.642,0,0,0-3.932,6.061v3.411a3.022,3.022,0,0,0,3.018,3.018h27.146a3.022,3.022,0,0,0,3.018-3.018v-3.411a6.642,6.642,0,0,0-3.932-6.061l-.02-.008-8.248-3.194v-1.605a6.947,6.947,0,0,0,2.47-4.225,3.4,3.4,0,0,0,1.724-.779,3.319,3.319,0,0,0,1.155-2.519,3.322,3.322,0,0,0-.729-2.079v-2.5a9.1,9.1,0,0,0-9.086-9.086,9.1,9.1,0,0,0-9.086,9.086v2.567a3.146,3.146,0,0,0-.729,2.013,3.32,3.32,0,0,0,1.155,2.52,3.366,3.366,0,0,0,1.722.783,6.823,6.823,0,0,0,2.613,4.325v1.5Zm17.791-.692L-468.9-324.5h0l-1.913-1.36,2.2-2.72ZM-475.7-324.5l-1.753-3.514,1.458-.564,2.2,2.72-1.91,1.358-.007,0Zm2.422.8.979-.7.98.7-.271.407h-1.418Zm-13.551,5.854v-3.411a4.589,4.589,0,0,1,2.651-4.155l4.8-1.86,2.1,4.206a1.558,1.558,0,0,0,1.018.817,1.562,1.562,0,0,0,.379.047,1.562,1.562,0,0,0,.9-.288l.025-.018.315.475-.871,5.146h-5.709v-3.079a1.029,1.029,0,0,0-1.029-1.029,1.029,1.029,0,0,0-1.029,1.029v3.079h-2.588a.96.96,0,0,1-.96-.959Zm13.4.959.736-4.347h.782l.736,4.347Zm15.661-4.37v3.411a.96.96,0,0,1-.959.959h-2.588v-3.079a1.029,1.029,0,0,0-1.029-1.029,1.029,1.029,0,0,0-1.029,1.029v3.079h-5.714l-.871-5.146.315-.474.025.017a1.557,1.557,0,0,0,.9.288,1.561,1.561,0,0,0,.379-.047,1.558,1.558,0,0,0,1.018-.816h0l2.1-4.206,4.8,1.86a4.6,4.6,0,0,1,2.65,4.154Zm-11.755-12.23a4.845,4.845,0,0,1-1.939.792h0l-.042.007h-.007l-.121.017-.017,0-.032,0-.023,0-.045.005-.032,0-.027,0-.027,0-.026,0-.033,0-.021,0-.051,0h-.021l-.036,0h-.021l-.045,0h-.277a4.923,4.923,0,0,1-4.978-4.719c0-.016,0-.033,0-.05l0-.062c0-.019,0-.038,0-.058v-4.307h.048a15.443,15.443,0,0,0,7.953-2.036q.232-.132.46-.271c.064.067.124.133.183.2l.038.04.019.02.04.043h0l.319.341.13.138c.342.366.615.656.759.819v5.014c0,.019,0,.037,0,.056l0,.064c0,.018,0,.036,0,.054a4.888,4.888,0,0,1-2.08,3.828l-.038.025Zm4.465-5.2a1.273,1.273,0,0,1-.284.185v-2.287a1.29,1.29,0,0,1,.322.219l.015.013a1.262,1.262,0,0,1,.386.911,1.265,1.265,0,0,1-.438.958Zm-14.345-5.539a7.035,7.035,0,0,1,7.027-7.027,7.035,7.035,0,0,1,7.027,7.027v1.3h0c0-.025,0-.05-.009-.074v-.013a.018.018,0,0,0,0-.007s0,0,0-.005,0,0,0-.006v0s0,0,0-.006,0,0,0-.007a.008.008,0,0,1,0,0c-.077-.4-.361-.7-1.289-1.693l-.137-.146c-.236-.251-.52-.554-.86-.92a1.574,1.574,0,0,0-2.019-.247,13.307,13.307,0,0,1-8.041,2.167,1.581,1.581,0,0,0-1.19.416l-.031.029-.007.008-.023.023-.008.008-.021.023-.009.009-.019.022-.009.011-.018.021-.009.011-.018.023-.008.01-.017.023-.008.011-.017.023a.049.049,0,0,1-.007.011l-.016.025-.007.01-.016.026-.007.011-.015.026-.006.01-.015.027-.005.01-.015.027,0,.009-.014.029,0,.009-.015.033,0,0-.016.039-.111.021v-1.328Zm-.729,4.58a1.167,1.167,0,0,1,.378-.832l.021-.019a1.562,1.562,0,0,1,.323-.229v2.224a1.276,1.276,0,0,1-.284-.186,1.262,1.262,0,0,1-.438-.958Zm7.565,9.078.072,0h.362l.068,0h0l.07,0h.007l.068,0h.009l.139-.009h.006l.069-.005h.006c.072-.006.145-.013.217-.022h0a6.926,6.926,0,0,0,1.5-.351v.785l-2.335,2.882-2.34-2.887v-.749a7.5,7.5,0,0,0,2.072.364Zm0,0" transform="translate(-65.541 -55.884)" fill="#603eb7"/>
      <path id="Trazado_190752" data-name="Trazado 190752" d="M-507.036-403.128v-4.149a3.831,3.831,0,0,0-3.827-3.827h-1.347v-6.431a3.232,3.232,0,0,0-3.229-3.229h-46.208a3.233,3.233,0,0,0-3.23,3.229v5.278h-2.094A1.029,1.029,0,0,0-568-411.227a1.03,1.03,0,0,0,1.029,1.029h2.094v5.255h-2.094A1.03,1.03,0,0,0-568-403.914a1.029,1.029,0,0,0,1.029,1.029h2.094v5.254h-2.094A1.03,1.03,0,0,0-568-396.6a1.029,1.029,0,0,0,1.029,1.029h2.094v5.255h-2.094A1.029,1.029,0,0,0-568-389.286a1.03,1.03,0,0,0,1.029,1.029h2.094V-383h-2.094A1.03,1.03,0,0,0-568-381.973a1.029,1.029,0,0,0,1.029,1.029h2.094v5.255h-2.094A1.03,1.03,0,0,0-568-374.66a1.029,1.029,0,0,0,1.029,1.029h2.094v5.255h-2.094A1.029,1.029,0,0,0-568-367.346a1.03,1.03,0,0,0,1.029,1.029h2.094v5.255h-2.094A1.03,1.03,0,0,0-568-360.032,1.029,1.029,0,0,0-566.971-359h2.094v5.278a3.233,3.233,0,0,0,3.23,3.23h21.408a1.03,1.03,0,0,0,1.029-1.029,1.029,1.029,0,0,0-1.029-1.029h-21.408a1.173,1.173,0,0,1-1.171-1.171V-359h3.138a1.029,1.029,0,0,0,1.029-1.029,1.029,1.029,0,0,0-1.029-1.029h-3.138v-5.255h3.138a1.029,1.029,0,0,0,1.029-1.029,1.029,1.029,0,0,0-1.029-1.029h-3.138v-5.255h3.138a1.029,1.029,0,0,0,1.029-1.029,1.029,1.029,0,0,0-1.029-1.029h-3.138v-5.255h3.138a1.029,1.029,0,0,0,1.029-1.029A1.029,1.029,0,0,0-559.679-383h-3.138v-5.255h3.138a1.029,1.029,0,0,0,1.029-1.029,1.029,1.029,0,0,0-1.029-1.029h-3.138v-5.255h3.138a1.029,1.029,0,0,0,1.029-1.029,1.029,1.029,0,0,0-1.029-1.029h-3.138v-5.254h3.138a1.029,1.029,0,0,0,1.029-1.029,1.029,1.029,0,0,0-1.029-1.029h-3.138V-410.2h3.138a1.029,1.029,0,0,0,1.029-1.029,1.029,1.029,0,0,0-1.029-1.029h-3.138v-5.278a1.172,1.172,0,0,1,1.171-1.171h46.208a1.172,1.172,0,0,1,1.171,1.171v63.811a1.172,1.172,0,0,1-1.171,1.171h-20a1.03,1.03,0,0,0-1.029,1.029,1.029,1.029,0,0,0,1.029,1.029h20a3.233,3.233,0,0,0,3.23-3.229v-6.555h1.346a3.83,3.83,0,0,0,3.827-3.826v-4.149a3.814,3.814,0,0,0-1.224-2.8,3.818,3.818,0,0,0,1.224-2.8v-4.15a3.814,3.814,0,0,0-1.224-2.8,3.819,3.819,0,0,0,1.224-2.8v-4.149a3.816,3.816,0,0,0-1.224-2.8,3.817,3.817,0,0,0,1.224-2.8v-4.149a3.816,3.816,0,0,0-1.224-2.8,3.819,3.819,0,0,0,1.224-2.8Zm-3.827-5.917a1.77,1.77,0,0,1,1.768,1.768v4.15a1.77,1.77,0,0,1-1.768,1.768h-1.347v-7.685Zm-1.346,29.267h1.346a1.77,1.77,0,0,1,1.768,1.768v4.15a1.77,1.77,0,0,1-1.768,1.768h-1.346Zm0-9.755h1.346a1.77,1.77,0,0,1,1.768,1.768v4.149a1.77,1.77,0,0,1-1.768,1.769h-1.346Zm0-9.756h1.346a1.77,1.77,0,0,1,1.768,1.768v4.149a1.77,1.77,0,0,1-1.768,1.768h-1.346Zm3.114,35.184a1.77,1.77,0,0,1-1.768,1.768h-1.347v-7.685h1.347a1.77,1.77,0,0,1,1.768,1.768Zm0,0" fill="#603eb7"/>
    </g>
  </g>
</svg>
