<svg xmlns="http://www.w3.org/2000/svg" xmlns:xlink="http://www.w3.org/1999/xlink" width="190" height="112" viewBox="0 0 190 112">
  <defs>
    <linearGradient id="linear-gradient" x1="0.5" x2="0.5" y2="1" gradientUnits="objectBoundingBox">
      <stop offset="0" stop-color="#f7ca2e" stop-opacity="0"/>
      <stop offset="0.091" stop-color="#f7ca2e" stop-opacity="0.129"/>
      <stop offset="0.283" stop-color="#f7ca2e" stop-opacity="0.388"/>
      <stop offset="0.465" stop-color="#f7ca2e" stop-opacity="0.612"/>
      <stop offset="0.633" stop-color="#f7ca2e" stop-opacity="0.78"/>
      <stop offset="0.784" stop-color="#f7ca2e" stop-opacity="0.902"/>
      <stop offset="0.911" stop-color="#f7ca2e" stop-opacity="0.969"/>
      <stop offset="1" stop-color="#f7ca2e"/>
    </linearGradient>
    <linearGradient id="linear-gradient-2" x1="0.5" x2="0.5" y2="1" gradientUnits="objectBoundingBox">
      <stop offset="0" stop-color="#b13e8d" stop-opacity="0"/>
      <stop offset="0.091" stop-color="#b13e8d" stop-opacity="0.129"/>
      <stop offset="0.283" stop-color="#b13e8d" stop-opacity="0.388"/>
      <stop offset="0.465" stop-color="#b13e8d" stop-opacity="0.612"/>
      <stop offset="0.633" stop-color="#b13e8d" stop-opacity="0.78"/>
      <stop offset="0.784" stop-color="#b13e8d"/>
      <stop offset="0.911" stop-color="#b13e8d" stop-opacity="0.969"/>
      <stop offset="1" stop-color="#b13e8d"/>
    </linearGradient>
    <filter id="Rectángulo_40718" x="41" y="4" width="108" height="108" filterUnits="userSpaceOnUse">
      <feOffset dy="3" input="SourceAlpha"/>
      <feGaussianBlur stdDeviation="3" result="blur"/>
      <feFlood flood-opacity="0.161"/>
      <feComposite operator="in" in2="blur"/>
      <feComposite in="SourceGraphic"/>
    </filter>
  </defs>
  <g id="Grupo_134904" data-name="Grupo 134904" transform="translate(-152 -3207)">
    <g id="Grupo_134615" data-name="Grupo 134615" transform="translate(8953 11329)">
      <g id="Grupo_134613" data-name="Grupo 134613" transform="translate(-8981 -9951)">
        <g id="Grupo_128316" data-name="Grupo 128316" transform="translate(0 -87)">
          <rect id="Rectángulo_40586" data-name="Rectángulo 40586" width="190" height="20" transform="translate(180 1961)" fill="none"/>
          <g id="Grupo_108405" data-name="Grupo 108405" transform="translate(209.5 1980)">
            <path id="Rectángulo_5242" data-name="Rectángulo 5242" d="M0,0H12a0,0,0,0,1,0,0V43.333a3,3,0,0,1-3,3H3a3,3,0,0,1-3-3V0A0,0,0,0,1,0,0Z" transform="translate(0 0)" fill="url(#linear-gradient)"/>
          </g>
          <g id="Grupo_108406" data-name="Grupo 108406" transform="translate(340 1968) rotate(180)">
            <path id="Rectángulo_5242-2" data-name="Rectángulo 5242" d="M0,0H12a0,0,0,0,1,0,0V49a3,3,0,0,1-3,3H3a3,3,0,0,1-3-3V0A0,0,0,0,1,0,0Z" transform="translate(0 0)" fill="url(#linear-gradient-2)"/>
          </g>
          <g transform="matrix(1, 0, 0, 1, 180, 1916)" filter="url(#Rectángulo_40718)">
            <path id="Rectángulo_40718-2" data-name="Rectángulo 40718" d="M10,0H80A10,10,0,0,1,90,10V90a0,0,0,0,1,0,0H10A10,10,0,0,1,0,80V10A10,10,0,0,1,10,0Z" transform="translate(50 10)" fill="#f6f6f6"/>
          </g>
        </g>
      </g>
    </g>
    <g id="Grupo_134697" data-name="Grupo 134697" transform="translate(-159.491 1192.568)">
      <path id="Trazado_190657" data-name="Trazado 190657" d="M491.861,2217.705" transform="translate(-95.057 -150.916)" fill="#f1aa4b"/>
      <path id="Trazado_190658" data-name="Trazado 190658" d="M433.678,2034.525h-1.844a3.828,3.828,0,0,0-3.823,3.823v.126l-12.83,4.853a1.057,1.057,0,1,0,.748,1.977l12.082-4.569v42.125l-26.66-10.083a1.126,1.126,0,0,0-.177-.054l-.018,0-.012,0h-.006a1.064,1.064,0,0,0-.2-.016,3.1,3.1,0,0,1-2.93-2.166c0-.014-.008-.028-.012-.042a3.106,3.106,0,0,1-.13-.824v-15.741a3.1,3.1,0,0,1,.13-.824c0-.014.008-.029.012-.043a3.1,3.1,0,0,1,2.933-2.165h.018a1.069,1.069,0,0,0,.393-.076l9.965-3.769a1.057,1.057,0,1,0-.747-1.977l-9.815,3.712a5.214,5.214,0,0,0-4.494,2.96h-7.941v-3.154a1.057,1.057,0,1,0-2.114,0v3.154h-3.42a6.307,6.307,0,0,0-6.3,6.3v7.507a6.308,6.308,0,0,0,6.3,6.3h.037l6.1,31.092a4.611,4.611,0,0,0,5.419,3.641l2.328-.457a4.621,4.621,0,0,0,3.642-5.419l-2.274-11.589a1.057,1.057,0,0,0-2.074.407l2.274,11.589a2.506,2.506,0,0,1-1.974,2.938l-2.329.457a2.506,2.506,0,0,1-2.938-1.974l-6.02-30.685h7.519l2.5,12.742a1.057,1.057,0,1,0,2.074-.407l-2.42-12.335h1.61a5.214,5.214,0,0,0,4.494,2.959l27.26,10.309v.127a3.827,3.827,0,0,0,3.823,3.823h1.844a3.827,3.827,0,0,0,3.823-3.823v-46.9a3.827,3.827,0,0,0-3.823-3.823Zm-50.9,35.212a4.192,4.192,0,0,1-4.187-4.187v-7.507a4.192,4.192,0,0,1,4.187-4.187H395.75c0,.021,0,.042,0,.064s0,.043,0,.065v15.621c0,.021,0,.043,0,.065s0,.043,0,.065Zm52.605,15.509a1.711,1.711,0,0,1-1.71,1.709h-1.844a1.711,1.711,0,0,1-1.71-1.709v-46.9a1.712,1.712,0,0,1,1.71-1.71h1.844a1.712,1.712,0,0,1,1.71,1.71Zm0,0" transform="translate(0 0)" fill="#603eb7"/>
    </g>
  </g>
</svg>
