<svg xmlns="http://www.w3.org/2000/svg" xmlns:xlink="http://www.w3.org/1999/xlink" width="190" height="112" viewBox="0 0 190 112">
  <defs>
    <linearGradient id="linear-gradient" x1="0.5" x2="0.5" y2="1" gradientUnits="objectBoundingBox">
      <stop offset="0" stop-color="#f7ca2e" stop-opacity="0"/>
      <stop offset="0.091" stop-color="#f7ca2e" stop-opacity="0.129"/>
      <stop offset="0.283" stop-color="#f7ca2e" stop-opacity="0.388"/>
      <stop offset="0.465" stop-color="#f7ca2e" stop-opacity="0.612"/>
      <stop offset="0.633" stop-color="#f7ca2e" stop-opacity="0.78"/>
      <stop offset="0.784" stop-color="#f7ca2e" stop-opacity="0.902"/>
      <stop offset="0.911" stop-color="#f7ca2e" stop-opacity="0.969"/>
      <stop offset="1" stop-color="#f7ca2e"/>
    </linearGradient>
    <linearGradient id="linear-gradient-2" x1="0.5" x2="0.5" y2="1" gradientUnits="objectBoundingBox">
      <stop offset="0" stop-color="#b13e8d" stop-opacity="0"/>
      <stop offset="0.091" stop-color="#b13e8d" stop-opacity="0.129"/>
      <stop offset="0.283" stop-color="#b13e8d" stop-opacity="0.388"/>
      <stop offset="0.465" stop-color="#b13e8d" stop-opacity="0.612"/>
      <stop offset="0.633" stop-color="#b13e8d" stop-opacity="0.78"/>
      <stop offset="0.784" stop-color="#b13e8d"/>
      <stop offset="0.911" stop-color="#b13e8d" stop-opacity="0.969"/>
      <stop offset="1" stop-color="#b13e8d"/>
    </linearGradient>
    <filter id="Rectángulo_40718" x="41" y="4" width="108" height="108" filterUnits="userSpaceOnUse">
      <feOffset dy="3" input="SourceAlpha"/>
      <feGaussianBlur stdDeviation="3" result="blur"/>
      <feFlood flood-opacity="0.161"/>
      <feComposite operator="in" in2="blur"/>
      <feComposite in="SourceGraphic"/>
    </filter>
  </defs>
  <g id="Grupo_134906" data-name="Grupo 134906" transform="translate(-151 -4086)">
    <g id="Grupo_134769" data-name="Grupo 134769" transform="translate(8242 11963)">
      <g id="Grupo_134616" data-name="Grupo 134616" transform="translate(710 245)">
        <g id="Grupo_134613" data-name="Grupo 134613" transform="translate(-8981 -9951)">
          <g id="Grupo_128316" data-name="Grupo 128316" transform="translate(0 -87)">
            <rect id="Rectángulo_40586" data-name="Rectángulo 40586" width="190" height="20" transform="translate(180 1961)" fill="none"/>
            <g id="Grupo_108405" data-name="Grupo 108405" transform="translate(209.5 1980)">
              <path id="Rectángulo_5242" data-name="Rectángulo 5242" d="M0,0H12a0,0,0,0,1,0,0V43.333a3,3,0,0,1-3,3H3a3,3,0,0,1-3-3V0A0,0,0,0,1,0,0Z" transform="translate(0 0)" fill="url(#linear-gradient)"/>
            </g>
            <g id="Grupo_108406" data-name="Grupo 108406" transform="translate(340 1968) rotate(180)">
              <path id="Rectángulo_5242-2" data-name="Rectángulo 5242" d="M0,0H12a0,0,0,0,1,0,0V49a3,3,0,0,1-3,3H3a3,3,0,0,1-3-3V0A0,0,0,0,1,0,0Z" transform="translate(0 0)" fill="url(#linear-gradient-2)"/>
            </g>
            <g transform="matrix(1, 0, 0, 1, 180, 1916)" filter="url(#Rectángulo_40718)">
              <path id="Rectángulo_40718-2" data-name="Rectángulo 40718" d="M10,0H80A10,10,0,0,1,90,10V90a0,0,0,0,1,0,0H10A10,10,0,0,1,0,80V10A10,10,0,0,1,10,0Z" transform="translate(50 10)" fill="#f6f6f6"/>
            </g>
          </g>
        </g>
      </g>
      <g id="Grupo_134698" data-name="Grupo 134698" transform="translate(-10378.944 -8664.199)">
        <path id="Trazado_190659" data-name="Trazado 190659" d="M2378.351,848.26h-2.709a1.521,1.521,0,0,1-1.516-1.518v-5.327a1.521,1.521,0,0,1,1.516-1.517h2.709a1.522,1.522,0,0,1,1.518,1.517v5.327a1.523,1.523,0,0,1-1.518,1.518Zm0,0" transform="translate(4.947 5.699)" fill="#603eb7"/>
        <path id="Trazado_190660" data-name="Trazado 190660" d="M2376.621,846.742v-5.327a1.521,1.521,0,0,1,1.517-1.517h-2.5a1.521,1.521,0,0,0-1.516,1.517v5.327a1.521,1.521,0,0,0,1.516,1.518h2.5a1.522,1.522,0,0,1-1.517-1.518Zm0,0" transform="translate(4.947 5.699)" fill="#603eb7"/>
        <path id="Trazado_190661" data-name="Trazado 190661" d="M2382.75,830.64h-10.407a.948.948,0,1,1,0-1.9h10.407a.948.948,0,1,1,0,1.9Zm0,0" transform="translate(4.397 3.45)" fill="#603eb7"/>
        <path id="Trazado_190662" data-name="Trazado 190662" d="M2403.83,865.084h-25.315a.948.948,0,0,1,0-1.9h25.315a2.935,2.935,0,0,0,2.932-2.932v-9.238a.948.948,0,1,1,1.9,0v9.238a4.834,4.834,0,0,1-4.828,4.828Zm0,0" transform="translate(5.641 7.75)" fill="#603eb7"/>
        <path id="Trazado_190663" data-name="Trazado 190663" d="M2413.353,833.072a.947.947,0,0,0-.948.948,10.117,10.117,0,0,1-10.106,10.1h-16.536v-1.333a2.467,2.467,0,0,0-2.464-2.465h-2.709a2.468,2.468,0,0,0-2.466,2.465v1.333h-16.536a10.115,10.115,0,0,1-10.1-10.1.948.948,0,0,0-1.9,0,12.014,12.014,0,0,0,12,12h16.537v2.1a2.468,2.468,0,0,0,2.464,2.466h2.709a2.468,2.468,0,0,0,2.464-2.466v-2.1H2402.3a12.014,12.014,0,0,0,12-12,.947.947,0,0,0-.947-.948Zm-29.486,15.047a.577.577,0,0,1-.568.57h-2.709a.576.576,0,0,1-.568-.57v-5.327a.575.575,0,0,1,.568-.568h2.709a.576.576,0,0,1,.568.568Zm0,0" transform="translate(0 4.322)" fill="#603eb7"/>
        <path id="Trazado_190664" data-name="Trazado 190664" d="M2409.472,825.955h-11.287V823.2a11.575,11.575,0,0,0-11.562-11.562h-9.357A11.576,11.576,0,0,0,2365.7,823.2v2.758h-11.287a4.835,4.835,0,0,0-4.828,4.829v37.222a4.834,4.834,0,0,0,4.828,4.828h25.316a.948.948,0,0,0,0-1.9h-25.316a2.935,2.935,0,0,1-2.932-2.932V830.784a2.935,2.935,0,0,1,2.932-2.932h11.333c.013.07.029.137.047.2h0l.007.026v0l.008.026v0l.008.028h0c.016.055.035.112.055.166v0l.01.024,0,0,.008.024,0,0,.009.024,0,0c.017.043.036.085.056.127v0l.011.02,0,.007.01.019,0,.008.011.019,0,.007.01.02,0,0,.012.023h0c.013.025.026.049.041.073v0l.012.019,0,.007.011.018,0,.008.011.018,0,.007.012.018,0,.008.012.017,0,.007.012.018,0,0,.043.061.006.008.011.014.007.01.012.014.007.011.011.014.008.01.01.015.01.011.01.013.01.011.011.013.009.01.029.034v0l.012.013.009.01.011.012.011.012.01.011.011.012.011.011.01.011.012.012.01.01.012.012.011.012.011.011.018.017,0,0,.022.022.009.008.013.013.01.008.013.013.01.008.013.012.011.01.012.011.012.01.013.011.01.008.017.014.008.006.019.017.01.007.021.016.007.006.017.012.01.008.016.011.009.008.015.01.011.008.016.011.01.007.016.012.009.006.02.013.007,0,.027.018h0l.025.016.01.007.017.01.011.007.015.01.011.007.017.01.011.006.017.01.011.006.017.011.01,0,.022.012.007,0,.028.014.027.014.007,0,.02.01.01,0,.019.01.011,0,.017.008.012,0,.018.008.011.006.019.007.01,0,.024.011.005,0,.03.012h0l.028.012.01,0,.021.008.01,0,.019.006.013,0,.017.006.012,0,.02.007.011,0,.021.007.009,0,.024.007.007,0,.03.01h.007l.024.007.011,0,.021,0,.011,0,.02.006.011,0,.021,0,.011,0,.021,0,.01,0,.022,0,.01,0,.026,0h.006l.031.006h.006l.025,0,.011,0,.021,0,.013,0,.02,0,.013,0,.019,0,.013,0,.019,0,.013,0h.022l.011,0,.03,0h0l.034,0h.493l.031,0h.006l.026,0,.013,0h.02l.014,0,.018,0h.015l.019,0,.013,0,.018,0,.014,0,.018,0,.014,0,.021,0,.011,0,.027-.006.018,0,.016,0,.015,0,.017,0,.015,0,.017,0,.016,0,.016,0,.014,0,.017,0,.014,0,.016,0,.016,0,.013,0,.017-.006h0l.045-.013.011,0,.016,0,.014,0,.017-.006.013,0,.017-.007.012,0,.018-.007.012,0,.017-.006.011-.006.019-.006.007,0,.07-.029.006,0,.02-.007.01,0,.018-.007.01-.006.019-.008.008,0,.02-.01.01,0,.017-.008.011,0,.018-.01h0c.024-.013.048-.025.072-.04h0l.023-.012,0,0,.021-.012.007,0,.018-.012.008,0,.019-.011.006,0,.019-.013h0c.04-.025.078-.05.116-.078l0,0,.02-.013,0,0,.021-.014,0,0,.02-.016h0c.046-.035.09-.071.135-.109h0l.021-.018h0l.02-.018h0l.02-.019h0c.042-.04.084-.079.125-.121h0l.018-.019,0,0,.018-.019h0l.02-.02h0c.045-.052.089-.1.131-.156h0a2.778,2.778,0,0,0,.268-.418l.012-.025h0l.013-.025h0c.033-.07.066-.142.093-.215h0a2.713,2.713,0,0,0,.138-.489h21.633c.013.068.027.137.045.2h0l.008.026v0l.007.026v0l.008.026h0c.014.047.03.094.047.139h0l.01.025v0l.008.024,0,0,.01.024v0l.009.024,0,0,.01.023v0c.015.035.031.068.046.1l0,0,.011.02,0,.007.008.019,0,.008.01.019.005.007.009.02,0,0,.013.023h0c.013.025.028.049.042.073v0l.011.019,0,.007.011.018,0,.008.012.018,0,.007.011.017.007.011.01.016.006.01.012.016,0,.006.041.058.008.011.011.014.007.01.011.014.007.011.01.013.01.012.01.013.01.012.01.012.01.012.01.012.012.014.011.013.016.018.011.012.011.012.009.01.012.014.01.008.012.014.01.01.011.013.011.01.012.013.01.008.012.014.01.008.044.043,0,0,.017.017.009.007.016.014.007.006.017.014.008.007.015.013.009.008.017.013.007.006.02.018,0,0,.051.041,0,0,.02.016.008.006.017.013.009.006.018.013.007,0,.019.014.006,0,.022.014,0,0,.025.018.055.035,0,0,.024.016,0,0,.023.014,0,0,.023.013,0,0,.022.013.007,0,.024.013,0,0c.028.016.058.031.086.046h0l.029.014h0l.025.012.006,0,.024.012.006,0,.024.012h0l.028.012h0l.091.038h0l.028.011,0,0,.025.008.007,0,.024.008.006,0,.026.008h0l.03.011.1.029h0l.029.007h0l.028.007.006,0,.025.006h.008l.026.007h0l.029.006h0l.1.019h0l.028,0h.007l.025,0h.008l.024,0h.009l.025,0h.008l.028,0h0l.068.007h0l.029,0h.008l.025,0h.427l.017,0,.032,0,.013,0,.02,0h.013l.018,0,.014,0,.018,0h.013l.018,0h.013l.019,0h.012l.019,0h.011c.027,0,.053-.01.078-.016h0l.023-.006h.008l.021,0,.011,0,.019,0,.011,0,.021-.006.009,0,.021-.006h.009l.133-.041.005,0,.023-.007.006,0,.023-.008h0l.024-.01h.005l.024-.008,0,0c.044-.017.089-.035.132-.055h0l.024-.012h0l.024-.011h0l.024-.012h0l.023-.012h0c.052-.026.1-.054.152-.083h0l.023-.014h0l.022-.014h0c.058-.036.115-.073.169-.113h0a2.782,2.782,0,0,0,.412-.368h0a2.725,2.725,0,0,0,.418-.6h0l.013-.025h0l.012-.025h0c.033-.07.066-.142.094-.215a2.8,2.8,0,0,0,.139-.489h11.333a2.936,2.936,0,0,1,2.932,2.932v23.559a.947.947,0,1,0,1.895,0V830.784a4.832,4.832,0,0,0-4.827-4.829Zm-41.872,1.4V823.2a9.678,9.678,0,0,1,9.666-9.666h9.358a9.677,9.677,0,0,1,9.665,9.666v4.156a.883.883,0,0,1-.021.189l-.011.041c-.008.026-.017.052-.026.078a.941.941,0,0,1-.053.109l-.011.017a.837.837,0,0,1-1.434,0l-.011-.017c-.013-.024-.025-.048-.037-.072a.93.93,0,0,1-.042-.115l-.011-.041a.883.883,0,0,1-.021-.189V823.2a8,8,0,0,0-7.988-7.988h-9.358a8,8,0,0,0-7.987,7.988v4.156a.839.839,0,0,1-1.679,0Zm25.115-1.4h-21.542V823.2a6.1,6.1,0,0,1,6.093-6.092h9.357a6.1,6.1,0,0,1,6.092,6.092Zm0,0" transform="translate(0 0)" fill="#603eb7"/>
      </g>
    </g>
  </g>
</svg>
