<svg xmlns="http://www.w3.org/2000/svg" xmlns:xlink="http://www.w3.org/1999/xlink" width="1600" height="451.11" viewBox="0 0 1600 451.11">
  <defs>
    <clipPath id="clip-path">
      <path id="Trazado_189409" data-name="Trazado 189409" d="M.083,0H1599.249l.344,433.123c0,9.934-10.783,17.986-24.084,17.986L23.678,450.73c-13.3,0-24.084-8.053-24.084-17.986Z" transform="translate(136 2167)" fill="#7fc733"/>
    </clipPath>
    <linearGradient id="linear-gradient" x1="0.073" y1="0.062" x2="0.981" y2="-0.029" gradientUnits="objectBoundingBox">
      <stop offset="0" stop-color="#b13e8d"/>
      <stop offset="0.256" stop-color="#b13e8d"/>
      <stop offset="0.637" stop-color="#b13e8d"/>
      <stop offset="1" stop-color="#b13e8d" stop-opacity="0.51"/>
    </linearGradient>
  </defs>
  <g id="Enmascarar_grupo_133" data-name="Enmascarar grupo 133" transform="translate(-135.594 -2167)" opacity="0.154" clip-path="url(#clip-path)">
    <g id="Grupo_131842" data-name="Grupo 131842" transform="translate(32.231 2111.815)">
      <path id="Trazado_189400" data-name="Trazado 189400" d="M-8236.149-9492.253s297.3-83.814,459.764,90.614,372.652,380.884,693.021,363.878,420.072-149.976,420.072-149.976,37.338-71.165,79.727-39.51,0,280.078,0,280.078h-1675.3v-533.289Z" transform="translate(8340 9586.109)" fill="url(#linear-gradient)"/>
      <path id="Uni贸n_24" data-name="Uni贸n 24" d="M171.738,856.245a215.84,215.84,0,0,1-61.168-16.852,189.291,189.291,0,0,1-53.631-35.485,174.886,174.886,0,0,1-39.061-54.832C7.674,726.626,1.8,701.428.42,674.182a332.9,332.9,0,0,1,4.54-73.813,312.4,312.4,0,0,1,21.779-72.657c1.17-2.658,2.42-5.365,3.835-8.286a250.261,250.261,0,0,1,52.673-72.4,243.787,243.787,0,0,1,32.806-26.239,234.225,234.225,0,0,1,35.311-19.414,212.962,212.962,0,0,1,64.022-17.056c32.6-3.543,63.872-.262,96.979,3.213l.051.013,2.452.252c22.751,2.388,41.5,2.607,59,.706a164.935,164.935,0,0,0,48.649-12.522,148.921,148.921,0,0,0,23.512-12.849,159.224,159.224,0,0,0,22.51-18.319,229.255,229.255,0,0,0,26.276-30.767,344.534,344.534,0,0,0,22-35.117c13.587-24.574,25.474-51.546,36.969-77.626l.035-.076c10.336-23.437,21.022-47.67,32.939-70.212,6.414-12.13,12.672-22.826,19.12-32.685A271.93,271.93,0,0,1,628.142,68.65c33.547-38.628,76.59-63.375,118.1-67.887l.528-.058a132.65,132.65,0,0,1,35.645,1.138A125.99,125.99,0,0,1,817.3,12.919c24.066,11.838,41.275,30.668,49.787,54.451A100.743,100.743,0,0,1,872.27,89.9a136.921,136.921,0,0,1,.6,22.956c-.782,15.409-3.65,31.321-6.434,46.7l0,.051c-3.816,21.116-7.755,42.957-6.524,64.267a114.5,114.5,0,0,0,3.481,22.71,87.565,87.565,0,0,0,7.193,18.6,82.914,82.914,0,0,0,23.354,27.2c18.811,14.457,43.357,22.684,67.088,30.636l.046.021c12.783,4.282,25.995,8.707,37.885,14.01,13.32,5.937,23.653,12.428,31.594,19.826q3.159,2.944,6.162,6.264l211.2-22.955-12.445,142.142s-6.545,158.837-176.28,125.13c-.058-.011-.111-.022-.165-.034l-.455-.086c-5.926-1.19-11.984-2.6-18.1-4.209-28.062-7.4-58.946-12.237-92.052-14.423-.169-.012-.321-.024-.489-.033l-1.007-.066q-16.532-1.048-33.026-1.208c-.028,0-.058,0-.083,0l-1.207-.009c-.275,0-.542-.009-.81-.011-.109,0-.211,0-.316,0-22.483-.161-45.945.771-70.132,2.8-30.318,2.548-59.411,6.61-86.068,11.293-.221.038-.44.078-.657.115-.416.071-.842.146-1.26.221-.644.117-1.288.23-1.934.347l-.106.019q-4.932.886-9.868,1.822c-11.349,2.154-22.717,4.491-34.035,7-18.217,4.045-34.448,8.128-48.077,11.808q-5.23,1.413-10.358,2.858l-.062.012c-22.573,6.349-35.725,10.908-35.725,10.908h-.081a347.677,347.677,0,0,0-48.325,24.046c-30.329,17.857-59.418,39.672-81.366,56.684-40.92,31.714-84.557,64.809-128.513,90.448-23.349,13.614-44.914,24.1-65.933,32.052a303.866,303.866,0,0,1-33.475,10.58,250.688,250.688,0,0,1-33.848,6.13A216.682,216.682,0,0,1,171.738,856.245Z" transform="translate(912.916 0) rotate(69)" fill="#6e590d" stroke="rgba(0,0,0,0)" stroke-miterlimit="10" stroke-width="1" opacity="0.15" style="mix-blend-mode: color-burn;isolation: isolate"/>
      <path id="Uni贸n_25" data-name="Uni贸n 25" d="M147.03,361.849A290.211,290.211,0,0,1,98.971,350.6a221.027,221.027,0,0,1-43.638-19.409c-13.753-8.138-25.152-17.393-33.883-27.5-9.442-10.932-15.766-22.885-18.794-35.527a91.742,91.742,0,0,1-1.87-33.779A82.864,82.864,0,0,1,12.2,202.116c.7-1.157,1.465-2.337,2.335-3.6,8.182-11.877,19.987-22.1,35.092-30.393a153.971,153.971,0,0,1,23.219-10.234,192.044,192.044,0,0,1,25.633-6.946,230.679,230.679,0,0,1,47.79-4.228c24.708.219,48.892,3.508,74.5,6.99l.04.009,1.9.255a356,356,0,0,0,45.227,3.677,179.888,179.888,0,0,0,36.346-3.009,122.527,122.527,0,0,0,17.075-4.59,98.961,98.961,0,0,0,15.911-7.169,104.944,104.944,0,0,0,17.891-12.693,123.193,123.193,0,0,0,14.308-14.944c8.623-10.559,15.772-22.321,22.686-33.694l.021-.034c6.217-10.219,12.644-20.786,20.136-30.5a138.527,138.527,0,0,1,12.275-13.986,111.737,111.737,0,0,1,14.9-12.419C462.366,8.694,493.533-.271,524.995.006l.4,0A173.451,173.451,0,0,1,552.772,2.56a168.176,168.176,0,0,1,27.515,7.089c19.286,6.825,33.828,16.487,42.069,27.936a40.244,40.244,0,0,1,7.723,21.306c.516,7.059-.527,14.233-1.543,21.169v.024c-1.394,9.521-2.828,19.367-.341,29.264a41.222,41.222,0,0,0,4.311,10.67A45.548,45.548,0,0,0,639.362,129c5.032,5.16,11.522,9.7,19.854,13.871,15.45,7.734,34.844,12.924,53.594,17.939l.035.012c10.1,2.7,20.537,5.491,30.025,8.613,10.63,3.495,19.013,7.073,25.629,10.938q2.632,1.536,5.173,3.239l160.066,1.415.767,64.837s6.492,72.87-125.926,47.684q-.064-.011-.127-.025l-.355-.066c-4.623-.886-9.364-1.878-14.167-2.968A658.944,658.944,0,0,0,722.4,282.61l-.376-.043-.775-.086q-12.738-1.422-25.379-2.434l-.065-.006-.924-.073-.622-.051-.242-.019c-17.227-1.351-35.126-2.254-53.5-2.693-23.033-.548-45.017-.329-65.09.316l-.5.015c-.312.011-.634.02-.947.032-.486.016-.97.032-1.457.049l-.08,0q-3.711.129-7.425.279c-8.533.348-17.07.781-25.554,1.295-13.658.831-25.79,1.792-35.962,2.714q-3.9.353-7.724.73h-.047c-16.825,1.646-26.565,3-26.565,3l-.064-.006a301.323,301.323,0,0,0-35.261,8.342c-21.934,6.51-42.625,14.918-58.2,21.516-29.039,12.3-60.054,25.081-91.86,34.406a386.068,386.068,0,0,1-48.168,11.034c-8.348,1.334-16.721,2.335-24.866,2.978-8.53.674-17.1.977-25.476.9A281.01,281.01,0,0,1,147.03,361.849Z" transform="translate(1230.397 449.221) rotate(-2)" fill="#6a2554" stroke="rgba(0,0,0,0)" stroke-miterlimit="10" stroke-width="1" opacity="0.15" style="mix-blend-mode: color-burn;isolation: isolate"/>
      <circle id="Elipse_5165" data-name="Elipse 5165" cx="106.128" cy="106.128" r="106.128" transform="translate(106.129 246.048) rotate(30)" fill="#fff"/>
      <circle id="Elipse_5166" data-name="Elipse 5166" cx="30.264" cy="30.264" r="30.264" transform="translate(278.871 407.41) rotate(30)" fill="#fff"/>
    </g>
  </g>
</svg>
