<svg xmlns="http://www.w3.org/2000/svg" width="295" height="221.799" viewBox="0 0 295 221.799">
  <g id="Grupo_134489" data-name="Grupo 134489" transform="translate(68.999 566.841)">
    <path id="Trazado_190039" data-name="Trazado 190039" d="M-18.447-356.73s-36.735-26.16-47.311-70.687,5.566-98.518,36.179-125.791,85.715-8.905,110.206,13.915l24.49,22.82a114.577,114.577,0,0,0,53.99,11.688c30.613-1.113,57.886,40.632,65.122,73.471S214.21-355.06,214.21-355.06Z" transform="translate(0 0)" fill="#eee"/>
    <path id="Trazado_190040" data-name="Trazado 190040" d="M-34.864-349.275s-25.6-13.914-32.282-46.2S-44.883-457.254-42.1-473.4s-3.339-36.179,22.263-51.764,71.245-10.019,88.5-13.915,37.292-30.613,71.8-24.49,67.9,24.49,69.575,64.565-11.132,41.188,1.669,62.9,17.811,36.735,11.689,59-18.924,28.386-18.924,28.386Z" transform="translate(-0.28 -0.776)" fill="#dfe8ee"/>
    <path id="Trazado_190041" data-name="Trazado 190041" d="M55.394-315.931c-1.593-1.67-24.952-48.424,1.062-91.281s91.314-37.849,117.327-21.151,38.755,38.405,41.41,61.226S200.328-308.7,200.328-308.7Z" transform="translate(-37.078 -41.356)" fill="#a34889"/>
    <g id="Grupo_134418" data-name="Grupo 134418" transform="translate(168.106 -457.706)">
      <g id="Grupo_134412" data-name="Grupo 134412" transform="translate(0 0)">
        <rect id="Rectángulo_42250" data-name="Rectángulo 42250" width="36.735" height="21.707" rx="5" fill="#8fc34d"/>
        <path id="Trazado_190042" data-name="Trazado 190042" d="M308.54-365.162l4.756-11.271h-9.512Z" transform="translate(-290.173 395.357)" fill="#8fc34d"/>
      </g>
      <g id="Grupo_134417" data-name="Grupo 134417" transform="translate(6.83 2.566)">
        <g id="Grupo_134415" data-name="Grupo 134415" transform="translate(11.424 0.961)">
          <g id="Grupo_134413" data-name="Grupo 134413">
            <path id="Trazado_190043" data-name="Trazado 190043" d="M310.687-395.727h8.59v1.257l4.211-2.428-4.211-2.428v1.257h-8.59Z" transform="translate(-310.687 399.327)" fill="#133878"/>
          </g>
          <g id="Grupo_134414" data-name="Grupo 134414" transform="translate(0 7.282)">
            <path id="Trazado_190044" data-name="Trazado 190044" d="M323.489-387.242H314.9V-388.5l-4.211,2.428,4.211,2.428V-384.9h8.59Z" transform="translate(-310.687 388.499)" fill="#fff"/>
          </g>
        </g>
        <g id="Grupo_134416" data-name="Grupo 134416">
          <path id="Trazado_190045" data-name="Trazado 190045" d="M299.852-388.644l-.409.149a13.008,13.008,0,0,1-1.936-3.041,10.906,10.906,0,0,1-.685-3.52l.3-.125-1.816-4.347a3.561,3.561,0,0,0-.882,1c-1.028,1.737-.926,4.4.108,7.007s2.14,4.928,4.157,6.389a3.987,3.987,0,0,0,3,.888Z" transform="translate(-293.701 400.354)" fill="#133878"/>
          <path id="Trazado_190046" data-name="Trazado 190046" d="M304.511-384.138l-.565.205,1.86,4.451a3.308,3.308,0,0,0,.562-.243,1.083,1.083,0,0,0,.489-1.349l-.971-2.447A1.081,1.081,0,0,0,304.511-384.138Z" transform="translate(-297.056 395.336)" fill="#133878"/>
          <path id="Trazado_190047" data-name="Trazado 190047" d="M297.842-400.693a4.353,4.353,0,0,0-.728.342l1.855,4.44.625-.261a1.08,1.08,0,0,0,.59-1.389l-.975-2.5A1.079,1.079,0,0,0,297.842-400.693Z" transform="translate(-294.819 400.756)" fill="#133878"/>
        </g>
      </g>
    </g>
    <g id="Grupo_134419" data-name="Grupo 134419" transform="translate(9.628 -434.655)">
      <path id="Trazado_190048" data-name="Trazado 190048" d="M47.92-300.443v-50.094s-.557-13.5,6.54-17.394,37.014-1.808,37.014-1.808v69.3Z" transform="translate(-47.91 370.298)" fill="#8fc34d"/>
    </g>
    <g id="Grupo_134456" data-name="Grupo 134456" transform="translate(14.808 -522.503)">
      <g id="Grupo_134420" data-name="Grupo 134420" transform="translate(41.051 41.513)">
        <path id="Trazado_190049" data-name="Trazado 190049" d="M123.328-439.191s-1.809,15.167-2.5,16.419l-.7,1.252-3.478,2.366s6.679,9.462,14.889,10.993,7.514-3.34,7.514-3.34l-1.252-2.644,1.67-14.471S124.58-435.434,123.328-439.191Z" transform="translate(-116.649 439.191)" fill="#ffa693"/>
      </g>
      <path id="Trazado_190050" data-name="Trazado 190050" d="M110.235-408.688l5.427-2.365a25.551,25.551,0,0,0,11.55,9.044c8.071,3.339,8.209,1.392,8.627,0a5.289,5.289,0,0,0-.139-2.922l.6-4.872,3.228,1.075,11.2,90.625-28.8,1.391Z" transform="translate(-73.497 471.49)" fill="#fff"/>
      <g id="Grupo_134421" data-name="Grupo 134421" transform="translate(63.315 61.782)">
        <path id="Trazado_190051" data-name="Trazado 190051" d="M149.752-409.053s1.948,4.5,3.758,15.074a359.726,359.726,0,0,1,3.9,40.632c.417,12.245.7,40.214.7,40.214h36.318c.418,0,2.922-13.776,2.922-13.776s-15.863-13.59-16.7-15.816c-.556-1.484-.278-28.989-2.644-41.652s-5.427-15.213-11.827-18.367A138.842,138.842,0,0,0,149.752-409.053Z" transform="translate(-149.752 409.053)" fill="#603eb7"/>
      </g>
      <g id="Grupo_134422" data-name="Grupo 134422" transform="translate(81.207 83.477)">
        <path id="Trazado_190052" data-name="Trazado 190052" d="M177.388-318.515a.336.336,0,0,1-.336-.336c0-.995-.177-15.13-.348-28.8s-.348-27.809-.348-28.808a.336.336,0,0,1,.336-.336.336.336,0,0,1,.336.336c0,1,.176,15.13.347,28.8s.348,27.809.348,28.808A.336.336,0,0,1,177.388-318.515Z" transform="translate(-176.356 376.795)" fill="#7d92b5"/>
      </g>
      <g id="Grupo_134423" data-name="Grupo 134423" transform="translate(9.603 138.357)">
        <path id="Trazado_190053" data-name="Trazado 190053" d="M70.168-295.193l-.278,19.341h42.3S114-292.271,113.3-293.8,70.168-295.193,70.168-295.193Z" transform="translate(-69.89 295.196)" fill="#603eb7"/>
      </g>
      <g id="Grupo_134424" data-name="Grupo 134424" transform="translate(48.893 43.153)" style="mix-blend-mode: multiply;isolation: isolate">
        <path id="Trazado_190054" data-name="Trazado 190054" d="M136.376-422.39a22.112,22.112,0,0,0,5.918,3.178l.993-8.605s-11.184-5.124-14.978-8.935A23.32,23.32,0,0,0,136.376-422.39Z" transform="translate(-128.309 436.752)" fill="#879aba"/>
      </g>
      <g id="Grupo_134425" data-name="Grupo 134425" transform="translate(45.305 10.149)">
        <path id="Trazado_190055" data-name="Trazado 190055" d="M154.62-482.708a30.111,30.111,0,0,1,3.479,11.131c.556,6.123,0,21.847-5.01,28.526s-15.445,4.731-20.177.7c-4.341-3.7-8.627-7.793-9.74-15.863s2.365-23.377,12.245-26.577S154.62-482.708,154.62-482.708Z" transform="translate(-122.974 485.825)" fill="#ffa693"/>
      </g>
      <g id="Grupo_134433" data-name="Grupo 134433" transform="translate(52.885 137.225)">
        <g id="Grupo_134426" data-name="Grupo 134426">
          <path id="Trazado_190056" data-name="Trazado 190056" d="M170.864-285.151s-.491,0-1.238-.02c-.175-.007-.37,0-.572-.007-.72-.02-1.594-.04-2.475-.067l-.592-.02c-.874-.02-1.621.087-2.32.047h-.02c-.148-.007-.363.013-.538.02a1.3,1.3,0,0,1-.222.007,3.269,3.269,0,0,1-.921-.363,62.559,62.559,0,0,0-14.433-1.924c-6.214.027-11.79.451-12.7-.309s-1.466-8.582,3.84-9.093l6.524,2.475s14.9-1.769,20.358,2.26S170.864-285.151,170.864-285.151Z" transform="translate(-134.244 296.88)" fill="#ffa693"/>
        </g>
        <g id="Grupo_134428" data-name="Grupo 134428" transform="translate(20.882 7.238)">
          <g id="Grupo_134427" data-name="Grupo 134427">
            <path id="Trazado_190057" data-name="Trazado 190057" d="M173.814-281.694c-.148-.007-.363.013-.538.02a6.313,6.313,0,0,0-.572-.767c-1.681-1.715-5.744-2.825-7.216-3.181a.253.253,0,0,1-.188-.3.258.258,0,0,1,.309-.188c2.145.518,6.7,1.843,7.99,4.015C173.639-282.037,173.747-281.828,173.814-281.694Z" transform="translate(-165.292 286.118)" fill="#133878"/>
          </g>
        </g>
        <g id="Grupo_134430" data-name="Grupo 134430" transform="translate(22.802 5.545)">
          <g id="Grupo_134429" data-name="Grupo 134429">
            <path id="Trazado_190058" data-name="Trazado 190058" d="M177.682-282.545c-.2-.005-.4-.01-.591-.022-1.836-3.348-4.84-4.309-8.552-5.5l-.22-.073a.258.258,0,0,1-.161-.32.255.255,0,0,1,.32-.161l.214.073C172.618-287.291,175.775-286.279,177.682-282.545Z" transform="translate(-168.147 288.635)" fill="#133878"/>
          </g>
        </g>
        <g id="Grupo_134432" data-name="Grupo 134432" transform="translate(24.925 4.03)">
          <g id="Grupo_134431" data-name="Grupo 134431">
            <path id="Trazado_190059" data-name="Trazado 190059" d="M181.762-283.209c-.175,0-.37,0-.572-.007a14.667,14.667,0,0,0-9.675-7.171.253.253,0,0,1-.208-.295.261.261,0,0,1,.294-.2C176.625-289.94,180.676-285.839,181.762-283.209Z" transform="translate(-171.304 290.887)" fill="#133878"/>
          </g>
        </g>
      </g>
      <g id="Grupo_134434" data-name="Grupo 134434" transform="translate(38.812)">
        <path id="Trazado_190060" data-name="Trazado 190060" d="M123.351-470.048a13.024,13.024,0,0,0,5.218-5.566,15.833,15.833,0,0,0,1.878-7.792,24.053,24.053,0,0,1,9.741,1.113c5.844,1.739,12.8,4.105,18.646.765s5.844-8.7,2.992-10.923c-3.195-2.494-9.531-.975-9.531-.975s2.435-2.365,1.113-3.757-6.123.418-6.123.418-5.844-4.661-16.907-4.105-16.35,8.28-16.976,16.907,2.5,17.255,2.5,17.255Z" transform="translate(-113.319 500.915)" fill="#603eb7"/>
      </g>
      <g id="Grupo_134436" data-name="Grupo 134436" transform="translate(68.426 32.79)" style="mix-blend-mode: multiply;isolation: isolate">
        <g id="Grupo_134435" data-name="Grupo 134435">
          <path id="Trazado_190061" data-name="Trazado 190061" d="M160.212-451.992a17.808,17.808,0,0,0-.769,4.98c-.123,1.276-.357,2.763.812,3.625.558.412,3.2,1.521,1.841,2.421a3.571,3.571,0,0,1-1.975.222c-.406-.019-.816-.036-1.222-.066-.436-.033-.864-.165-1.3-.167a.254.254,0,0,0-.127.47,5.493,5.493,0,0,0,2.552.607,3.859,3.859,0,0,0,2.112-.372,1.512,1.512,0,0,0,.964-1.082,1.726,1.726,0,0,0-.831-1.49c-.527-.39-1.172-.572-1.7-.952-.736-.527-.676-1.416-.624-2.238.124-1.979.58-3.923.757-5.892.027-.3-.39-.3-.486-.066Z" transform="translate(-157.352 452.161)" fill="#879aba"/>
        </g>
      </g>
      <g id="Grupo_134437" data-name="Grupo 134437" transform="translate(73.868 35.174)">
        <path id="Trazado_190062" data-name="Trazado 190062" d="M168.55-446.2c-.208,1.173-1.061,2-1.906,1.853s-1.362-1.221-1.154-2.394,1.061-2,1.906-1.854S168.758-447.377,168.55-446.2Z" transform="translate(-165.444 448.617)" fill="#133878"/>
      </g>
      <g id="Grupo_134438" data-name="Grupo 134438" transform="translate(62.99 34.106)">
        <path id="Trazado_190063" data-name="Trazado 190063" d="M152.606-447.654c-.188,1.266-1.08,2.182-1.992,2.046s-1.5-1.272-1.309-2.537,1.08-2.181,1.991-2.046S152.795-448.919,152.606-447.654Z" transform="translate(-149.27 450.204)" fill="#133878"/>
      </g>
      <g id="Grupo_134440" data-name="Grupo 134440" transform="translate(74.019 31.081)">
        <g id="Grupo_134439" data-name="Grupo 134439">
          <path id="Trazado_190064" data-name="Trazado 190064" d="M166.145-453.032c.65.11,1.306,0,1.962.044.158.011.313.034.471.05.112.01-.208-.033-.053-.007l.1.016c.082.015.164.032.245.051.14.034.275.087.415.118a1.6,1.6,0,0,0,.4.051l.215-.028-.135.024a1.309,1.309,0,0,0,.266-.029.723.723,0,0,0,.5-.879.842.842,0,0,0-.142-.284c-.028-.036-.056-.073-.085-.108l.079.09c-.028-.039-.056-.077-.087-.114a.425.425,0,0,0-.149-.149c-.052-.04-.1-.082-.157-.12a1.914,1.914,0,0,0-.6-.242,4.948,4.948,0,0,0-1.2-.153,8.324,8.324,0,0,0-1.184.094,2.284,2.284,0,0,0-1.014.375.671.671,0,0,0-.313.654.646.646,0,0,0,.471.546Z" transform="translate(-165.667 454.702)" fill="#133878"/>
        </g>
      </g>
      <g id="Grupo_134442" data-name="Grupo 134442" transform="translate(61.13 30.126)">
        <g id="Grupo_134441" data-name="Grupo 134441">
          <path id="Trazado_190065" data-name="Trazado 190065" d="M152.447-455.358a2.747,2.747,0,0,0-.272-.141c-.079-.036-.295-.149-.132-.06-.059-.032-.118-.065-.179-.1a4.087,4.087,0,0,0-.84-.3,5.577,5.577,0,0,0-1.954-.134,4.549,4.549,0,0,0-1.931.6,1.23,1.23,0,0,0-.243.172c-.048.061-.095.122-.141.184l.04-.061a.683.683,0,0,0-.292.567.567.567,0,0,0,.3.5.853.853,0,0,0,.676.005h-.352a1.264,1.264,0,0,0,.524-.005c.007,0,.188-.046.069-.022s.189-.023.223-.028.247-.026.026,0l.122-.014c.106-.013.21-.026.315-.034.459-.037.917-.057,1.377-.073.427-.014.862-.018,1.289,0,.183.008.365.014.548.019.1,0,.059.019-.011,0,.037.012.077.019.114.03.076.021.151.046.224.074a.641.641,0,0,0,.763-.375.649.649,0,0,0-.264-.807Z" transform="translate(-146.504 456.121)" fill="#133878"/>
        </g>
      </g>
      <g id="Grupo_134443" data-name="Grupo 134443" transform="translate(64.9 47.131)">
        <path id="Trazado_190066" data-name="Trazado 190066" d="M157.586-427.736a6.293,6.293,0,0,1,3.143-2.83c-1.166-.118-6.67-.628-8.059.161-1.556.883.287,4.431,3.505,4.609a4.4,4.4,0,0,0,.938-.054A4.645,4.645,0,0,1,157.586-427.736Z" transform="translate(-152.109 430.837)" fill="#133878"/>
      </g>
      <g id="Grupo_134444" data-name="Grupo 134444" transform="translate(44.947 42.208)">
        <path id="Trazado_190067" data-name="Trazado 190067" d="M122.442-437.6s.557,2.157,3.757,4.661a37.108,37.108,0,0,0,7.839,4.337l.371-1.624s-4.8-2.087-7.027-4.383-2.5-3.548-2.5-3.548Z" transform="translate(-122.442 438.157)" fill="#dce1eb"/>
      </g>
      <g id="Grupo_134445" data-name="Grupo 134445" transform="translate(55.272 48.934)">
        <path id="Trazado_190068" data-name="Trazado 190068" d="M139.992-428.151a4.024,4.024,0,0,1,4.193,3.234c.18,1.318-1.058,2.8-3.953,1.5C136.636-425.032,137.417-428.032,139.992-428.151Z" transform="translate(-137.793 428.156)" fill="#133878"/>
      </g>
      <g id="Grupo_134446" data-name="Grupo 134446" transform="translate(41.191 0.454)">
        <path id="Trazado_190069" data-name="Trazado 190069" d="M122.631-473.862s1.112-8,6.471-13.427c10.227-10.367,18.924-9.741,18.924-9.741s-.07-1.461-3.34-2.575c-3.07-1.045-4.452-.487-4.452-.487a25.762,25.762,0,0,0-15.515,8.558,33.32,33.32,0,0,0-7.862,17.88Z" transform="translate(-116.856 500.24)" fill="#dce1eb"/>
      </g>
      <g id="Grupo_134449" data-name="Grupo 134449" transform="translate(35.471 25.702)">
        <g id="Grupo_134447" data-name="Grupo 134447">
          <path id="Trazado_190070" data-name="Trazado 190070" d="M119.081-462.543c-6.7-1.136-10.436,4.1-10.714,9.392s3.564,9.307,8.7,8.906C128.613-445.15,127.29-461.152,119.081-462.543Z" transform="translate(-108.352 462.7)" fill="#fff"/>
        </g>
        <g id="Grupo_134448" data-name="Grupo 134448" transform="translate(2.638 2.899)">
          <path id="Trazado_190071" data-name="Trazado 190071" d="M117.029-447.973a4.565,4.565,0,0,1-4.118-2.454,5.088,5.088,0,0,1,.2-5.258.253.253,0,0,1,.35-.067.253.253,0,0,1,.067.351,4.58,4.58,0,0,0-.17,4.732,4.053,4.053,0,0,0,3.8,2.189,4.414,4.414,0,0,0,3.653-1.972,5.574,5.574,0,0,0,.551-4.941,3.762,3.762,0,0,0-3.754-2.468.254.254,0,0,1-.283-.217.252.252,0,0,1,.217-.283,4.217,4.217,0,0,1,4.291,2.788,6.1,6.1,0,0,1-.6,5.4,4.91,4.91,0,0,1-4.059,2.2Z" transform="translate(-112.274 458.389)" fill="#798eb2"/>
        </g>
      </g>
      <g id="Grupo_134450" data-name="Grupo 134450" transform="translate(0 60.854)">
        <path id="Trazado_190072" data-name="Trazado 190072" d="M93.6-410.433s-20.316,5.01-27.412,13.081-10.437,47.867-10.575,55.241,5.009,10.437,8.071,12.524,16.558,5.844,27.412,6.4,21.15,0,21.15,0a14.469,14.469,0,0,1,1.635-5.844c1.549-3.227,3.514-3.9,3.514-3.9l-9.323-3.34s-1.633-29.252-4.175-43.415A125.826,125.826,0,0,0,93.6-410.433Z" transform="translate(-55.611 410.433)" fill="#603eb7"/>
      </g>
      <g id="Grupo_134451" data-name="Grupo 134451" transform="translate(65.901 62.536)">
        <path id="Trazado_190073" data-name="Trazado 190073" d="M159.36-340.121a.336.336,0,0,1-.136-.029.337.337,0,0,1-.171-.444c1.9-4.294,3.876-12.726,4.986-18.64l.091-.478c.336-1.74.755-3.9-.08-5.4-.426-.762-1.387-2.415-2.312-4-.959-1.65-1.866-3.208-2.117-3.673-.49-.908,1.053-3.335,3.287-6.664.6-.9,1.125-1.676,1.428-2.2.8-1.377.266-2.639-.348-4.1l-.208-.5c-.557-1.365-1.189-2.734-1.8-4.056-.25-.541-.5-1.082-.747-1.626q-.489-1.079-.986-2.191a128.385,128.385,0,0,0-6.6-13.294.336.336,0,0,1,.117-.461.337.337,0,0,1,.461.117,128.954,128.954,0,0,1,6.639,13.363q.5,1.109.985,2.189.369.812.744,1.621c.615,1.329,1.25,2.7,1.812,4.084l.206.5c.626,1.49,1.273,3.031.309,4.7-.315.545-.842,1.331-1.452,2.24-1.165,1.736-3.588,5.349-3.253,5.97.246.455,1.15,2.01,2.107,3.655.927,1.593,1.891,3.25,2.318,4.014.955,1.708.51,4.006.153,5.853l-.091.474c-.4,2.154-2.548,13.184-5.033,18.79A.336.336,0,0,1,159.36-340.121Z" transform="translate(-153.597 407.932)" fill="#7d92b5"/>
      </g>
      <g id="Grupo_134452" data-name="Grupo 134452" transform="translate(34.643 61.423)">
        <path id="Trazado_190074" data-name="Trazado 190074" d="M124.313-339.48a.337.337,0,0,1-.239-.1c-1.581-1.593-9.206-14.8-9.774-17.28-.311-1.359.469-4.807,1.224-8.141.584-2.583,1.189-5.255,1.017-5.978-.257-1.081-2.207-2.673-4.092-4.214-2.278-1.861-4.633-3.785-5.089-5.518-.519-1.971-.075-14.3.218-22.463.106-2.934.188-5.252.188-6.078a.336.336,0,0,1,.336-.337h0a.336.336,0,0,1,.336.336c0,.839-.083,3.162-.189,6.1-.274,7.627-.732,20.393-.239,22.268.4,1.521,2.772,3.458,4.865,5.168,2.063,1.685,4.011,3.277,4.321,4.58.208.874-.359,3.38-1.016,6.281-.7,3.109-1.5,6.632-1.224,7.843.556,2.434,8.042,15.391,9.6,16.955a.335.335,0,0,1,0,.475A.336.336,0,0,1,124.313-339.48Z" transform="translate(-107.12 409.588)" fill="#7d92b5"/>
      </g>
      <g id="Grupo_134453" data-name="Grupo 134453" transform="translate(24.156 85.802)">
        <path id="Trazado_190075" data-name="Trazado 190075" d="M91.865-333.385a.389.389,0,0,1-.048,0,.337.337,0,0,1-.286-.38c.247-1.749,4.107-36.587,4.284-39.255a.333.333,0,0,1,.358-.313.337.337,0,0,1,.313.358c-.178,2.673-4.042,37.554-4.29,39.306A.336.336,0,0,1,91.865-333.385Z" transform="translate(-91.528 373.339)" fill="#7d92b5"/>
      </g>
      <g id="Grupo_134454" data-name="Grupo 134454" transform="translate(17.06 122.299)">
        <path id="Trazado_190076" data-name="Trazado 190076" d="M116.1-306.154a.351.351,0,0,1-.126-.024c-.855-.347-4.634-1.622-9.418-3.235-9.657-3.257-22.882-7.717-25.4-9.024a.336.336,0,0,1-.143-.453.333.333,0,0,1,.453-.143c2.469,1.283,16.209,5.916,25.3,8.983,4.8,1.617,8.583,2.894,9.457,3.248a.337.337,0,0,1,.186.438A.336.336,0,0,1,116.1-306.154Z" transform="translate(-80.977 319.072)" fill="#7d92b5"/>
      </g>
      <g id="Grupo_134455" data-name="Grupo 134455" transform="translate(9.824 142.477)">
        <path id="Trazado_190077" data-name="Trazado 190077" d="M107.933-282.458c-8.5,0-24.975-1.533-37.491-5.96a.336.336,0,0,1-.205-.429.337.337,0,0,1,.429-.205c15.811,5.593,37.931,6.548,42.046,5.624a.339.339,0,0,1,.4.255.337.337,0,0,1-.255.4A26.827,26.827,0,0,1,107.933-282.458Z" transform="translate(-70.218 289.071)" fill="#7d92b5"/>
      </g>
    </g>
    <g id="Grupo_134465" data-name="Grupo 134465" transform="translate(-46.631 -481.328)">
      <g id="Grupo_134464" data-name="Grupo 134464" transform="translate(0)">
        <g id="Grupo_134457" data-name="Grupo 134457">
          <path id="Trazado_190078" data-name="Trazado 190078" d="M-20.229-415.322c2.639,2.32,5.98,3.809,8.3,6.492.911,1.056,1.73,2.18,2.575,3.287.615.806,2.258,2.142,2.525,3.155.118.446.093-.158-.026-.605,0-.019-.015-.037-.02-.056-.231-2.051-.4-4.109-.468-6.172s.056-4.123-.073-6.177c-.182-2.9-1.086-5.7-3.455-7.519-1.157-.888-2.646-1.428-3.71-2.412-1.011-.935-.605-2.005-.011-3.048a10.386,10.386,0,0,0,1.447-3.057,5.4,5.4,0,0,0-.882-3.68c-1.377-2.313-4.433-4.893-7.327-4.547-2.414.289-2.688,3.073-2.653,5.013.034,1.886.221,3.766.239,5.653.018,1.939-.311,3.84-.339,5.77C-24.158-419.945-22.641-417.444-20.229-415.322Z" transform="translate(31.933 439.695)" fill="#8fc34d"/>
          <path id="Trazado_190079" data-name="Trazado 190079" d="M.478-378.416A31,31,0,0,1,3.091-383.4a38.367,38.367,0,0,0,3.953-6.764c.975-2.5.832-5.172.928-7.8.07-1.934.645-3.863.49-5.8-.074-.93-.61-2.435-1.813-2.281-.936.12-1.492,1.281-1.852,2.022A35.535,35.535,0,0,0,3.267-400c-.182.531-.356,1.071-.586,1.583-.134.3-.56,1.025-.962.925-.683-.169-.063-2.961.039-3.455a45.508,45.508,0,0,0,1.386-7.346c.155-3.7-.133-8.114-3.757-10.14a2.591,2.591,0,0,0-3.047-.052,5.072,5.072,0,0,0-1.27,3.25,22.261,22.261,0,0,0,1.5,9.88c.905,2.658,1.983,5.4,2.063,8.243.075,2.736-1.348,5.16-2.016,7.745a24.494,24.494,0,0,0-.85,7.636c-.007,1.671.054,3.324.176,4.99.112,1.532.245,3.063.432,4.588.038.308.073.63.114.952-.588-1.417-.794-3.04-1.282-4.464-.866-2.531-1.872-5.009-2.7-7.553a62.567,62.567,0,0,0-2.242-6.238,15.108,15.108,0,0,0-3.464-5.29,5.054,5.054,0,0,0-3.4-1.322,9.378,9.378,0,0,0-2.341.5,2.634,2.634,0,0,1-2.515-.443c-2.6-2-3.386-5.575-5.309-8.1-1.434-1.885-4.836-5.1-7.338-3.043-1.326,1.09-1.693,3.2-1.623,4.813a11.664,11.664,0,0,0,2.028,5.575c1.122,1.8,2.57,3.415,3.6,5.268a5.588,5.588,0,0,1,.608,3.378,8.045,8.045,0,0,0,.2,3.411c1.19,3.369,4.908,2.9,7.8,2.987a21.639,21.639,0,0,1,6.114,1.009,6.8,6.8,0,0,1,4.457,4.388c.574,1.589.881,3.393,1.963,4.742a5.046,5.046,0,0,0,1.921,1.431c1.128.5,4.565.716,4.59.4a15.475,15.475,0,0,1,.9-3.158C-.968-374.784-.28-376.609.478-378.416Z" transform="translate(35.741 432.907)" fill="#8fc34d"/>
          <path id="Trazado_190080" data-name="Trazado 190080" d="M32.479-362.511c-.3-1.927-.241-4.049-1.153-5.818a.263.263,0,0,0-.355-.093c-.654.362-.681,1.418-.734,2.065-.088,1.073-.022,2.149-.155,3.22a24.1,24.1,0,0,1-1.344,5.591,6.01,6.01,0,0,1-4.185,3.768,10.59,10.59,0,0,0-3.663,1.615,7.714,7.714,0,0,0-2.148,2.962,44.439,44.439,0,0,0-2.622,9.657c-.422,2.181-.766,4.371-1.3,6.53a64.023,64.023,0,0,0-1.4,6.507c-.051.111-.106.221-.153.334-.139.33.377.508.554.233a21.675,21.675,0,0,1,8.109-7.876c1.568-.8,3.651-.966,4.96-2.223a4.348,4.348,0,0,0,.983-3.716,11.685,11.685,0,0,0-1.868-4.573,3.864,3.864,0,0,1-.833-2.629,3.389,3.389,0,0,1,1.7-2.061c1.443-.9,3.132-1.3,4.314-2.591a7.078,7.078,0,0,0,1.828-4.31A29.681,29.681,0,0,0,32.479-362.511Z" transform="translate(19.7 416.368)" fill="#8fc34d"/>
          <path id="Trazado_190081" data-name="Trazado 190081" d="M-6.247-346.75a27.714,27.714,0,0,0-6.574-6.087c-1.336-.887-4.488-2.638-5.124-.021-.373,1.535,1.129,3.043,2.117,4.005a40.53,40.53,0,0,1,4.456,4.358c-1.552.495-3.172.591-4.52,1.664-1.6,1.27-2.312,3.722-.73,5.278a10.056,10.056,0,0,0,2.754,1.689c1.248.6,2.519,1.152,3.8,1.686a32.039,32.039,0,0,1,7.916,4.216c2.4,1.927,4.659,5.184,4.849,8.327.018.3-.1.026.083-.111.1.088.427-.069.426-.245A33.152,33.152,0,0,0,.411-335.368,55.87,55.87,0,0,0-6.247-346.75Z" transform="translate(29.933 411.712)" fill="#8fc34d"/>
        </g>
        <g id="Grupo_134458" data-name="Grupo 134458" transform="translate(17.294 21.236)">
          <path id="Trazado_190082" data-name="Trazado 190082" d="M-10-407.809c1.017,2.111,2.081,4.174,3.21,6.233a50.083,50.083,0,0,1,2.986,6.064c1,2.6,2.051,5.169,3.11,7.748a76.486,76.486,0,0,1,2.872,8.206,97.262,97.262,0,0,1,3.25,16.686,67.781,67.781,0,0,1,.34,8.625c-.062,2.249-.315,4.474-.527,6.712a39.687,39.687,0,0,0-.184,7.02c.163,1.954.473,4.275,1.989,5.668a.348.348,0,0,0,.545-.42c-1.8-3.694-1.7-7.72-1.356-11.726.19-2.211.454-4.411.529-6.63a66.38,66.38,0,0,0-.282-8.466,100.179,100.179,0,0,0-3.055-16.353,73.891,73.891,0,0,0-2.686-8.091c-1.048-2.653-2.258-5.232-3.274-7.9-1.836-4.82-4.635-9.094-7.114-13.586-.129-.233-.467-.028-.354.207Z" transform="translate(10.027 408.119)" fill="#37568d"/>
        </g>
        <g id="Grupo_134459" data-name="Grupo 134459" transform="translate(32.53 41.511)">
          <path id="Trazado_190083" data-name="Trazado 190083" d="M12.925-358.523a39.863,39.863,0,0,1,1.786-10.239c.551-1.562,1.221-3.08,1.753-4.649.44-1.3,1.1-3.073.759-4.45a.159.159,0,0,0-.3,0c-.227.786-.2,1.649-.365,2.456a21.89,21.89,0,0,1-.615,2.32c-.519,1.622-1.2,3.177-1.786,4.773a23.612,23.612,0,0,0-1.47,9.789.121.121,0,0,0,.241,0Z" transform="translate(-12.627 377.973)" fill="#37568d"/>
        </g>
        <g id="Grupo_134460" data-name="Grupo 134460" transform="translate(12.473 40.556)">
          <path id="Trazado_190084" data-name="Trazado 190084" d="M-17.181-379.161c1.394,3.366,5.582,3.56,8.632,4.314a8.088,8.088,0,0,1,4.942,3.878,29.635,29.635,0,0,1,2.822,6.791.021.021,0,0,0,.04-.011c-.853-4.034-2.075-8.892-6.235-10.77-3.332-1.5-7.724-.749-9.856-4.348-.1-.178-.43-.059-.346.145Z" transform="translate(17.195 379.393)" fill="#37568d"/>
        </g>
        <g id="Grupo_134461" data-name="Grupo 134461" transform="translate(30.617 60.358)">
          <path id="Trazado_190085" data-name="Trazado 190085" d="M9.791-349.88c.166.224.317.457.489.677a1.775,1.775,0,0,0,.278.3.641.641,0,0,0,.387.2.085.085,0,0,0,.073-.126,1.336,1.336,0,0,0-.291-.266c-.1-.088-.2-.174-.3-.266-.2-.184-.373-.385-.564-.573-.037-.036-.108.013-.075.057Z" transform="translate(-9.782 349.95)" fill="#37568d"/>
        </g>
        <g id="Grupo_134462" data-name="Grupo 134462" transform="translate(21.857 70.797)">
          <path id="Trazado_190086" data-name="Trazado 190086" d="M-3.187-334.119A33.908,33.908,0,0,1,3.2-327.255a41.654,41.654,0,0,1,2.324,3.823A42.67,42.67,0,0,1,7.4-319c.046.114.253.116.237-.032C7.3-322.2,5.3-324.911,3.691-327.544a20.321,20.321,0,0,0-2.986-3.612A26.554,26.554,0,0,0-2.97-334.4c-.164-.116-.373.151-.217.28Z" transform="translate(3.242 334.428)" fill="#37568d"/>
        </g>
        <g id="Grupo_134463" data-name="Grupo 134463" transform="translate(33.88 67.354)">
          <path id="Trazado_190087" data-name="Trazado 190087" d="M21.8-339.522c-1.157.656-1.2,2.484-1.218,3.652-.044,2.243.512,4.349-.473,6.487a50.446,50.446,0,0,1-3.427,5.335,11.617,11.617,0,0,0-2.053,5.844c0,.117.18.182.235.064a24.4,24.4,0,0,0,.874-2.92,12.258,12.258,0,0,1,1.426-3.012,49.667,49.667,0,0,0,3.266-4.972c.918-1.887.784-3.758.723-5.8-.038-1.3-.169-3.4.882-4.37.165-.152-.046-.413-.235-.305Z" transform="translate(-14.633 339.548)" fill="#37568d"/>
        </g>
      </g>
      <path id="Trazado_190088" data-name="Trazado 190088" d="M7.193-307.558c-4.662-.065-13.544-.116-13.544-.116l2.2,16.317a7.4,7.4,0,0,0,7.331,6.411h8.029a7.4,7.4,0,0,0,7.332-6.411l2.2-16.317S11.856-307.623,7.193-307.558Z" transform="translate(26.117 396.465)" fill="#fff"/>
    </g>
    <g id="Grupo_134471" data-name="Grupo 134471" transform="translate(56.431 -424.356)">
      <g id="Grupo_134469" data-name="Grupo 134469" transform="translate(0 0)">
        <g id="Grupo_134466" data-name="Grupo 134466" transform="translate(51.47 1.206)">
          <path id="Trazado_190089" data-name="Trazado 190089" d="M298.181-352.449l-26.6,52.691-77.552.557,23.934-53.99Z" transform="translate(-194.028 353.191)" fill="#f6f7fa"/>
        </g>
        <g id="Grupo_134467" data-name="Grupo 134467">
          <path id="Trazado_190090" data-name="Trazado 190090" d="M117.5-300.117l.014-4.218h50.2l23.1-50.65H271.1l2.018,1.948H194.688l-24,52.877S117.5-300.256,117.5-300.117Z" transform="translate(-117.499 354.984)" fill="#d7dde8"/>
        </g>
        <g id="Grupo_134468" data-name="Grupo 134468" transform="translate(97.143 26.034)">
          <path id="Trazado_190091" data-name="Trazado 190091" d="M280.147-311.285c-.876,2.628-5.631,4.658-10.621,4.533s-8.324-2.356-7.449-4.984,5.631-4.658,10.621-4.533S281.024-313.913,280.147-311.285Z" transform="translate(-261.938 316.275)" fill="#d7dde8"/>
        </g>
      </g>
      <g id="Grupo_134470" data-name="Grupo 134470" transform="translate(52.85 1.611)">
        <path id="Trazado_190092" data-name="Trazado 190092" d="M196.416-299.039a.334.334,0,0,1-.139-.03.336.336,0,0,1-.167-.445L220.2-352.588h78.65a.336.336,0,0,1,.336.336.336.336,0,0,1-.336.336H220.636l-23.914,52.68A.336.336,0,0,1,196.416-299.039Z" transform="translate(-196.08 352.588)" fill="#fff"/>
      </g>
    </g>
    <g id="Grupo_134473" data-name="Grupo 134473" transform="translate(-43.771 -369.532)">
      <g id="Grupo_134472" data-name="Grupo 134472" transform="translate(4.453 4.036)">
        <rect id="Rectángulo_42251" data-name="Rectángulo 42251" width="92.255" height="20.455" fill="#4e6a9a"/>
        <rect id="Rectángulo_42252" data-name="Rectángulo 42252" width="165.985" height="20.455" transform="translate(91.728)" fill="#7288ae"/>
      </g>
      <path id="Trazado_190093" data-name="Trazado 190093" d="M67.387-267.467H-24.868v3.757H232.845v-3.757Z" transform="translate(29.321 271.502)" fill="#b8c3d7" style="mix-blend-mode: multiply;isolation: isolate"/>
      <rect id="Rectángulo_42253" data-name="Rectángulo 42253" width="100.744" height="5.009" fill="#667ea7"/>
      <rect id="Rectángulo_42254" data-name="Rectángulo 42254" width="165.985" height="5.009" transform="translate(100.217)" fill="#95a6c2"/>
    </g>
    <g id="Grupo_134475" data-name="Grupo 134475" transform="translate(-6.572 -500.409)">
      <rect id="Rectángulo_42255" data-name="Rectángulo 42255" width="39.866" height="23.557" rx="5.426" fill="#fff"/>
      <path id="Trazado_190094" data-name="Trazado 190094" d="M90.943-453.064l-12.232-5.161V-447.9Z" transform="translate(-41.795 464.843)" fill="#fff"/>
      <g id="Grupo_134474" data-name="Grupo 134474" transform="translate(9.954 9.526)">
        <circle id="Elipse_5203" data-name="Elipse 5203" cx="2.253" cy="2.253" r="2.253" fill="#133878"/>
        <circle id="Elipse_5204" data-name="Elipse 5204" cx="2.253" cy="2.253" r="2.253" transform="translate(7.726)" fill="#133878"/>
        <circle id="Elipse_5205" data-name="Elipse 5205" cx="2.253" cy="2.253" r="2.253" transform="translate(15.452)" fill="#133878"/>
      </g>
    </g>
    <g id="Grupo_134476" data-name="Grupo 134476" transform="translate(111.519 -550.425)">
      <path id="Trazado_190095" data-name="Trazado 190095" d="M283.338-542.433H208.151a8.743,8.743,0,0,0-8.743,8.743v35.669a8.743,8.743,0,0,0,8.743,8.743h6.739a30.89,30.89,0,0,1-2.973,14.193,37.78,37.78,0,0,0,16.3-14.193h55.12a8.744,8.744,0,0,0,8.743-8.743V-533.69A8.743,8.743,0,0,0,283.338-542.433Z" transform="translate(-199.408 542.433)" fill="#8fc34d"/>
      <path id="Trazado_190096" data-name="Trazado 190096" d="M257.451-518.964H220.16a1.855,1.855,0,0,1-1.856-1.855h0a1.855,1.855,0,0,1,1.856-1.856h37.292a1.855,1.855,0,0,1,1.856,1.856h0A1.855,1.855,0,0,1,257.451-518.964Z" transform="translate(-205.595 535.963)" fill="#fff"/>
      <path id="Trazado_190097" data-name="Trazado 190097" d="M284.191-502.194H219.441a1.137,1.137,0,0,1-1.137-1.137h0a1.137,1.137,0,0,1,1.137-1.137h64.751a1.136,1.136,0,0,1,1.136,1.137h0A1.136,1.136,0,0,1,284.191-502.194Z" transform="translate(-205.595 530.001)" fill="#a34889"/>
      <path id="Trazado_190098" data-name="Trazado 190098" d="M284.191-492.815H219.441a1.137,1.137,0,0,1-1.137-1.137h0a1.137,1.137,0,0,1,1.137-1.137h64.751a1.136,1.136,0,0,1,1.136,1.137h0A1.136,1.136,0,0,1,284.191-492.815Z" transform="translate(-205.595 526.93)" fill="#a34889"/>
      <path id="Trazado_190099" data-name="Trazado 190099" d="M270.066-482.815H219.441a1.137,1.137,0,0,1-1.137-1.137h0a1.137,1.137,0,0,1,1.137-1.137h50.626a1.137,1.137,0,0,1,1.137,1.137h0A1.137,1.137,0,0,1,270.066-482.815Z" transform="translate(-205.595 523.655)" fill="#a34889"/>
      <path id="Trazado_190100" data-name="Trazado 190100" d="M305.949-518.964H288.16a1.855,1.855,0,0,1-1.856-1.855h0a1.855,1.855,0,0,1,1.856-1.856h17.79a1.855,1.855,0,0,1,1.855,1.856h0A1.855,1.855,0,0,1,305.949-518.964Z" transform="translate(-227.862 535.963)" fill="#fff"/>
    </g>
    <g id="Grupo_134481" data-name="Grupo 134481" transform="translate(123.224 -467.887)">
      <rect id="Rectángulo_42256" data-name="Rectángulo 42256" width="22.89" height="16.489" rx="2" transform="translate(0)" fill="#fff"/>
      <g id="Grupo_134480" data-name="Grupo 134480" transform="translate(0.087 0.377)">
        <g id="Grupo_134477" data-name="Grupo 134477" transform="translate(0)">
          <path id="Trazado_190101" data-name="Trazado 190101" d="M228.439-408.816a.5.5,0,0,1-.321-.116l-10.994-9.08a.5.5,0,0,1-.067-.71.5.5,0,0,1,.71-.068l10.664,8.807,10.392-9.042a.5.5,0,0,1,.711.049.5.5,0,0,1-.049.712l-10.714,9.324A.506.506,0,0,1,228.439-408.816Z" transform="translate(-216.942 419.148)" fill="#667ea7"/>
        </g>
        <g id="Grupo_134478" data-name="Grupo 134478" transform="translate(0 6.644)">
          <path id="Trazado_190102" data-name="Trazado 190102" d="M217.446-400.178a.5.5,0,0,1-.348-.139.5.5,0,0,1-.017-.713l7.688-8.083a.5.5,0,0,1,.713-.018.5.5,0,0,1,.017.714l-7.688,8.083A.5.5,0,0,1,217.446-400.178Z" transform="translate(-216.942 409.27)" fill="#667ea7"/>
        </g>
        <g id="Grupo_134479" data-name="Grupo 134479" transform="translate(14.05 6.753)">
          <path id="Trazado_190103" data-name="Trazado 190103" d="M245.994-400.42a.5.5,0,0,1-.357-.149l-7.658-7.679a.5.5,0,0,1,0-.714.5.5,0,0,1,.714,0l7.657,7.679a.5.5,0,0,1,0,.714A.5.5,0,0,1,245.994-400.42Z" transform="translate(-237.832 409.108)" fill="#667ea7"/>
        </g>
      </g>
    </g>
    <g id="Grupo_134488" data-name="Grupo 134488" transform="translate(172.83 -482.43)">
      <g id="Grupo_134482" data-name="Grupo 134482">
        <rect id="Rectángulo_42257" data-name="Rectángulo 42257" width="44.806" height="11.549" rx="4" fill="#603eb7"/>
      </g>
      <g id="Grupo_134483" data-name="Grupo 134483" transform="translate(2.818 2.747)">
        <path id="Trazado_190104" data-name="Trazado 190104" d="M297.479-431.193a.53.53,0,0,1-.426-.189.632.632,0,0,1-.142-.473l.171-1.5c.012-.038.006-.063-.019-.075a.1.1,0,0,0-.095.019l-1.231.89a.58.58,0,0,1-.473.122.588.588,0,0,1-.4-.293.571.571,0,0,1-.067-.53.608.608,0,0,1,.35-.322l1.381-.625c.038-.012.057-.032.057-.057s-.019-.044-.057-.057l-1.381-.625a.563.563,0,0,1-.341-.359.623.623,0,0,1,.057-.492.591.591,0,0,1,.4-.293.616.616,0,0,1,.473.1l1.231.909a.1.1,0,0,0,.095.019c.025-.013.031-.038.019-.076l-.171-1.5a.613.613,0,0,1,.152-.474.581.581,0,0,1,.454-.189.56.56,0,0,1,.435.189.559.559,0,0,1,.132.474l-.17,1.5c-.013.038-.007.063.019.076a.1.1,0,0,0,.095-.019l1.23-.89a.6.6,0,0,1,.483-.123.538.538,0,0,1,.388.293.572.572,0,0,1,.066.53.606.606,0,0,1-.35.322l-1.381.625c-.038.013-.057.032-.057.057s.019.044.057.057l1.381.625a.6.6,0,0,1,.35.36.554.554,0,0,1-.066.492.536.536,0,0,1-.388.293.63.63,0,0,1-.483-.1l-1.23-.909a.1.1,0,0,0-.095-.019c-.026.013-.032.038-.019.075l.17,1.5a.545.545,0,0,1-.142.473A.61.61,0,0,1,297.479-431.193Z" transform="translate(-294.76 437.249)" fill="#fff"/>
      </g>
      <g id="Grupo_134484" data-name="Grupo 134484" transform="translate(10.973 2.747)">
        <path id="Trazado_190105" data-name="Trazado 190105" d="M309.6-431.193a.53.53,0,0,1-.426-.189.633.633,0,0,1-.142-.473l.17-1.5c.012-.038.006-.063-.019-.075a.1.1,0,0,0-.095.019l-1.23.89a.581.581,0,0,1-.473.122.59.59,0,0,1-.4-.293.57.57,0,0,1-.066-.53.607.607,0,0,1,.35-.322l1.382-.625c.038-.012.056-.032.056-.057s-.019-.044-.056-.057l-1.382-.625a.56.56,0,0,1-.34-.359.62.62,0,0,1,.056-.492.592.592,0,0,1,.4-.293.618.618,0,0,1,.473.1l1.23.909a.1.1,0,0,0,.095.019c.025-.013.031-.038.019-.076l-.17-1.5a.615.615,0,0,1,.151-.474.583.583,0,0,1,.455-.189.561.561,0,0,1,.435.189.559.559,0,0,1,.132.474l-.169,1.5c-.013.038-.007.063.019.076a.1.1,0,0,0,.095-.019l1.23-.89a.6.6,0,0,1,.483-.123.538.538,0,0,1,.388.293.57.57,0,0,1,.065.53.6.6,0,0,1-.35.322l-1.381.625c-.038.013-.057.032-.057.057s.019.044.057.057l1.381.625a.592.592,0,0,1,.35.36.552.552,0,0,1-.065.492.536.536,0,0,1-.388.293.63.63,0,0,1-.483-.1l-1.23-.909a.1.1,0,0,0-.095-.019c-.026.013-.032.038-.019.075l.169,1.5a.543.543,0,0,1-.141.473A.612.612,0,0,1,309.6-431.193Z" transform="translate(-306.885 437.249)" fill="#fff"/>
      </g>
      <g id="Grupo_134485" data-name="Grupo 134485" transform="translate(19.127 2.747)">
        <path id="Trazado_190106" data-name="Trazado 190106" d="M321.728-431.193a.529.529,0,0,1-.426-.189.633.633,0,0,1-.143-.473l.171-1.5c.012-.038.006-.063-.019-.075a.1.1,0,0,0-.095.019l-1.23.89a.581.581,0,0,1-.473.122.588.588,0,0,1-.4-.293.572.572,0,0,1-.067-.53.608.608,0,0,1,.35-.322l1.382-.625c.038-.012.056-.032.056-.057s-.019-.044-.056-.057L319.4-434.9a.563.563,0,0,1-.341-.359.623.623,0,0,1,.057-.492.59.59,0,0,1,.4-.293.618.618,0,0,1,.473.1l1.23.909a.1.1,0,0,0,.095.019c.025-.013.031-.038.019-.076l-.171-1.5a.616.616,0,0,1,.152-.474.582.582,0,0,1,.454-.189.562.562,0,0,1,.436.189.561.561,0,0,1,.132.474l-.17,1.5c-.013.038-.007.063.019.076a.1.1,0,0,0,.095-.019l1.231-.89a.594.594,0,0,1,.482-.123.538.538,0,0,1,.388.293.57.57,0,0,1,.066.53.607.607,0,0,1-.35.322l-1.381.625c-.038.013-.057.032-.057.057s.019.044.057.057l1.381.625a.6.6,0,0,1,.35.36.552.552,0,0,1-.066.492.536.536,0,0,1-.388.293.629.629,0,0,1-.482-.1l-1.231-.909a.1.1,0,0,0-.095-.019c-.026.013-.032.038-.019.075l.17,1.5a.545.545,0,0,1-.141.473A.613.613,0,0,1,321.728-431.193Z" transform="translate(-319.01 437.249)" fill="#fff"/>
      </g>
      <g id="Grupo_134486" data-name="Grupo 134486" transform="translate(27.282 2.747)">
        <path id="Trazado_190107" data-name="Trazado 190107" d="M333.853-431.193a.53.53,0,0,1-.426-.189.633.633,0,0,1-.142-.473l.171-1.5c.012-.038.006-.063-.019-.075a.094.094,0,0,0-.094.019l-1.231.89a.58.58,0,0,1-.473.122.588.588,0,0,1-.4-.293.57.57,0,0,1-.067-.53.609.609,0,0,1,.35-.322l1.382-.625c.038-.012.057-.032.057-.057s-.019-.044-.057-.057l-1.382-.625a.564.564,0,0,1-.34-.359.623.623,0,0,1,.057-.492.59.59,0,0,1,.4-.293.617.617,0,0,1,.473.1l1.231.909a.1.1,0,0,0,.094.019c.026-.013.032-.038.019-.076l-.171-1.5a.616.616,0,0,1,.151-.474.584.584,0,0,1,.455-.189.56.56,0,0,1,.435.189.561.561,0,0,1,.132.474l-.17,1.5c-.013.038-.007.063.019.076a.1.1,0,0,0,.095-.019l1.23-.89a.6.6,0,0,1,.483-.123.538.538,0,0,1,.388.293.572.572,0,0,1,.066.53.606.606,0,0,1-.35.322l-1.381.625c-.038.013-.057.032-.057.057s.019.044.057.057l1.381.625a.6.6,0,0,1,.35.36.554.554,0,0,1-.066.492.536.536,0,0,1-.388.293.63.63,0,0,1-.483-.1l-1.23-.909a.1.1,0,0,0-.095-.019c-.026.013-.032.038-.019.075l.17,1.5a.545.545,0,0,1-.142.473A.61.61,0,0,1,333.853-431.193Z" transform="translate(-331.134 437.249)" fill="#fff"/>
      </g>
      <g id="Grupo_134487" data-name="Grupo 134487" transform="translate(35.436 2.747)">
        <path id="Trazado_190108" data-name="Trazado 190108" d="M345.977-431.193a.53.53,0,0,1-.426-.189.633.633,0,0,1-.142-.473l.17-1.5c.012-.038.006-.063-.019-.075a.1.1,0,0,0-.095.019l-1.23.89a.581.581,0,0,1-.473.122.589.589,0,0,1-.4-.293.57.57,0,0,1-.066-.53.607.607,0,0,1,.35-.322l1.382-.625c.038-.012.057-.032.057-.057s-.019-.044-.057-.057l-1.382-.625a.56.56,0,0,1-.34-.359.62.62,0,0,1,.057-.492.592.592,0,0,1,.4-.293.618.618,0,0,1,.473.1l1.23.909a.1.1,0,0,0,.095.019c.025-.013.031-.038.019-.076l-.17-1.5a.615.615,0,0,1,.151-.474.583.583,0,0,1,.455-.189.561.561,0,0,1,.435.189.559.559,0,0,1,.132.474l-.169,1.5c-.013.038-.007.063.019.076a.1.1,0,0,0,.095-.019l1.23-.89a.6.6,0,0,1,.483-.123.54.54,0,0,1,.388.293.57.57,0,0,1,.065.53.6.6,0,0,1-.35.322l-1.381.625c-.038.013-.057.032-.057.057s.019.044.057.057l1.381.625a.592.592,0,0,1,.35.36.552.552,0,0,1-.065.492.538.538,0,0,1-.388.293.63.63,0,0,1-.483-.1l-1.23-.909a.1.1,0,0,0-.095-.019c-.026.013-.032.038-.019.075l.169,1.5a.543.543,0,0,1-.141.473A.612.612,0,0,1,345.977-431.193Z" transform="translate(-343.259 437.249)" fill="#8fc34d"/>
      </g>
    </g>
  </g>
</svg>
