<svg xmlns="http://www.w3.org/2000/svg" xmlns:xlink="http://www.w3.org/1999/xlink" width="295" height="235.083" viewBox="0 0 295 235.083">
  <defs>
    <linearGradient id="linear-gradient" x1="0.5" x2="0.5" y2="1" gradientUnits="objectBoundingBox">
      <stop offset="0" stop-color="#6836bc"/>
      <stop offset="0.256" stop-color="#6d3dc3"/>
      <stop offset="0.637" stop-color="#7e51d6"/>
      <stop offset="1" stop-color="#936bef"/>
    </linearGradient>
  </defs>
  <g id="Grupo_134775" data-name="Grupo 134775" transform="translate(4461 11290)">
    <path id="Trazado_190039" data-name="Trazado 190039" d="M-18.447-356.73s-36.735-26.16-47.311-70.687,5.566-98.518,36.179-125.791,85.715-8.905,110.206,13.915l24.49,22.82a114.577,114.577,0,0,0,53.99,11.688c30.613-1.113,57.886,40.632,65.122,73.471S214.21-355.06,214.21-355.06Z" transform="translate(-4392.001 -10723.159)" fill="#eee"/>
    <path id="Trazado_190040" data-name="Trazado 190040" d="M-34.864-349.275s-25.6-13.914-32.282-46.2S-44.883-457.254-42.1-473.4s-3.339-36.179,22.263-51.764,71.245-10.019,88.5-13.915,37.292-30.613,71.8-24.49,67.9,24.49,69.575,64.565-11.132,41.188,1.669,62.9,17.811,36.735,11.689,59-18.924,28.386-18.924,28.386Z" transform="translate(-4392.281 -10723.935)" fill="#7fc733" opacity="0.25"/>
    <path id="Trazado_190041" data-name="Trazado 190041" d="M55.512-314.61C53.9-316.3,30.3-363.547,56.586-406.859s92.282-38.25,118.571-21.375,39.166,38.813,41.849,61.875S201.983-307.3,201.983-307.3Z" transform="translate(-4433.583 -10760.903)" fill="url(#linear-gradient)"/>
    <g id="Grupo_134473" data-name="Grupo 134473" transform="translate(-4435.773 -11092.691)">
      <g id="Grupo_134472" data-name="Grupo 134472" transform="translate(4.453 4.036)">
        <rect id="Rectángulo_42251" data-name="Rectángulo 42251" width="92.255" height="20.455" fill="#4e6a9a"/>
        <rect id="Rectángulo_42252" data-name="Rectángulo 42252" width="165.985" height="20.455" transform="translate(91.728)" fill="#7288ae"/>
      </g>
      <path id="Trazado_190093" data-name="Trazado 190093" d="M67.387-267.467H-24.868v3.757H232.845v-3.757Z" transform="translate(29.321 271.502)" fill="#b8c3d7" style="mix-blend-mode: multiply;isolation: isolate"/>
      <rect id="Rectángulo_42253" data-name="Rectángulo 42253" width="100.744" height="5.009" fill="#667ea7"/>
      <rect id="Rectángulo_42254" data-name="Rectángulo 42254" width="165.985" height="5.009" transform="translate(100.217)" fill="#95a6c2"/>
    </g>
    <g id="Grupo_134549" data-name="Grupo 134549" transform="translate(-5375.949 -11532.843)">
      <g id="Grupo_134548" data-name="Grupo 134548" transform="translate(960.182 261.231)">
        <g id="Grupo_134504" data-name="Grupo 134504" transform="translate(19.895 10.602)">
          <path id="Trazado_190274" data-name="Trazado 190274" d="M1060.643,346.21a.662.662,0,0,1-.619.619c-.764-.043-1.678-.108-2.707-.177-1.579-6.576-3.517-11.89-3.093-9.859a32.437,32.437,0,0,1,.435,9.672c-1.191-.088-3.951-.318-5.332-.434-.635-11.3-2.236-19.82-2.4-17.276-.667,10.26-1.7,13.451-2.865,16.851-12.865-1.086-29.714-2.694-41.871-4.116-.6-6.277-.957-13.033-1.231-12.6-2.108,3.227-3.214,8.161-3.757,12-3.866-.481-6.948-.936-8.813-1.307,0,0-.228-5.241-.137-6.944a35.525,35.525,0,0,1,3.043-12.656c1.846-4.1,4.564-7.582,7.178-11.172a.361.361,0,0,1,.063-.078c0-.013.01-.015.021-.03a36.527,36.527,0,0,0,4.274-7.524.2.2,0,0,0,.029-.057,35.3,35.3,0,0,0,1.8-5.974c1.553-7.45,6.647-13.4,13.98-14.462,15.012-10.825,27.7-3.783,30.467,6.394.266.991.5,2.118.714,3.342l.005.039c.8,4.527,1.279,10.331,1.837,14.841a.017.017,0,0,0,0,.025c-.011.015-.009.028.007.051l0,.013a41.475,41.475,0,0,0,.924,5.246C1054.942,318.93,1062.066,324.4,1060.643,346.21Z" transform="translate(-986.921 -275.255)" fill="#283237"/>
          <path id="Trazado_190275" data-name="Trazado 190275" d="M1014.865,284.642c-4.959,1.811-8.27,4.973-9.712,10.371-.841,3.146-1.464,6.242-3.091,9.1a33.414,33.414,0,0,1-6.425,7.532c-3.814,3.63-6.634,7.372-7.852,12.7-1.238,5.406-1.824,11.9-.649,17.248a.024.024,0,1,0,.047-.01c-.816-5.374.088-12.547,1.724-17.851,1.8-5.826,5.664-9.133,9.712-13.211a25.072,25.072,0,0,0,6.672-11.5c.7-2.669,1.034-5.5,2.463-7.913,1.706-2.882,4.562-4.484,7.367-5.869A.326.326,0,0,0,1014.865,284.642Z" transform="translate(-986.498 -277.54)" fill="#283237"/>
          <path id="Trazado_190276" data-name="Trazado 190276" d="M1079.108,324.951c-2.713-4.693-5.645-8.775-6.867-14.32-1.113-5.051-1.442-10.279-2.588-15.329a.062.062,0,1,0-.122.022c1.616,8.912,1.012,17.613,5.59,25.529,2.488,4.3,5.012,8.316,6.375,13.263a42.136,42.136,0,0,1,1.075,15.877c-.021.19.224.21.265.032A34.873,34.873,0,0,0,1079.108,324.951Z" transform="translate(-1006.758 -280.133)" fill="#283237"/>
        </g>
        <g id="Grupo_134514" data-name="Grupo 134514" transform="translate(0 73.74)">
          <g id="Grupo_134508" data-name="Grupo 134508" transform="translate(58.369 3.369)">
            <path id="Trazado_190277" data-name="Trazado 190277" d="M1053.279,371.329c24.144,25.308,54.165,78.194,48.228,88.714-6.614,11.718-41.43-24.305-40.338-26.031.928-1.466-11.1-33.311-19.84-56.6C1032.6,354.146,1047.309,365.071,1053.279,371.329Z" transform="translate(-1037.692 -363.227)" fill="#a34889"/>
            <g id="Grupo_134507" data-name="Grupo 134507" transform="translate(0 0)">
              <path id="Trazado_190278" data-name="Trazado 190278" d="M1082.561,401.671l-34.669,6.242s-8.654-24.565-10.371-38.2c-.962-7.643,3.53-7.957,9.182-3.895C1066.483,380.031,1082.561,401.671,1082.561,401.671Z" transform="translate(-1037.391 -363.227)" fill="#f7c84e"/>
              <path id="Trazado_190279" data-name="Trazado 190279" d="M1045.257,374.428a2.644,2.644,0,0,1-.575.674,4.216,4.216,0,0,1-.383.3h-.1a3.426,3.426,0,0,1-.959-.978,1.072,1.072,0,0,1-.067-1.023.511.511,0,0,1,.452-.259.662.662,0,0,0,1.247,0,.512.512,0,0,1,.454.259A1.076,1.076,0,0,1,1045.257,374.428Zm10.718-.867a1.15,1.15,0,0,0,.126.863,3.487,3.487,0,0,0,.956.98h.1a3.572,3.572,0,0,0,.384-.3.47.47,0,0,0,.086-.087C1057.087,374.533,1056.531,374.039,1055.974,373.561Zm-17.085-8.436a.5.5,0,0,0-.447-.259.591.591,0,0,0-.29.07v.008a4.84,4.84,0,0,0-.658,1.975,2.178,2.178,0,0,0,.275.2h.1c.008-.008.181-.126.376-.3a2.694,2.694,0,0,0,.58-.674A1.075,1.075,0,0,0,1038.89,365.125Zm6.434,24.772a.512.512,0,0,0-.454-.259.662.662,0,0,1-1.247,0,.511.511,0,0,0-.452.259,1.072,1.072,0,0,0,.067,1.023,3.427,3.427,0,0,0,.959.978h.1a4.125,4.125,0,0,0,.383-.3,2.647,2.647,0,0,0,.575-.675A1.076,1.076,0,0,0,1045.324,389.9Zm12.863,0a.511.511,0,0,0-.453-.259.662.662,0,0,1-1.248,0,.511.511,0,0,0-.452.259,1.073,1.073,0,0,0,.067,1.023,3.437,3.437,0,0,0,.959.978h.1a4.117,4.117,0,0,0,.383-.3,2.652,2.652,0,0,0,.575-.675A1.075,1.075,0,0,0,1058.186,389.9Zm12.863,0a.512.512,0,0,0-.453-.259.662.662,0,0,1-1.248,0,.512.512,0,0,0-.452.259,1.073,1.073,0,0,0,.067,1.023,3.439,3.439,0,0,0,.958.978h.1a4.109,4.109,0,0,0,.384-.3,2.651,2.651,0,0,0,.575-.675A1.076,1.076,0,0,0,1071.049,389.9Zm-19.294-8.277a.511.511,0,0,0-.454-.259.662.662,0,0,1-1.247,0,.51.51,0,0,0-.452.259,1.072,1.072,0,0,0,.067,1.022,3.415,3.415,0,0,0,.958.978h.1a3.926,3.926,0,0,0,.383-.3,2.634,2.634,0,0,0,.575-.675A1.074,1.074,0,0,0,1051.755,381.62Zm12.863,0a.511.511,0,0,0-.454-.259.662.662,0,0,1-1.247,0,.511.511,0,0,0-.452.259,1.07,1.07,0,0,0,.067,1.022,3.412,3.412,0,0,0,.959.978h.1a3.984,3.984,0,0,0,.383-.3,2.631,2.631,0,0,0,.575-.675A1.074,1.074,0,0,0,1064.618,381.62Zm-6.433,24.77a.515.515,0,0,0-.454-.259.662.662,0,0,1-1.247,0,.5.5,0,0,0-.447.259.858.858,0,0,0-.1.479l2.273-.408A.124.124,0,0,0,1058.185,406.389Zm-6.43-8.277a.512.512,0,0,0-.454-.259.662.662,0,0,1-1.247,0,.511.511,0,0,0-.452.259,1.073,1.073,0,0,0,.067,1.023,3.439,3.439,0,0,0,.958.978h.1a4.061,4.061,0,0,0,.383-.3,2.647,2.647,0,0,0,.575-.675A1.076,1.076,0,0,0,1051.755,398.113Zm12.863,0a.512.512,0,0,0-.454-.259.662.662,0,0,1-1.247,0,.512.512,0,0,0-.452.259,1.072,1.072,0,0,0,.067,1.023,3.435,3.435,0,0,0,.959.978h.1a4.123,4.123,0,0,0,.383-.3,2.645,2.645,0,0,0,.575-.675A1.076,1.076,0,0,0,1064.618,398.113Zm12.863,0a.512.512,0,0,0-.454-.259.662.662,0,0,1-1.247,0,.512.512,0,0,0-.452.259,1.073,1.073,0,0,0,.067,1.023,3.439,3.439,0,0,0,.959.978h.1a4.16,4.16,0,0,0,.383-.3,2.635,2.635,0,0,0,.575-.675A1.076,1.076,0,0,0,1077.48,398.113Z" transform="translate(-1037.416 -363.627)" fill="#fff"/>
              <g id="Grupo_134506" data-name="Grupo 134506" transform="translate(10.681 33.233)">
                <g id="Grupo_134505" data-name="Grupo 134505">
                  <path id="Trazado_190280" data-name="Trazado 190280" d="M1051.568,412.962c5.254-1.4,19.616-4.792,29.237-5.776.057-.006.106.211.05.225-7.88,2.026-23.86,4.932-29.215,5.873C1051.538,413.3,1051.469,412.988,1051.568,412.962Z" transform="translate(-1051.52 -407.186)" fill="#283237"/>
                </g>
              </g>
              <path id="Trazado_190281" data-name="Trazado 190281" d="M1077.918,402.508l-30.029,5.4s-8.648-24.565-10.365-38.2c-.62-4.892,1-6.782,3.732-6.445Z" transform="translate(-1037.391 -363.228)" opacity="0.1"/>
            </g>
          </g>
          <g id="Grupo_134509" data-name="Grupo 134509" transform="translate(0.174)">
            <path id="Trazado_190282" data-name="Trazado 190282" d="M1048.276,457.918H960.413s7.994-61.295,36.3-93.527c7.635-8.7,21.482-6.121,28.035-.237a61,61,0,0,1,6.373,7.239c5.951,7.648,15.672,26.01,16.581,30.977,1.5,8.209-5.765,17.08-5.765,17.08Z" transform="translate(-960.413 -358.77)" fill="#efc949"/>
            <path id="Trazado_190283" data-name="Trazado 190283" d="M1000.81,374.428a2.644,2.644,0,0,1-.575.674,4.335,4.335,0,0,1-.383.3h-.1a3.428,3.428,0,0,1-.959-.978,1.073,1.073,0,0,1-.067-1.023.512.512,0,0,1,.452-.259.662.662,0,0,0,1.247,0,.512.512,0,0,1,.454.259A1.076,1.076,0,0,1,1000.81,374.428Zm12.93-1.024a.513.513,0,0,0-.454-.259.662.662,0,0,1-1.247,0,.511.511,0,0,0-.452.259,1.072,1.072,0,0,0,.067,1.023,3.426,3.426,0,0,0,.958.978h.1a4.314,4.314,0,0,0,.383-.3,2.646,2.646,0,0,0,.575-.674A1.076,1.076,0,0,0,1013.74,373.4Zm12.862,0a.512.512,0,0,0-.454-.259.662.662,0,0,1-1.247,0,.511.511,0,0,0-.452.259,1.072,1.072,0,0,0,.067,1.023,3.426,3.426,0,0,0,.958.978h.1a4.2,4.2,0,0,0,.383-.3,2.641,2.641,0,0,0,.575-.674A1.076,1.076,0,0,0,1026.6,373.4Zm-19.294-8.277a.512.512,0,0,0-.454-.259.662.662,0,0,1-1.247,0,.511.511,0,0,0-.452.259,1.073,1.073,0,0,0,.067,1.023,3.429,3.429,0,0,0,.959.978h.1a4.228,4.228,0,0,0,.383-.3,2.651,2.651,0,0,0,.575-.675A1.076,1.076,0,0,0,1007.309,365.126Zm12.863,0a.512.512,0,0,0-.453-.259.662.662,0,0,1-1.247,0,.511.511,0,0,0-.452.259,1.073,1.073,0,0,0,.067,1.023,3.426,3.426,0,0,0,.959.978h.1a4.144,4.144,0,0,0,.383-.3,2.651,2.651,0,0,0,.575-.675A1.075,1.075,0,0,0,1020.172,365.126ZM988.015,389.9a.513.513,0,0,0-.454-.259.662.662,0,0,1-1.247,0,.511.511,0,0,0-.452.259,1.073,1.073,0,0,0,.067,1.023,3.427,3.427,0,0,0,.959.978h.1a4.258,4.258,0,0,0,.383-.3,2.659,2.659,0,0,0,.575-.675A1.075,1.075,0,0,0,988.015,389.9Zm12.863,0a.512.512,0,0,0-.454-.259.662.662,0,0,1-1.247,0,.512.512,0,0,0-.452.259,1.073,1.073,0,0,0,.067,1.023,3.429,3.429,0,0,0,.959.978h.1a4.238,4.238,0,0,0,.383-.3,2.647,2.647,0,0,0,.575-.675A1.076,1.076,0,0,0,1000.878,389.9Zm12.863,0a.513.513,0,0,0-.454-.259.662.662,0,0,1-1.247,0,.511.511,0,0,0-.452.259,1.072,1.072,0,0,0,.067,1.023,3.427,3.427,0,0,0,.958.978h.1a4.219,4.219,0,0,0,.383-.3,2.649,2.649,0,0,0,.575-.675A1.076,1.076,0,0,0,1013.74,389.9Zm12.862,0a.512.512,0,0,0-.454-.259.662.662,0,0,1-1.247,0,.511.511,0,0,0-.452.259,1.072,1.072,0,0,0,.067,1.023,3.427,3.427,0,0,0,.958.978h.1a4.106,4.106,0,0,0,.383-.3,2.645,2.645,0,0,0,.575-.675A1.076,1.076,0,0,0,1026.6,389.9Zm12.863,0a.512.512,0,0,0-.454-.259.662.662,0,0,1-1.247,0,.511.511,0,0,0-.452.259,1.072,1.072,0,0,0,.067,1.023,3.435,3.435,0,0,0,.959.978h.1a4.17,4.17,0,0,0,.383-.3,2.647,2.647,0,0,0,.575-.675A1.075,1.075,0,0,0,1039.465,389.9Zm-45.019-8.277a.512.512,0,0,0-.454-.259.662.662,0,0,1-1.247,0,.51.51,0,0,0-.452.259,1.071,1.071,0,0,0,.067,1.022,3.405,3.405,0,0,0,.959.978h.1a4.1,4.1,0,0,0,.383-.3,2.65,2.65,0,0,0,.575-.675A1.074,1.074,0,0,0,994.446,381.62Zm12.863,0a.512.512,0,0,0-.454-.259.662.662,0,0,1-1.247,0,.51.51,0,0,0-.452.259,1.071,1.071,0,0,0,.067,1.022,3.405,3.405,0,0,0,.959.978h.1a4.064,4.064,0,0,0,.383-.3,2.636,2.636,0,0,0,.575-.675A1.074,1.074,0,0,0,1007.309,381.62Zm12.863,0a.511.511,0,0,0-.453-.259.662.662,0,0,1-1.247,0,.51.51,0,0,0-.452.259,1.071,1.071,0,0,0,.067,1.022,3.4,3.4,0,0,0,.959.978h.1a3.987,3.987,0,0,0,.383-.3,2.635,2.635,0,0,0,.575-.675A1.074,1.074,0,0,0,1020.172,381.62Zm12.862,0a.511.511,0,0,0-.453-.259.662.662,0,0,1-1.247,0,.51.51,0,0,0-.452.259,1.071,1.071,0,0,0,.067,1.022,3.414,3.414,0,0,0,.958.978h.1a3.953,3.953,0,0,0,.383-.3,2.633,2.633,0,0,0,.575-.675A1.074,1.074,0,0,0,1033.034,381.62Zm-57.885,24.77a.5.5,0,0,0-.447-.259.7.7,0,0,0-.627.439c-.016-.024-.023-.055-.039-.079-.188.486-.368.964-.541,1.451v.008a4.207,4.207,0,0,0,.534.439h.1c.008-.008.181-.125.385-.3a3.027,3.027,0,0,0,.572-.674A1.079,1.079,0,0,0,975.149,406.39Zm12.866,0a.513.513,0,0,0-.454-.259.662.662,0,0,1-1.247,0,.511.511,0,0,0-.452.259,1.073,1.073,0,0,0,.067,1.023,3.405,3.405,0,0,0,.959.978h.1a4.258,4.258,0,0,0,.383-.3,2.646,2.646,0,0,0,.575-.675A1.075,1.075,0,0,0,988.015,406.39Zm12.863,0a.512.512,0,0,0-.454-.259.662.662,0,0,1-1.247,0,.512.512,0,0,0-.452.259,1.073,1.073,0,0,0,.067,1.023,3.407,3.407,0,0,0,.959.978h.1a4.238,4.238,0,0,0,.383-.3,2.634,2.634,0,0,0,.575-.675A1.075,1.075,0,0,0,1000.878,406.39Zm12.863,0a.513.513,0,0,0-.454-.259.662.662,0,0,1-1.247,0,.511.511,0,0,0-.452.259,1.072,1.072,0,0,0,.067,1.023,3.405,3.405,0,0,0,.958.978h.1a4.219,4.219,0,0,0,.383-.3,2.637,2.637,0,0,0,.575-.675A1.076,1.076,0,0,0,1013.74,406.39Zm12.862,0a.512.512,0,0,0-.454-.259.662.662,0,0,1-1.247,0,.511.511,0,0,0-.452.259,1.072,1.072,0,0,0,.067,1.023,3.405,3.405,0,0,0,.958.978h.1a4.106,4.106,0,0,0,.383-.3,2.632,2.632,0,0,0,.575-.675A1.076,1.076,0,0,0,1026.6,406.39Zm12.863,0a.512.512,0,0,0-.454-.259.662.662,0,0,1-1.247,0,.511.511,0,0,0-.452.259,1.072,1.072,0,0,0,.067,1.023,3.413,3.413,0,0,0,.959.978h.1a4.17,4.17,0,0,0,.383-.3,2.634,2.634,0,0,0,.575-.675A1.075,1.075,0,0,0,1039.465,406.39Zm-57.882-8.277a.511.511,0,0,0-.453-.259.662.662,0,0,1-1.247,0,.511.511,0,0,0-.452.259,1.073,1.073,0,0,0,.067,1.023,3.427,3.427,0,0,0,.958.978h.1a4.22,4.22,0,0,0,.383-.3,2.664,2.664,0,0,0,.575-.675A1.073,1.073,0,0,0,981.583,398.113Zm12.863,0a.513.513,0,0,0-.454-.259.662.662,0,0,1-1.247,0,.511.511,0,0,0-.452.259,1.073,1.073,0,0,0,.067,1.023,3.429,3.429,0,0,0,.959.978h.1a4.248,4.248,0,0,0,.383-.3,2.664,2.664,0,0,0,.575-.675A1.076,1.076,0,0,0,994.446,398.113Zm12.863,0a.512.512,0,0,0-.454-.259.662.662,0,0,1-1.247,0,.511.511,0,0,0-.452.259,1.073,1.073,0,0,0,.067,1.023,3.429,3.429,0,0,0,.959.978h.1a4.209,4.209,0,0,0,.383-.3,2.65,2.65,0,0,0,.575-.675A1.076,1.076,0,0,0,1007.309,398.113Zm12.863,0a.512.512,0,0,0-.453-.259.662.662,0,0,1-1.247,0,.511.511,0,0,0-.452.259,1.073,1.073,0,0,0,.067,1.023,3.425,3.425,0,0,0,.959.978h.1a4.126,4.126,0,0,0,.383-.3,2.649,2.649,0,0,0,.575-.675A1.075,1.075,0,0,0,1020.172,398.113Zm12.862,0a.512.512,0,0,0-.453-.259.662.662,0,0,1-1.247,0,.511.511,0,0,0-.452.259,1.073,1.073,0,0,0,.067,1.023,3.437,3.437,0,0,0,.958.978h.1a4.089,4.089,0,0,0,.383-.3,2.647,2.647,0,0,0,.575-.675A1.076,1.076,0,0,0,1033.034,398.113Zm12.561-.238a.45.45,0,0,0-.149-.023.667.667,0,0,1-1.254,0,.513.513,0,0,0-.447.259,1.079,1.079,0,0,0,.063,1.027,3.476,3.476,0,0,0,.965.98h.1c.008-.016.181-.126.376-.305a2.563,2.563,0,0,0,.581-.674,1.4,1.4,0,0,0,.141-.392v-.008Zm-70.443,25.008a.51.51,0,0,0-.453-.259.662.662,0,0,1-1.247,0,.511.511,0,0,0-.452.259,1.073,1.073,0,0,0,.067,1.023,3.425,3.425,0,0,0,.959.978h.1a4.446,4.446,0,0,0,.383-.3,2.662,2.662,0,0,0,.575-.674A1.074,1.074,0,0,0,975.152,422.883Zm12.863,0a.513.513,0,0,0-.454-.259.662.662,0,0,1-1.247,0,.511.511,0,0,0-.452.259,1.073,1.073,0,0,0,.067,1.023,3.427,3.427,0,0,0,.959.978h.1a4.362,4.362,0,0,0,.383-.3,2.656,2.656,0,0,0,.575-.674A1.075,1.075,0,0,0,988.015,422.883Zm12.863,0a.512.512,0,0,0-.454-.259.662.662,0,0,1-1.247,0,.512.512,0,0,0-.452.259,1.073,1.073,0,0,0,.067,1.023,3.429,3.429,0,0,0,.959.978h.1a4.341,4.341,0,0,0,.383-.3,2.644,2.644,0,0,0,.575-.674A1.076,1.076,0,0,0,1000.878,422.883Zm12.863,0a.513.513,0,0,0-.454-.259.662.662,0,0,1-1.247,0,.511.511,0,0,0-.452.259,1.072,1.072,0,0,0,.067,1.023,3.427,3.427,0,0,0,.958.978h.1a4.321,4.321,0,0,0,.383-.3,2.647,2.647,0,0,0,.575-.674A1.076,1.076,0,0,0,1013.74,422.883Zm12.862,0a.512.512,0,0,0-.454-.259.662.662,0,0,1-1.247,0,.511.511,0,0,0-.452.259,1.072,1.072,0,0,0,.067,1.023,3.427,3.427,0,0,0,.958.978h.1a4.2,4.2,0,0,0,.383-.3,2.642,2.642,0,0,0,.575-.674A1.076,1.076,0,0,0,1026.6,422.883Zm12.863,0a.512.512,0,0,0-.454-.259.662.662,0,0,1-1.247,0,.511.511,0,0,0-.452.259,1.072,1.072,0,0,0,.067,1.023,3.435,3.435,0,0,0,.959.978h.1a4.27,4.27,0,0,0,.383-.3,2.644,2.644,0,0,0,.575-.674A1.075,1.075,0,0,0,1039.465,422.883Zm-57.882-8.277a.511.511,0,0,0-.453-.259.662.662,0,0,1-1.247,0,.511.511,0,0,0-.452.259,1.073,1.073,0,0,0,.067,1.023,3.426,3.426,0,0,0,.958.978h.1a4.229,4.229,0,0,0,.383-.3,2.665,2.665,0,0,0,.575-.675A1.073,1.073,0,0,0,981.583,414.606Zm12.863,0a.513.513,0,0,0-.454-.259.662.662,0,0,1-1.247,0,.511.511,0,0,0-.452.259,1.073,1.073,0,0,0,.067,1.023,3.427,3.427,0,0,0,.959.978h.1a4.257,4.257,0,0,0,.383-.3,2.665,2.665,0,0,0,.575-.675A1.075,1.075,0,0,0,994.446,414.606Zm12.863,0a.512.512,0,0,0-.454-.259.662.662,0,0,1-1.247,0,.511.511,0,0,0-.452.259,1.073,1.073,0,0,0,.067,1.023,3.427,3.427,0,0,0,.959.978h.1a4.218,4.218,0,0,0,.383-.3,2.651,2.651,0,0,0,.575-.675A1.075,1.075,0,0,0,1007.309,414.606Zm12.863,0a.512.512,0,0,0-.453-.259.662.662,0,0,1-1.247,0,.511.511,0,0,0-.452.259,1.073,1.073,0,0,0,.067,1.023,3.424,3.424,0,0,0,.959.978h.1a4.135,4.135,0,0,0,.383-.3,2.65,2.65,0,0,0,.575-.675A1.075,1.075,0,0,0,1020.172,414.606Zm12.862,0a.512.512,0,0,0-.453-.259.662.662,0,0,1-1.247,0,.511.511,0,0,0-.452.259,1.073,1.073,0,0,0,.067,1.023,3.436,3.436,0,0,0,.958.978h.1a4.1,4.1,0,0,0,.383-.3,2.648,2.648,0,0,0,.575-.675A1.075,1.075,0,0,0,1033.034,414.606Zm12.412-.258a.668.668,0,0,1-1.254,0,.513.513,0,0,0-.447.259,1.063,1.063,0,0,0,.063,1.019,3.344,3.344,0,0,0,.965.98h.1c.337-.619.683-1.294,1.012-2.006A.5.5,0,0,0,1045.446,414.348Zm-70.294,25.028a.51.51,0,0,0-.453-.259.662.662,0,0,1-1.247,0,.511.511,0,0,0-.452.259,1.073,1.073,0,0,0,.067,1.023,3.425,3.425,0,0,0,.959.978h.1a4.338,4.338,0,0,0,.383-.3,2.665,2.665,0,0,0,.575-.675A1.073,1.073,0,0,0,975.152,439.376Zm12.863,0a.513.513,0,0,0-.454-.259.662.662,0,0,1-1.247,0,.511.511,0,0,0-.452.259,1.073,1.073,0,0,0,.067,1.023,3.427,3.427,0,0,0,.959.978h.1a4.258,4.258,0,0,0,.383-.3,2.659,2.659,0,0,0,.575-.675A1.075,1.075,0,0,0,988.015,439.376Zm12.863,0a.512.512,0,0,0-.454-.259.662.662,0,0,1-1.247,0,.512.512,0,0,0-.452.259,1.073,1.073,0,0,0,.067,1.023,3.429,3.429,0,0,0,.959.978h.1a4.238,4.238,0,0,0,.383-.3,2.647,2.647,0,0,0,.575-.675A1.075,1.075,0,0,0,1000.878,439.376Zm12.863,0a.513.513,0,0,0-.454-.259.662.662,0,0,1-1.247,0,.511.511,0,0,0-.452.259,1.072,1.072,0,0,0,.067,1.023,3.427,3.427,0,0,0,.958.978h.1a4.219,4.219,0,0,0,.383-.3,2.65,2.65,0,0,0,.575-.675A1.076,1.076,0,0,0,1013.74,439.376Zm12.862,0a.512.512,0,0,0-.454-.259.662.662,0,0,1-1.247,0,.511.511,0,0,0-.452.259,1.072,1.072,0,0,0,.067,1.023,3.427,3.427,0,0,0,.958.978h.1a4.106,4.106,0,0,0,.383-.3,2.645,2.645,0,0,0,.575-.675A1.076,1.076,0,0,0,1026.6,439.376Zm12.863,0a.512.512,0,0,0-.454-.259.662.662,0,0,1-1.247,0,.511.511,0,0,0-.452.259,1.072,1.072,0,0,0,.067,1.023,3.435,3.435,0,0,0,.959.978h.1a4.17,4.17,0,0,0,.383-.3,2.647,2.647,0,0,0,.575-.675A1.075,1.075,0,0,0,1039.465,439.376ZM968.721,431.1a.51.51,0,0,0-.453-.259.662.662,0,0,1-1.247,0,.51.51,0,0,0-.452.259,1.073,1.073,0,0,0,.067,1.023,3.41,3.41,0,0,0,.959.978h.1a4.2,4.2,0,0,0,.383-.3,2.647,2.647,0,0,0,.575-.675A1.074,1.074,0,0,0,968.721,431.1Zm12.863,0a.51.51,0,0,0-.453-.259.662.662,0,0,1-1.247,0,.51.51,0,0,0-.452.259,1.073,1.073,0,0,0,.067,1.023,3.409,3.409,0,0,0,.958.978h.1a4.081,4.081,0,0,0,.383-.3,2.651,2.651,0,0,0,.575-.675A1.072,1.072,0,0,0,981.583,431.1Zm12.863,0a.512.512,0,0,0-.454-.259.662.662,0,0,1-1.247,0,.51.51,0,0,0-.452.259,1.073,1.073,0,0,0,.067,1.023,3.411,3.411,0,0,0,.959.978h.1a4.107,4.107,0,0,0,.383-.3,2.651,2.651,0,0,0,.575-.675A1.074,1.074,0,0,0,994.446,431.1Zm12.863,0a.512.512,0,0,0-.454-.259.662.662,0,0,1-1.247,0,.51.51,0,0,0-.452.259,1.073,1.073,0,0,0,.067,1.023,3.411,3.411,0,0,0,.959.978h.1a4.07,4.07,0,0,0,.383-.3,2.636,2.636,0,0,0,.575-.675A1.074,1.074,0,0,0,1007.309,431.1Zm12.863,0a.511.511,0,0,0-.453-.259.662.662,0,0,1-1.247,0,.51.51,0,0,0-.452.259,1.073,1.073,0,0,0,.067,1.023,3.407,3.407,0,0,0,.959.978h.1a3.993,3.993,0,0,0,.383-.3,2.636,2.636,0,0,0,.575-.675A1.074,1.074,0,0,0,1020.172,431.1Zm12.862,0a.511.511,0,0,0-.453-.259.662.662,0,0,1-1.247,0,.51.51,0,0,0-.452.259,1.073,1.073,0,0,0,.067,1.023,3.419,3.419,0,0,0,.958.978h.1a3.958,3.958,0,0,0,.383-.3,2.634,2.634,0,0,0,.575-.675A1.074,1.074,0,0,0,1033.034,431.1Zm10.672.1a1.1,1.1,0,0,0,.1.925.664.664,0,0,0,.079.125ZM962.29,455.871a.517.517,0,0,0-.454-.259.694.694,0,0,0-.62.439.9.9,0,0,0-.164-.235c-.118.674-.2,1.263-.283,1.749a3.444,3.444,0,0,0,.392.305h.1a4.632,4.632,0,0,0,.384-.3,2.548,2.548,0,0,0,.572-.682A1.064,1.064,0,0,0,962.29,455.871Zm12.862,0a.51.51,0,0,0-.453-.259.662.662,0,0,1-1.247,0,.51.51,0,0,0-.452.259,1.071,1.071,0,0,0,.067,1.022,3.4,3.4,0,0,0,.959.978h.1a4.168,4.168,0,0,0,.383-.3,2.652,2.652,0,0,0,.575-.675A1.072,1.072,0,0,0,975.152,455.87Zm12.863,0a.512.512,0,0,0-.454-.259.662.662,0,0,1-1.247,0,.51.51,0,0,0-.452.259,1.071,1.071,0,0,0,.067,1.022,3.4,3.4,0,0,0,.959.978h.1a4.094,4.094,0,0,0,.383-.3,2.646,2.646,0,0,0,.575-.675A1.074,1.074,0,0,0,988.015,455.87Zm12.863,0a.512.512,0,0,0-.454-.259.662.662,0,0,1-1.247,0,.511.511,0,0,0-.452.259,1.072,1.072,0,0,0,.067,1.022,3.406,3.406,0,0,0,.959.978h.1a4.076,4.076,0,0,0,.383-.3,2.635,2.635,0,0,0,.575-.675A1.074,1.074,0,0,0,1000.878,455.87Zm12.863,0a.512.512,0,0,0-.454-.259.662.662,0,0,1-1.247,0,.51.51,0,0,0-.452.259,1.071,1.071,0,0,0,.067,1.022,3.4,3.4,0,0,0,.958.978h.1a4.058,4.058,0,0,0,.383-.3,2.637,2.637,0,0,0,.575-.675A1.074,1.074,0,0,0,1013.74,455.87Zm12.862,0a.511.511,0,0,0-.454-.259.662.662,0,0,1-1.247,0,.51.51,0,0,0-.452.259,1.071,1.071,0,0,0,.067,1.022,3.4,3.4,0,0,0,.958.978h.1a3.953,3.953,0,0,0,.383-.3,2.632,2.632,0,0,0,.575-.675A1.074,1.074,0,0,0,1026.6,455.87Zm12.863,0a.511.511,0,0,0-.454-.259.662.662,0,0,1-1.247,0,.51.51,0,0,0-.452.259,1.071,1.071,0,0,0,.067,1.022,3.412,3.412,0,0,0,.959.978h.1a4.012,4.012,0,0,0,.383-.3,2.634,2.634,0,0,0,.575-.675A1.074,1.074,0,0,0,1039.465,455.87Zm-70.745-8.277a.511.511,0,0,0-.453-.259.662.662,0,0,1-1.247,0,.511.511,0,0,0-.452.259,1.073,1.073,0,0,0,.067,1.023,3.428,3.428,0,0,0,.959.978h.1a4.36,4.36,0,0,0,.383-.3,2.661,2.661,0,0,0,.575-.675A1.075,1.075,0,0,0,968.721,447.592Zm12.863,0a.511.511,0,0,0-.453-.259.662.662,0,0,1-1.247,0,.511.511,0,0,0-.452.259,1.073,1.073,0,0,0,.067,1.023,3.428,3.428,0,0,0,.958.978h.1a4.237,4.237,0,0,0,.383-.3,2.665,2.665,0,0,0,.575-.675A1.073,1.073,0,0,0,981.583,447.592Zm12.863,0a.513.513,0,0,0-.454-.259.662.662,0,0,1-1.247,0,.511.511,0,0,0-.452.259,1.073,1.073,0,0,0,.067,1.023,3.429,3.429,0,0,0,.959.978h.1a4.265,4.265,0,0,0,.383-.3,2.665,2.665,0,0,0,.575-.675A1.076,1.076,0,0,0,994.446,447.592Zm12.863,0a.512.512,0,0,0-.454-.259.662.662,0,0,1-1.247,0,.511.511,0,0,0-.452.259,1.073,1.073,0,0,0,.067,1.023,3.429,3.429,0,0,0,.959.978h.1a4.225,4.225,0,0,0,.383-.3,2.65,2.65,0,0,0,.575-.675A1.076,1.076,0,0,0,1007.309,447.592Zm12.863,0a.512.512,0,0,0-.453-.259.662.662,0,0,1-1.247,0,.511.511,0,0,0-.452.259,1.073,1.073,0,0,0,.067,1.023,3.426,3.426,0,0,0,.959.978h.1a4.142,4.142,0,0,0,.383-.3,2.649,2.649,0,0,0,.575-.675A1.075,1.075,0,0,0,1020.172,447.592Zm12.862,0a.512.512,0,0,0-.453-.259.662.662,0,0,1-1.247,0,.511.511,0,0,0-.452.259,1.073,1.073,0,0,0,.067,1.023,3.437,3.437,0,0,0,.958.978h.1a4.1,4.1,0,0,0,.383-.3,2.647,2.647,0,0,0,.575-.675A1.075,1.075,0,0,0,1033.034,447.592Zm12.863,0a.511.511,0,0,0-.453-.259.662.662,0,0,1-1.247,0,.512.512,0,0,0-.452.259,1.073,1.073,0,0,0,.067,1.023,3.439,3.439,0,0,0,.959.978h.1a4.131,4.131,0,0,0,.383-.3,2.642,2.642,0,0,0,.575-.675A1.075,1.075,0,0,0,1045.9,447.592Z" transform="translate(-960.5 -360.258)" fill="#fff"/>
            <path id="Trazado_190284" data-name="Trazado 190284" d="M1071.721,406.363c-.813-3.388-2.692-6.479-4.348-9.507-1.747-3.2-3.581-6.341-5.463-9.46-.067-.111-.135-.221-.2-.333-.313-1-.762-1.972-1.141-2.936-.487-1.238-1.009-2.462-1.489-3.7a.037.037,0,0,0-.07.021c.393,1.292.785,2.582,1.256,3.849.121.325.242.658.365.99-.635-1.04-1.275-2.077-1.932-3.1-1.118-1.747-2.3-3.454-3.418-5.2a.04.04,0,0,0-.067.042c1.795,3.064,3.518,6.171,5.308,9.239s3.542,6.155,5.215,9.286q1.245,2.328,2.413,4.7a39.928,39.928,0,0,1,2.016,4.58,14.792,14.792,0,0,1,.065,9.407,47.169,47.169,0,0,1-4.841,9.71c-.074.126.119.275.211.154C1069.441,419.039,1073.317,413,1071.721,406.363Z" transform="translate(-983.542 -363.209)" fill="#283237"/>
          </g>
          <g id="Grupo_134513" data-name="Grupo 134513" transform="translate(0 73.929)">
            <g id="Grupo_134512" data-name="Grupo 134512" transform="translate(0 0.214)">
              <path id="Trazado_190285" data-name="Trazado 190285" d="M1097.38,482.886c-5.66,7.815-20.735,9.071-58.393,15.794-5.211.931-21.671-34.078-16.157-35.357,6.945-1.612,34.244-6.363,36.285-6.458C1076.324,456.061,1101.22,477.585,1097.38,482.886Z" transform="translate(-975.196 -456.843)" fill="#a34889"/>
              <g id="Grupo_134511" data-name="Grupo 134511" transform="translate(0 4.893)">
                <path id="Trazado_190286" data-name="Trazado 190286" d="M1015.353,463.315s-15.943,2.137-23.97,5.852c-10.75,4.975-17.983,13.7-20.793,17.535-5.867,8.011-14.512,31.436-8.2,35.1,5.714,3.32,13.342-21.072,13.342-21.072s-11.881,23.586-4.266,26.318,14.859-26.086,14.859-26.086-11.664,24.507-3.365,26.082c6.271,1.19,14.3-24.541,14.3-24.541s-9.879,21.134-3.482,22.635c7.069,1.66,15.972-21.626,15.972-21.626,16.9,1.08,25.393-5.319,30.89-10.591C1041.972,491.648,1015.353,463.315,1015.353,463.315Z" transform="translate(-960.182 -463.315)" fill="#a34889"/>
                <g id="Grupo_134510" data-name="Grupo 134510" transform="translate(8.758 28.964)">
                  <path id="Trazado_190287" data-name="Trazado 190287" d="M982.145,501.661c-1.5,2.72-3.029,5.463-4.277,8.307s-2.4,5.733-3.379,8.68a53.029,53.029,0,0,0-2.716,11.83c1.324-7.1,5.638-17.35,6.887-20.194s2.35-5.739,3.595-8.578C982.286,501.633,982.18,501.6,982.145,501.661Z" transform="translate(-971.767 -501.627)" fill="#283237"/>
                  <path id="Trazado_190288" data-name="Trazado 190288" d="M996.149,507.381c-1.76,3.556-3.637,7.022-5.241,10.657-1.6,3.617-2.792,7.188-4.134,10.9-.1.286.084.248.2-.036,1.489-3.661,3.149-6.93,4.681-10.573s2.924-7.347,4.581-10.917C996.263,507.361,996.175,507.327,996.149,507.381Z" transform="translate(-975.422 -503.025)" fill="#283237"/>
                  <path id="Trazado_190289" data-name="Trazado 190289" d="M1009.627,510.171a88.587,88.587,0,0,0-6.766,16.906c-.091.288.147.211.256-.077,2.143-5.663,3.784-10.121,6.7-16.727C1009.856,510.17,1009.689,510.059,1009.627,510.171Z" transform="translate(-979.349 -503.701)" fill="#283237"/>
                </g>
              </g>
            </g>
            <path id="Trazado_190290" data-name="Trazado 190290" d="M1087.8,461.015c-2.505-1.585-9.593-5.309-16.566-4.277a.061.061,0,0,0,0,.122c5.746-.027,13.954,2.92,16.507,4.257A.058.058,0,0,0,1087.8,461.015Z" transform="translate(-987.265 -456.56)" fill="#283237"/>
          </g>
        </g>
        <g id="Grupo_134533" data-name="Grupo 134533" transform="translate(33.783)">
          <g id="Grupo_134531" data-name="Grupo 134531" transform="translate(6.491 12.558)">
            <g id="Grupo_134530" data-name="Grupo 134530" transform="translate(0)">
              <g id="Grupo_134515" data-name="Grupo 134515" transform="translate(7.979 37.598)">
                <path id="Trazado_190291" data-name="Trazado 190291" d="M1024.113,352.645c.381,1.449,7.6,10.719,14.253,10.224,2.167-.166,1.794-12.033,1.794-12.033l.173-.882,2.408-12.354-14.677-8.858-2.118-1.167s-.436,3.423-.937,7.691c-.024.2-.048.4-.071.608-.035.24-.07.468-.092.694-.083.637-.165,1.287-.233,1.936-.054.494-.109.974-.147,1.5s-.09,1.029-.141,1.551A80.914,80.914,0,0,0,1024.113,352.645Z" transform="translate(-1024.008 -327.575)" fill="#a34889"/>
                <path id="Trazado_190292" data-name="Trazado 190292" d="M1025.333,335.266a25.25,25.25,0,0,0,15.323,14.688l2.408-12.354-14.677-8.858-2.118-1.167S1025.833,331,1025.333,335.266Z" transform="translate(-1024.331 -327.575)" fill="#283237"/>
              </g>
              <g id="Grupo_134529" data-name="Grupo 134529">
                <path id="Trazado_190293" data-name="Trazado 190293" d="M1059.941,305.2c3.562,21.8-9.093,26.395-13.795,27.158-4.268.693-18.89,2.508-24.685-18.808s3.216-29.863,12.894-31.963S1056.38,283.4,1059.941,305.2Z" transform="translate(-1014.962 -278.634)" fill="#a34889"/>
                <g id="Grupo_134522" data-name="Grupo 134522" transform="translate(23.9 19.933)">
                  <path id="Trazado_190294" data-name="Trazado 190294" d="M1065.05,306.432a14.573,14.573,0,0,1-1.518-.148,2.462,2.462,0,0,1-1.52-.446.785.785,0,0,1-.105-.953,1.951,1.951,0,0,1,1.859-.665,2.863,2.863,0,0,1,1.9.807A.838.838,0,0,1,1065.05,306.432Z" transform="translate(-1049.149 -304.209)" fill="#283237"/>
                  <path id="Trazado_190295" data-name="Trazado 190295" d="M1047.084,308.532a14.713,14.713,0,0,0,1.449-.479,2.464,2.464,0,0,0,1.384-.77.784.784,0,0,0-.107-.953,1.947,1.947,0,0,0-1.96-.24,2.864,2.864,0,0,0-1.674,1.205A.839.839,0,0,0,1047.084,308.532Z" transform="translate(-1045.307 -304.632)" fill="#283237"/>
                  <g id="Grupo_134517" data-name="Grupo 134517" transform="translate(0 7.734)">
                    <g id="Grupo_134516" data-name="Grupo 134516" transform="translate(2.158)">
                      <path id="Trazado_190296" data-name="Trazado 190296" d="M1051.743,316.259c-.02-.055-.107.087-.1.147.249,1.484.284,3.226-1,3.9-.04.021-.025.1.023.082C1052.286,319.937,1052.216,317.625,1051.743,316.259Z" transform="translate(-1048.582 -314.88)" fill="#283237"/>
                      <path id="Trazado_190297" data-name="Trazado 190297" d="M1049.542,314.441c-2.422.141-1.96,4.975.284,4.844C1052.034,319.156,1051.572,314.323,1049.542,314.441Z" transform="translate(-1047.923 -314.439)" fill="#283237"/>
                    </g>
                    <path id="Trazado_190298" data-name="Trazado 190298" d="M1047.921,314.889c-.4.314-.764.836-1.268.935-.583.114-1.077-.349-1.507-.8-.045-.047-.083,0-.077.064.074.928.522,1.843,1.527,1.886.918.04,1.49-.842,1.632-1.8C1048.254,315,1048.081,314.762,1047.921,314.889Z" transform="translate(-1045.068 -314.54)" fill="#283237"/>
                  </g>
                  <g id="Grupo_134519" data-name="Grupo 134519" transform="translate(13.859 5.575)">
                    <g id="Grupo_134518" data-name="Grupo 134518" transform="translate(0 0.367)">
                      <path id="Trazado_190299" data-name="Trazado 190299" d="M1063.432,314.319c.007-.058.123.06.127.122.083,1.5.432,3.209,1.832,3.588.043.011.045.087-.005.085C1063.711,318.026,1063.27,315.755,1063.432,314.319Z" transform="translate(-1063.401 -312.614)" fill="#283237"/>
                      <path id="Trazado_190300" data-name="Trazado 190300" d="M1064.636,312.092c2.394-.395,3.006,4.422.788,4.787C1063.242,317.238,1062.63,312.422,1064.636,312.092Z" transform="translate(-1063.404 -312.069)" fill="#283237"/>
                    </g>
                    <path id="Trazado_190301" data-name="Trazado 190301" d="M1066.341,312.162c.413.206.848.623,1.307.594.531-.032.854-.6,1.127-1.145.029-.057.072-.021.082.042.142.918-.04,1.915-.9,2.2-.786.264-1.48-.451-1.815-1.34C1066.077,312.354,1066.175,312.078,1066.341,312.162Z" transform="translate(-1064.064 -311.583)" fill="#283237"/>
                  </g>
                  <path id="Trazado_190302" data-name="Trazado 190302" d="M1052.639,331.932c.377.334.76.8,1.307.819a3.968,3.968,0,0,0,1.6-.458.053.053,0,0,1,.07.073,2.026,2.026,0,0,1-1.867.911,1.6,1.6,0,0,1-1.247-1.269C1052.47,331.922,1052.584,331.884,1052.639,331.932Z" transform="translate(-1046.88 -310.968)" fill="#283237"/>
                  <g id="Grupo_134520" data-name="Grupo 134520" transform="translate(6.991)">
                    <path id="Trazado_190303" data-name="Trazado 190303" d="M1059.411,318.778s.551,2.211.665,3.269a5.728,5.728,0,0,1-5.728-1.114c-.1-.085.038-.219.141-.163a7.633,7.633,0,0,0,4.737.822c.043-.3-1.071-3.754-.9-3.785a9.307,9.307,0,0,1,2.462.286c-1.015-4.638-2.765-9.076-3.707-13.709a.145.145,0,0,1,.269-.1c2.164,4.522,3.449,9.833,4.62,14.6C1062.119,319.473,1059.854,318.913,1059.411,318.778Z" transform="translate(-1054.316 -304.209)" fill="#283237"/>
                  </g>
                  <g id="Grupo_134521" data-name="Grupo 134521" transform="translate(6.625 16.611)">
                    <path id="Trazado_190304" data-name="Trazado 190304" d="M1058.5,327.452a5.5,5.5,0,0,1-2.042,1.895,2.473,2.473,0,0,1-1.489.227c-1.108-.188-1.223-1.179-1.1-2.047a5.946,5.946,0,0,1,.369-1.345A7.128,7.128,0,0,0,1058.5,327.452Z" transform="translate(-1053.831 -326.181)" fill="#283237"/>
                    <path id="Trazado_190305" data-name="Trazado 190305" d="M1056.46,329.78a2.473,2.473,0,0,1-1.489.227c-1.108-.188-1.223-1.179-1.1-2.047A2.556,2.556,0,0,1,1056.46,329.78Z" transform="translate(-1053.831 -326.615)" fill="#f09eb9"/>
                  </g>
                </g>
                <g id="Grupo_134524" data-name="Grupo 134524" transform="translate(1.614)">
                  <g id="Grupo_134523" data-name="Grupo 134523">
                    <path id="Trazado_190306" data-name="Trazado 190306" d="M1021.122,311.663c4.173.367,4.877-9.188,4.877-9.188s17.584-3.673,18.537-18.139a24.4,24.4,0,0,0,12.809,12.875s-1.219-15.775-13.86-18.367c0,0-15.758-5.067-24.026,7.6S1018.32,311.417,1021.122,311.663Z" transform="translate(-1015.589 -277.842)" fill="#283237"/>
                  </g>
                  <path id="Trazado_190307" data-name="Trazado 190307" d="M1049.044,285.018a15.679,15.679,0,0,1-.54,6.608,16.348,16.348,0,0,1-3.119,5.946,13.95,13.95,0,0,1-1.149,1.241l-.591.6c-.213.184-.436.358-.657.531-.447.342-.879.7-1.337,1.027-.478.294-.962.577-1.448.854-.243.137-.481.285-.729.412l-.769.331-1.532.656c-1.057.339-2.131.622-3.2.887,1-.482,2.028-.855,3-1.339l1.438-.769.717-.382c.229-.143.447-.305.67-.457.442-.31.886-.615,1.336-.908.424-.328.821-.692,1.232-1.035l.613-.518.551-.582a13.175,13.175,0,0,0,1.072-1.188,18.728,18.728,0,0,0,3.165-5.551,19.453,19.453,0,0,0,.873-3.118A18.922,18.922,0,0,0,1049.044,285.018Z" transform="translate(-1020.076 -279.593)" fill="#283237"/>
                </g>
                <g id="Grupo_134527" data-name="Grupo 134527" transform="translate(0 30.359)">
                  <g id="Grupo_134525" data-name="Grupo 134525" transform="translate(0.928)">
                    <path id="Trazado_190308" data-name="Trazado 190308" d="M1023.99,322.926s-5.327-6.512-8.317-4.562,1.377,11.643,5.143,12.73a3.735,3.735,0,0,0,4.839-2.379Z" transform="translate(-1014.681 -317.999)" fill="#bc6555"/>
                    <path id="Trazado_190309" data-name="Trazado 190309" d="M1017.725,322.116c-.059,0-.064.082-.012.1,2.647.847,4.178,3.125,5.312,5.523a2.062,2.062,0,0,0-3.119-.33c-.063.053.008.153.079.132a2.3,2.3,0,0,1,2.582.609,11.083,11.083,0,0,1,1.362,1.948c.137.221.543.067.436-.191-.008-.019-.018-.039-.026-.058C1024.157,326.57,1021.266,322.18,1017.725,322.116Z" transform="translate(-1015.412 -319.004)" fill="#283237"/>
                  </g>
                  <g id="Grupo_134526" data-name="Grupo 134526" transform="translate(5.634 9.84)">
                    <path id="Trazado_190310" data-name="Trazado 190310" d="M1024.954,333.521a.9.9,0,1,1-.9-.9A.9.9,0,0,1,1024.954,333.521Z" transform="translate(-1021.456 -331.408)" fill="#fff"/>
                    <circle id="Elipse_5207" data-name="Elipse 5207" cx="0.646" cy="0.646" r="0.646" fill="#fff"/>
                  </g>
                  <path id="Rectángulo_42258" data-name="Rectángulo 42258" d="M.473,0H1.807a.472.472,0,0,1,.472.472v0a.473.473,0,0,1-.473.473H.473A.473.473,0,0,1,0,.473v0A.473.473,0,0,1,.473,0Z" transform="matrix(0.996, 0.086, -0.086, 0.996, 0.143, 1.778)" fill="#f7c84e"/>
                  <rect id="Rectángulo_42259" data-name="Rectángulo 42259" width="2.279" height="0.945" rx="0.473" transform="translate(0 3.545) rotate(-7.322)" fill="#f7c84e"/>
                </g>
                <g id="Grupo_134528" data-name="Grupo 134528" transform="translate(0.084 16.625)">
                  <path id="Trazado_190311" data-name="Trazado 190311" d="M1014.819,304.72l-1.253,2,6.418,5.8,2.724-4.515Zm4.909,5.575-4.487-3.6.281-.473,5.194,2.5Z" transform="translate(-1013.566 -301.025)" fill="#efc949"/>
                  <path id="Trazado_190312" data-name="Trazado 190312" d="M1015.986,299.832l-.407,2.326,8.131,2.955.823-5.209Zm6.648,3.315-5.514-1.649.082-.544,5.754.36Z" transform="translate(-1014.057 -299.832)" fill="#efc949"/>
                </g>
              </g>
            </g>
          </g>
          <g id="Grupo_134532" data-name="Grupo 134532">
            <path id="Trazado_190313" data-name="Trazado 190313" d="M1021.923,277.387c1.684-.627,3.282-10.033-2.9-14.514-6.089-4.413-14.1.638-10.781,8.345C1010.34,276.09,1018.36,278.716,1021.923,277.387Z" transform="translate(-1005.501 -261.231)" fill="#283237"/>
            <path id="Trazado_190314" data-name="Trazado 190314" d="M1009.746,262.669a10.522,10.522,0,0,0-3.566,5.963,6.347,6.347,0,0,0,1.875,6.06,12.823,12.823,0,0,0,6.143,3.005,19.589,19.589,0,0,0,3.53.433,9.715,9.715,0,0,0,3.562-.392,8.548,8.548,0,0,1-3.536,1.049,15.839,15.839,0,0,1-3.735-.059,12.372,12.372,0,0,1-6.889-3.067,7.068,7.068,0,0,1-1.964-7.268A9.288,9.288,0,0,1,1009.746,262.669Z" transform="translate(-1004.868 -261.582)" fill="#283237"/>
          </g>
        </g>
        <g id="Grupo_134547" data-name="Grupo 134547" transform="translate(3.262 2.777)">
          <g id="Grupo_134540" data-name="Grupo 134540" transform="translate(79.414 0)">
            <g id="Grupo_134535" data-name="Grupo 134535" transform="translate(14.114 59.268)">
              <g id="Grupo_134534" data-name="Grupo 134534" transform="translate(2.33 8.358)">
                <path id="Trazado_190315" data-name="Trazado 190315" d="M1098.2,386.247l10.522-1.42-4.112-30.471-13.316,1.8Z" transform="translate(-1091.293 -354.356)" fill="#f7c84e"/>
                <path id="Trazado_190316" data-name="Trazado 190316" d="M1091.3,356.153l2.63,11.48,4.276,18.617,10.523-1.42-4.113-30.475Z" transform="translate(-1091.294 -354.356)" fill="#f7c84e"/>
                <path id="Trazado_190317" data-name="Trazado 190317" d="M1091.3,356.153l2.63,11.48,12.255-1.654-1.569-11.624Z" transform="translate(-1091.294 -354.356)" opacity="0.1"/>
              </g>
              <rect id="Rectángulo_42260" data-name="Rectángulo 42260" width="16.717" height="12.699" transform="translate(18.265 12.585) rotate(172.315)" fill="#efc949"/>
            </g>
            <g id="Grupo_134538" data-name="Grupo 134538">
              <g id="Grupo_134536" data-name="Grupo 134536" transform="translate(0 37.587)">
                <path id="Trazado_190318" data-name="Trazado 190318" d="M1071.943,335.438l13.042-.451-2.748-20.365-12.7,3.022Z" transform="translate(-1069.542 -314.622)" fill="#efc949"/>
              </g>
              <path id="Trazado_190319" data-name="Trazado 190319" d="M1094.37,298.182l4.056,30.053,21.943-.328,52.7,11.695-9.74-72.173-47.712,25.253Z" transform="translate(-1075.6 -265.52)" fill="#efc949"/>
              <ellipse id="Elipse_5208" data-name="Elipse 5208" cx="11.763" cy="36.595" rx="11.763" ry="36.595" transform="matrix(0.991, -0.134, 0.134, 0.991, 77.215, 3.146)" fill="#efc949"/>
              <ellipse id="Elipse_5209" data-name="Elipse 5209" cx="9.631" cy="32.487" rx="9.631" ry="32.487" transform="matrix(0.991, -0.134, 0.134, 0.991, 80.397, 6.227)" fill="#603eb7"/>
              <path id="Trazado_190320" data-name="Trazado 190320" d="M1183.446,312.219c.319,2.368.708,4.663,1.156,6.864a7.264,7.264,0,0,0,10.985-7.177l-.46-3.4a7.259,7.259,0,0,0-12.444-4.055C1182.829,306.949,1183.086,309.555,1183.446,312.219Z" transform="translate(-1097.148 -274.005)" fill="#efc949"/>
              <g id="Grupo_134537" data-name="Grupo 134537" transform="translate(6.759 25.697)">
                <path id="Trazado_190321" data-name="Trazado 190321" d="M1083.126,339.149l25.222-.872-5.314-39.383-24.551,5.845Z" transform="translate(-1078.482 -298.895)" fill="#f7c84e"/>
                <path id="Trazado_190322" data-name="Trazado 190322" d="M1083.126,339.149l25.222-.872-5.314-39.383-24.551,5.845Z" transform="translate(-1078.482 -298.895)" fill="#603eb7"/>
              </g>
              <path id="Trazado_190323" data-name="Trazado 190323" d="M1180.736,274.571a22.728,22.728,0,0,0-2.851,7.676,51.894,51.894,0,0,0-.977,8.175c-.094,1.372-.062,2.746-.079,4.119.057,1.371.076,2.745.167,4.114.114,1.367.178,2.74.333,4.1s.29,2.729.478,4.088a90.094,90.094,0,0,0,3.623,16.045,46.928,46.928,0,0,0,3.27,7.559,19.5,19.5,0,0,0,5.205,6.307,20.128,20.128,0,0,1-4.866-6.49A46.825,46.825,0,0,1,1182,322.7a95.645,95.645,0,0,1-3.42-15.964,98.012,98.012,0,0,1-1.074-16.294,51.963,51.963,0,0,1,.751-8.125A23.668,23.668,0,0,1,1180.736,274.571Z" transform="translate(-1095.72 -267.263)" opacity="0.2"/>
            </g>
            <g id="Grupo_134539" data-name="Grupo 134539" transform="translate(94.352 2.14)">
              <path id="Trazado_190324" data-name="Trazado 190324" d="M1211.405,267.735c-1.539,1.118-3.016,2.307-4.482,3.506s-2.9,2.434-4.331,3.677c-1.415,1.258-2.829,2.517-4.2,3.827l-2.053,1.966c-.663.679-1.346,1.336-1.993,2.034.775-.552,1.514-1.146,2.271-1.718l2.212-1.786c1.473-1.192,2.9-2.435,4.33-3.679,1.414-1.259,2.829-2.518,4.2-3.828S1210.1,269.119,1211.405,267.735Z" transform="translate(-1194.346 -267.735)" fill="#283237"/>
              <path id="Trazado_190325" data-name="Trazado 190325" d="M1199.987,340.423c2.05.623,4.12,1.154,6.193,1.671s4.156.987,6.242,1.447c2.089.44,4.179.879,6.283,1.252l3.156.557c1.059.155,2.111.339,3.176.469-1.024-.32-2.059-.586-3.088-.88l-3.105-.792c-2.071-.526-4.156-.987-6.242-1.445-2.089-.439-4.18-.879-6.284-1.251S1202.111,340.7,1199.987,340.423Z" transform="translate(-1195.722 -285.471)" fill="#283237"/>
              <path id="Trazado_190326" data-name="Trazado 190326" d="M1240.242,331.919c-3.121-.373-6.249-.652-9.378-.917s-6.26-.482-9.392-.689c-3.134-.187-6.268-.371-9.405-.49l-4.707-.175c-1.571-.027-3.14-.083-4.713-.085,1.56.2,3.125.336,4.686.505l4.692.414c3.128.274,6.26.482,9.393.688,3.134.185,6.267.37,9.406.488S1237.1,331.9,1240.242,331.919Z" transform="translate(-1196.371 -282.821)" fill="#283237"/>
              <path id="Trazado_190327" data-name="Trazado 190327" d="M1229.774,269.5c-2.75,1.613-5.449,3.3-8.139,5.008s-5.355,3.447-8.013,5.2c-2.647,1.769-5.293,3.54-7.9,5.365l-3.912,2.741c-1.287.94-2.589,1.855-3.862,2.817,1.38-.8,2.729-1.645,4.094-2.466l4.045-2.541c2.7-1.7,5.355-3.447,8.012-5.2,2.647-1.77,5.293-3.54,7.9-5.365S1227.22,271.405,1229.774,269.5Z" transform="translate(-1195.224 -268.165)" fill="#283237"/>
              <path id="Trazado_190328" data-name="Trazado 190328" d="M1201.629,311.445c3.663-.355,7.313-.8,10.961-1.263s7.285-.995,10.928-1.489c3.633-.562,7.272-1.089,10.9-1.686l5.44-.913c1.809-.335,3.622-.641,5.427-1-1.833.169-3.658.392-5.488.586l-5.474.675c-3.648.462-7.286.995-10.928,1.491-3.633.566-7.272,1.088-10.9,1.687S1205.241,310.74,1201.629,311.445Z" transform="translate(-1196.123 -276.85)" fill="#283237"/>
            </g>
          </g>
          <g id="Grupo_134543" data-name="Grupo 134543" transform="translate(0 75.005)">
            <path id="Trazado_190329" data-name="Trazado 190329" d="M989.575,376.546c-11.449,18.74-30.818,59.2-23.45,73.9,7.1,14.161,78.732-24.676,87.8-31.729,3.952-3.074-14.53-39.432-19.041-36.55-6.032,3.853-35.281,27.7-35.919,27.819-1.367.262,2.7-13.207,5.455-29.9C1008.424,355.786,997.805,363.076,989.575,376.546Z" transform="translate(-964.497 -364.117)" fill="#a34889"/>
            <g id="Grupo_134542" data-name="Grupo 134542" transform="translate(68.26 0.411)">
              <path id="Trazado_190330" data-name="Trazado 190330" d="M1104.8,367.451c2.686,3.161.4,6.8.4,6.8a8.848,8.848,0,0,1,4.764,3.674c1.81,3.163-2.356,7.388-2.356,7.388a10.9,10.9,0,0,1,4.407,4.676c1.428,3.2-2.167,8.064-2.167,8.064a9.567,9.567,0,0,1,1.286,6.552c-1.237,6.018-10.009,9.346-15.6,11.421-8.306,3.084-23.366,2.973-26.741,3.476l-14.008-35.626s22.251-16.678,29.156-18.258C1089.76,364.283,1101.79,363.9,1104.8,367.451Z" transform="translate(-1054.788 -364.661)" fill="#a34889"/>
              <g id="Grupo_134541" data-name="Grupo 134541" transform="translate(30.868 9.109)">
                <path id="Trazado_190331" data-name="Trazado 190331" d="M1114.7,376.711c-6.523-.068-12.712,1.8-19,3.305a.112.112,0,0,0,.055.217c6.231-1.574,12.694-1.891,18.976-3.214A.157.157,0,0,0,1114.7,376.711Z" transform="translate(-1095.619 -376.71)" fill="#283237"/>
                <path id="Trazado_190332" data-name="Trazado 190332" d="M1118.509,391.416a17,17,0,0,0-4.344.957q-2.268.667-4.513,1.409-4.5,1.483-8.912,3.19c-.13.051-.085.262.054.217,2.989-.98,5.991-1.916,9.019-2.769q2.272-.641,4.554-1.245a20.212,20.212,0,0,0,4.245-1.339A.225.225,0,0,0,1118.509,391.416Z" transform="translate(-1096.849 -380.298)" fill="#283237"/>
                <path id="Trazado_190333" data-name="Trazado 190333" d="M1122.222,408.875a11.844,11.844,0,0,0-3.865,1.07q-2.033.718-4.076,1.414c-2.722.927-5.445,1.853-8.2,2.685-.137.042-.084.259.054.217,2.8-.831,5.613-1.624,8.407-2.48q2.058-.629,4.109-1.283a11.115,11.115,0,0,0,3.619-1.489A.079.079,0,0,0,1122.222,408.875Z" transform="translate(-1098.153 -384.558)" fill="#283237"/>
              </g>
            </g>
            <path id="Trazado_190334" data-name="Trazado 190334" d="M1022.3,462.9c-4.635,2.264-9.313,4.433-14.1,6.372q-7.117,2.886-14.454,5.223c-2.736.868-5.5,1.7-8.272,2.433-.077.02-.042.132.035.117a116.955,116.955,0,0,0,14.958-3.905q3.658-1.245,7.231-2.729c2.35-.978,4.712-1.981,6.976-3.146,2.6-1.339,5.2-2.711,7.7-4.234C1022.464,462.98,1022.386,462.858,1022.3,462.9Z" transform="translate(-969.605 -388.218)" fill="#283237"/>
            <path id="Trazado_190335" data-name="Trazado 190335" d="M1093.687,434.356c-5.542,1.519-14.378,1.094-14.449,1.156a114.118,114.118,0,0,1-10.31,6.923c-.07.039-.006.136.064.1,3.793-1.726,8.53-4.308,10.528-6.215a38.542,38.542,0,0,0,14.2-1.8C1093.878,434.479,1093.849,434.311,1093.687,434.356Z" transform="translate(-989.97 -381.254)" fill="#283237"/>
          </g>
          <g id="Grupo_134546" data-name="Grupo 134546" transform="translate(1.258 73.845)">
            <path id="Trazado_190336" data-name="Trazado 190336" d="M966.161,406.674l35.205,1.211s5.047-25.551,4.792-39.3c-.143-7.7-4.634-7.37-9.644-2.54C978.973,382.953,966.161,406.674,966.161,406.674Z" transform="translate(-966.161 -362.583)" fill="#f7c84e"/>
            <path id="Trazado_190337" data-name="Trazado 190337" d="M991.992,376.758a1.193,1.193,0,0,1-.134.345,2.632,2.632,0,0,1-.572.674,4.69,4.69,0,0,1-.384.3h-.063C991.224,377.637,991.6,377.2,991.992,376.758Zm12.8-.683a.512.512,0,0,0-.453-.259.662.662,0,0,1-1.247,0,.511.511,0,0,0-.452.259,1.073,1.073,0,0,0,.067,1.023,3.427,3.427,0,0,0,.959.978h.1a4.338,4.338,0,0,0,.383-.3,2.647,2.647,0,0,0,.575-.674A1.076,1.076,0,0,0,1004.792,376.075Zm-26.184,18.01a1.987,1.987,0,0,0,.392-.494.9.9,0,0,0,.078-.181C978.922,393.639,978.765,393.866,978.608,394.086Zm13.322-1.517a.513.513,0,0,0-.454-.259.662.662,0,0,1-1.247,0,.511.511,0,0,0-.452.259,1.073,1.073,0,0,0,.067,1.023,3.425,3.425,0,0,0,.959.978h.1a4.257,4.257,0,0,0,.383-.3,2.66,2.66,0,0,0,.575-.675A1.075,1.075,0,0,0,991.93,392.568Zm12.862,0a.512.512,0,0,0-.453-.259.662.662,0,0,1-1.247,0,.511.511,0,0,0-.452.259,1.073,1.073,0,0,0,.067,1.023,3.427,3.427,0,0,0,.959.978h.1a4.246,4.246,0,0,0,.383-.3,2.648,2.648,0,0,0,.575-.675A1.076,1.076,0,0,0,1004.792,392.568Zm-20.516-6.338a.631.631,0,0,0,.094.063h.1a4.043,4.043,0,0,0,.384-.306,2.533,2.533,0,0,0,.572-.674,1.263,1.263,0,0,0,.156-.784C985.132,385.093,984.7,385.665,984.277,386.23Zm14.084-1.938a.512.512,0,0,0-.454-.259.662.662,0,0,1-1.248,0,.51.51,0,0,0-.452.259,1.071,1.071,0,0,0,.067,1.022,3.406,3.406,0,0,0,.959.978h.1a4.115,4.115,0,0,0,.383-.3,2.649,2.649,0,0,0,.575-.675A1.074,1.074,0,0,0,998.361,384.292Zm-19.3,24.77a.5.5,0,0,0-.447-.259.7.7,0,0,0-.627.439.693.693,0,0,0-.619-.439.517.517,0,0,0-.455.259,1.063,1.063,0,0,0,.063,1.019.687.687,0,0,0,.063.1l1.858.07c.039-.054.07-.11.1-.164A1.08,1.08,0,0,0,979.063,409.061Zm12.866,0a.517.517,0,0,0-.455-.259.692.692,0,0,0-.619.439.713.713,0,0,0-.627-.439.524.524,0,0,0-.454.259,1.087,1.087,0,0,0,.07,1.019,2.237,2.237,0,0,0,.454.565l1.074.039a2.511,2.511,0,0,0,.486-.6A1.083,1.083,0,0,0,991.93,409.061Zm12.411-.259a.7.7,0,0,0-.627.439.692.692,0,0,0-.619-.439.517.517,0,0,0-.455.259,1.045,1.045,0,0,0,.071,1.019,3.292,3.292,0,0,0,.956.98h.1c.008-.008.1-.071.243-.181.063-.345.2-1.058.385-2.07A.14.14,0,0,0,1004.341,408.8ZM985.5,400.785a.511.511,0,0,0-.453-.259.662.662,0,0,1-1.247,0,.511.511,0,0,0-.452.259,1.073,1.073,0,0,0,.067,1.023,3.427,3.427,0,0,0,.958.978h.1a4.2,4.2,0,0,0,.383-.3,2.665,2.665,0,0,0,.575-.675A1.073,1.073,0,0,0,985.5,400.785Zm12.863,0a.513.513,0,0,0-.454-.259.662.662,0,0,1-1.248,0,.511.511,0,0,0-.452.259,1.073,1.073,0,0,0,.067,1.023,3.429,3.429,0,0,0,.959.978h.1a4.238,4.238,0,0,0,.383-.3,2.662,2.662,0,0,0,.575-.675A1.076,1.076,0,0,0,998.361,400.785Z" transform="translate(-968.76 -365.812)" fill="#fff"/>
            <g id="Grupo_134545" data-name="Grupo 134545" transform="translate(4.351 38.111)">
              <g id="Grupo_134544" data-name="Grupo 134544">
                <path id="Trazado_190338" data-name="Trazado 190338" d="M1001.733,414.6c-5.4-.635-20.1-1.933-29.763-1.529-.058,0-.075.224-.017.231,8.089.876,24.32,1.464,29.755,1.628C1001.81,414.933,1001.834,414.612,1001.733,414.6Z" transform="translate(-971.917 -412.995)" fill="#283237"/>
              </g>
            </g>
            <path id="Trazado_190339" data-name="Trazado 190339" d="M1016.781,387.09c-.4,1.523-.779,3.051-1.148,4.582.02-.187.045-.371.064-.558.219-2.14.427-4.279.583-6.424a.046.046,0,0,0-.091-.01c-1.046,7.482-4,26.387-4.174,28.456-.168-.021-1.771.041-2.146.023-.081,0-.073.115,0,.122.192.021,2.6.314,2.618.261,1.049-3.646,2.642-17.426,2.982-20.477.545-1.966,1-3.952,1.349-5.964A.021.021,0,0,0,1016.781,387.09Z" transform="translate(-976.812 -367.966)" fill="#283237"/>
          </g>
        </g>
      </g>
    </g>
  </g>
</svg>
