<svg xmlns="http://www.w3.org/2000/svg" width="90" height="90" viewBox="0 0 90 90">
  <g id="Grupo_134906" data-name="Grupo 134906" transform="translate(-338 -1655.53)">
    <circle id="Elipse_5210" data-name="Elipse 5210" cx="45" cy="45" r="45" transform="translate(338 1655.53)" fill="#b13e8d"/>
    <g id="Grupo_134704" data-name="Grupo 134704" transform="translate(348.488 1673.231)">
      <path id="Trazado_190666" data-name="Trazado 190666" d="M2221.852,3506.738a1,1,0,0,1,.387.079,24.865,24.865,0,0,0,17.041,0,1.006,1.006,0,1,1,.776,1.857,26.832,26.832,0,0,1-18.591,0,1.007,1.007,0,0,1,.388-1.936Zm0,0" transform="translate(-2194.425 -3455.47)" fill="#fff"/>
      <path id="Trazado_190667" data-name="Trazado 190667" d="M2203.615,3494.843a.32.32,0,0,0-.253.453l1.657,4.144c.137.342.643.437.8.152l2.741-4.9c.16-.286-.187-.667-.549-.6Zm0,0" transform="translate(-2179.853 -3444.933)" fill="#fff"/>
      <path id="Trazado_190668" data-name="Trazado 190668" d="M2216.156,3204.783a1,1,0,0,1-.387-.079,24.865,24.865,0,0,0-17.041,0,1.006,1.006,0,1,1-.776-1.857,26.833,26.833,0,0,1,18.592,0,1.007,1.007,0,0,1-.388,1.936Zm0,0" transform="translate(-2174.859 -3201.185)" fill="#fff"/>
      <path id="Trazado_190669" data-name="Trazado 190669" d="M2306.621,3206.333a.32.32,0,0,0,.253-.453l-1.657-4.145c-.136-.342-.643-.436-.8-.151l-2.741,4.9c-.16.286.187.667.549.6Zm0,0" transform="translate(-2261.659 -3201.377)" fill="#fff"/>
      <path id="Trazado_190670" data-name="Trazado 190670" d="M2091.468,3264.172l-.02-.008-7.9-3.059v-1.516a6.69,6.69,0,0,0,2.365-4.045,3.284,3.284,0,0,0,1.649-.75,3.209,3.209,0,0,0,.414-4.432v-2.392a8.716,8.716,0,0,0-6-8.293,1.007,1.007,0,0,0-.631,1.912,6.707,6.707,0,0,1,4.613,6.381V3249c-.1-.349-.4-.666-1.221-1.546-.25-.267-.564-.6-.956-1.023-.024-.025-.049-.051-.074-.074l-.052-.046c-.017-.015-.035-.029-.052-.043a1.528,1.528,0,0,0-1.477-.23l-.031.012a1.564,1.564,0,0,0-.274.142,12.736,12.736,0,0,1-7.7,2.076h-.012a1.532,1.532,0,0,0-1.1.364l-.046.041s0,0-.005.005a.267.267,0,0,0-.024.023l-.009.009-.02.02-.01.011-.017.018-.011.012-.016.019-.01.012-.016.019-.01.012-.015.019-.011.013-.014.019-.01.014-.014.019-.009.014a.135.135,0,0,0-.013.019l-.01.015-.012.018-.01.016-.011.019-.009.015a.168.168,0,0,0-.011.02l-.009.016-.01.019-.009.017-.009.018-.009.018a.2.2,0,0,1-.009.018l-.008.018-.008.018-.006.013-.072.014v-1.25a6.684,6.684,0,0,1,4.74-6.423,1.007,1.007,0,0,0-.593-1.924,8.688,8.688,0,0,0-6.161,8.347v2.456a3.038,3.038,0,0,0-.7,1.938,3.2,3.2,0,0,0,1.114,2.431,3.248,3.248,0,0,0,1.648.754,6.567,6.567,0,0,0,2.5,4.141v1.416l-7.889,3.059-.019.007a6.39,6.39,0,0,0-3.783,5.831v5.83a1.743,1.743,0,0,0,1.741,1.741h28.386a1.738,1.738,0,0,0,1.735-1.735V3270a6.393,6.393,0,0,0-3.783-5.831Zm-8.9,2.688-1.8-1.279h0l2.092-2.582,1.369.53Zm-6.51,0-1.662-3.33,1.366-.529,2.092,2.582,0,0,0,0Zm2.341.807.913-.648.912.648-.243.366h-1.339Zm3.568-9.407a4.645,4.645,0,0,1-1.852.757h0l-.042.007h0l-.119.018-.014,0-.033,0-.019,0-.057.006-.018,0-.028,0-.026,0-.025,0-.031,0-.022,0-.049,0h-.018l-.036,0h-.02l-.042,0h-.01l-.053,0h-.126a4.706,4.706,0,0,1-4.831-4.508c0-.017,0-.034,0-.051l0-.051c0-.021,0-.04,0-.06v-4.11h.06a14.863,14.863,0,0,0,8.033-2.209l.025.028.665.709c.325.347.583.622.722.779v4.8c0,.019,0,.038,0,.056v.055a.534.534,0,0,0,0,.056,4.669,4.669,0,0,1-1.985,3.654l-.039.026Zm4.281-4.99a1.189,1.189,0,0,1-.24.161v-2.13l0,0,.009,0,.024.013,0,0a1.207,1.207,0,0,1,.236.171l.014.013a1.2,1.2,0,0,1-.05,1.763Zm-14.425-.9a1.1,1.1,0,0,1,.358-.785l.019-.018a1.488,1.488,0,0,1,.277-.2v2.069a1.193,1.193,0,0,1-.654-1.065Zm7.581,8.731h.192l.05,0h.03l.075,0,.024,0,.055,0,.032,0,.046,0,.035,0,.043,0,.036,0,.043,0,.034,0,.064-.007.043-.006.042,0,.039-.006.039-.005.039-.006.037-.006.04-.006.037-.007.039-.007.039-.008.068-.013.037-.007.041-.009.034-.007.042-.01.031-.007.043-.01.03-.007.044-.01.021-.006.178-.047.009,0,.057-.017.013,0,.057-.017.012,0,.06-.019h0c.066-.021.132-.043.2-.066v.719l-2.22,2.74-2.224-2.746v-.632a8.066,8.066,0,0,0,2.236.294ZM2065.4,3270a4.384,4.384,0,0,1,2.53-3.967l4.584-1.777,2.005,4.018a1.516,1.516,0,0,0,2.234.559l.007-.005.3.453-.766,6.275h-5.519v-4.319a1.007,1.007,0,0,0-2.013,0v4.319H2065.4Zm12.924,5.557.674-5.515h.636l.673,5.515Zm14.911,0h-3.363v-4.32a1.007,1.007,0,0,0-2.013,0v4.32h-5.523l-.766-6.275.3-.454.007.005a1.514,1.514,0,0,0,.877.281,1.554,1.554,0,0,0,.369-.045,1.519,1.519,0,0,0,.989-.794l2-4.019,4.589,1.777a4.39,4.39,0,0,1,2.529,3.967Zm0,0" transform="translate(-2063.388 -3233.137)" fill="#fff"/>
      <path id="Trazado_190671" data-name="Trazado 190671" d="M2313.944,3271.085a1.006,1.006,0,0,0-1.007,1.007v1.775h-3.364v-4.319a1.007,1.007,0,1,0-2.013,0v4.32h-5.523l-.767-6.275.3-.454.007.005a1.512,1.512,0,0,0,.877.281,1.54,1.54,0,0,0,.368-.045,1.516,1.516,0,0,0,.989-.794l2.005-4.019,4.585,1.776a4.426,4.426,0,0,1,2.473,3.213,1.007,1.007,0,0,0,1.988-.322,6.471,6.471,0,0,0-3.7-4.754l-.02-.008-7.9-3.059V3257.9a6.69,6.69,0,0,0,2.365-4.045,3.29,3.29,0,0,0,1.65-.75,3.21,3.21,0,0,0,.414-4.432v-2.392a8.734,8.734,0,1,0-17.467,0v2.456a3.037,3.037,0,0,0-.7,1.938,3.2,3.2,0,0,0,1.114,2.431,3.251,3.251,0,0,0,1.647.754,6.565,6.565,0,0,0,2.5,4.14v1.417l-7.89,3.058-.019.008a6.39,6.39,0,0,0-3.783,5.831v5.829a1.744,1.744,0,0,0,1.741,1.742h28.386a1.738,1.738,0,0,0,1.736-1.735v-2.054a1.007,1.007,0,0,0-1.007-1.007Zm-18.182-5.919-1.662-3.33,1.366-.528,2.092,2.581h0Zm2.342.806.913-.648.912.648-.243.366h-1.339Zm4.168-.807-1.8-1.278,2.092-2.582,1.369.531Zm-.6-8.6a4.644,4.644,0,0,1-1.852.757h0l-.042.007h0l-.12.018-.014,0-.033,0-.019,0-.057.006-.018,0-.027,0-.025,0-.025,0-.031,0-.022,0-.049,0h-.018l-.035,0h-.02l-.043,0h-.009l-.053,0h-.125a4.706,4.706,0,0,1-4.831-4.507q0-.024,0-.05v-.056c0-.019,0-.038,0-.057v-4.11h.124a14.689,14.689,0,0,0,6.16-1.265l.02-.009.1-.042.028-.012,0,0a15.088,15.088,0,0,0,1.579-.829l.083-.052.558.6h0l.13.139.1.112c.276.294.494.528.618.668v4.8c0,.018,0,.036,0,.054l0,.06c0,.017,0,.035,0,.052a4.668,4.668,0,0,1-1.985,3.655l-.039.025Zm4.281-4.99a1.24,1.24,0,0,1-.24.161v-2.13l0,0,.01.005.023.013,0,0a1.185,1.185,0,0,1,.236.172l.015.014a1.195,1.195,0,0,1-.05,1.762Zm-13.726-5.3a6.72,6.72,0,1,1,13.44,0v1.029l-.007-.023v0l-.01-.032h0c-.008-.021-.017-.044-.026-.065h0a1.26,1.26,0,0,0-.076-.148h0c-.013-.023-.028-.046-.044-.07l0,0c-.007-.011-.015-.022-.023-.033s0,0,0,0l-.006-.01a.081.081,0,0,1-.01-.015l0,0-.008-.011-.006-.008-.009-.011a.078.078,0,0,0-.007-.009l-.01-.013,0-.005a.2.2,0,0,1-.013-.017h0l-.015-.019,0,0-.068-.084c-.19-.229-.466-.524-.866-.951-.25-.267-.563-.6-.955-1.021a1.529,1.529,0,0,0-1.961-.239,12.743,12.743,0,0,1-7.7,2.075,1.53,1.53,0,0,0-.2,0l-.078.006-.04,0a1.538,1.538,0,0,0-.219.046l-.027.008c-.029.009-.057.018-.085.029l-.016.006c-.019.007-.038.014-.056.023l-.033.014-.017.008a1.537,1.537,0,0,0-.386.26c-.03.029-.06.058-.087.089h0l-.026.029s0,0,0,0l-.024.028,0,0a.326.326,0,0,0-.023.029l0,0-.022.03,0,0-.021.03,0,0-.021.032v0l-.021.033v0l-.02.033h0l-.02.036c-.026.048-.05.1-.071.148l-.073.014v-1.251Zm-.7,4.393a1.1,1.1,0,0,1,.358-.785l.019-.017a1.439,1.439,0,0,1,.277-.2v2.069a1.227,1.227,0,0,1-.24-.162,1.19,1.19,0,0,1-.414-.9Zm7.581,8.731h.191l.05,0h.029l.075,0,.024,0,.055,0,.032,0,.046,0,.035,0,.044,0,.036,0,.043,0,.034,0,.063-.008.042-.006.043-.005.039-.006.039-.005.039-.006.037-.006.039-.007.037-.007.039-.007.04-.008.067-.013.038-.007.041-.008.033-.008.042-.009.031-.008.043-.01.031-.007.044-.011.021-.005.178-.047.009,0,.057-.016.013,0,.057-.017.011,0,.06-.019h0l.2-.067v.719l-2.22,2.74-2.224-2.746v-.616a8.251,8.251,0,0,0,2.236.279Zm-14.007,8.908a4.383,4.383,0,0,1,2.53-3.967l4.584-1.777,2,4.018h0a1.516,1.516,0,0,0,2.235.558l.007-.005.3.454-.766,6.274h-5.519v-4.319a1.007,1.007,0,1,0-2.013,0v4.32H2285.1Zm12.924,5.557.674-5.516h.635l.673,5.516Zm0,0" transform="translate(-2246.224 -3231.444)" fill="#fff"/>
    </g>
  </g>
</svg>
