<svg xmlns="http://www.w3.org/2000/svg" width="90" height="90" viewBox="0 0 90 90">
  <g id="Grupo_134907" data-name="Grupo 134907" transform="translate(-755 -1655.53)">
    <circle id="Elipse_5211" data-name="Elipse 5211" cx="45" cy="45" r="45" transform="translate(755 1655.53)" fill="#b13e8d"/>
    <g id="Grupo_134707" data-name="Grupo 134707" transform="translate(764.863 1677.757)">
      <path id="Trazado_190680" data-name="Trazado 190680" d="M1790.634,3332.125" transform="translate(-1761.228 -3310.093)" fill="#fff"/>
      <path id="Trazado_190681" data-name="Trazado 190681" d="M1719.784,3256.411l-13.007-13.006,6.824-6.825,13.005,13-1.192,1.191a1.349,1.349,0,0,0,1.907,1.908l1.544-1.544a2.2,2.2,0,0,0,0-3.109l-13.709-13.71a2.2,2.2,0,0,0-3.109,0l-7.53,7.53a2.2,2.2,0,0,0,0,3.109l.651.651c-.019.021-.04.041-.059.062-.106.11-.209.217-.3.31-.744.73-1.587,1.479-2.2,1.479h0l-2.021-.01h-.03a.092.092,0,0,1-.028,0,10.828,10.828,0,0,0-3.282.59l-.031.011-2.823,1.105-2.824-1.105-.029-.011a10.777,10.777,0,0,0-3.255-.591h-.069l-2.038.011h0c-.611,0-1.454-.748-2.189-1.471-.1-.1-.207-.212-.314-.324l-.075-.079.629-.629a2.2,2.2,0,0,0,0-3.11l-7.529-7.529a2.2,2.2,0,0,0-3.1,0h0l0,0,0,0-13.706,13.707a2.2,2.2,0,0,0,0,3.109l7.529,7.529a2.2,2.2,0,0,0,3.108,0s0,0,0,0l0,0,0,0,.042-.042.057-.055.475-.477,1.215,1.214a2.79,2.79,0,0,1,.748,2.337,6.38,6.38,0,0,0,1.974,5.011l6.72,6.71a1.215,1.215,0,0,0,.093.1l7.641,7.64a3.638,3.638,0,0,0,5.139,0,3.7,3.7,0,0,0,.577-.748l.458.458a10.549,10.549,0,0,1,7.028-.947,3.64,3.64,0,0,0,3.461-4.755,3.654,3.654,0,0,0,1.123-.766h0a3.6,3.6,0,0,0,1.044-2.257l5.445-5.437a6.379,6.379,0,0,0,1.974-5.011,2.788,2.788,0,0,1,.749-2.337l1.193-1.193.554.554a2.2,2.2,0,0,0,3.109,0l1.535-1.536a1.348,1.348,0,0,0-1.907-1.907l-1.183,1.183m-50.818,0-6.825-6.825,13-13,6.825,6.824-.977.978-.249.25-10.6,10.6s0,0-.007.007l-1.169,1.169Zm36.4,16.035a.929.929,0,0,1-.661.273h0a.928.928,0,0,1-.615-.229l-10.229-10.369a1.349,1.349,0,0,0-1.92,1.895l9.035,9.158a1.426,1.426,0,0,0,.131.151l2.249,2.25a.938.938,0,1,1-1.327,1.327l-1.223-1.222c-.021-.021-.043-.041-.065-.062s-.033-.037-.051-.054l-10.223-10.4a1.349,1.349,0,1,0-1.923,1.891l10.223,10.4c.024.024.048.046.072.068s.039.042.06.063a.939.939,0,1,1-1.328,1.328l-1.382-1.382-8.877-9.14a1.348,1.348,0,0,0-1.935,1.879l7.15,7.361a1.381,1.381,0,0,0,.2.247.937.937,0,1,1-1.325,1.325l-7.543-7.542a1.149,1.149,0,0,0-.094-.1l-6.819-6.808a3.723,3.723,0,0,1-1.183-3.148,5.351,5.351,0,0,0-1.539-4.2l-1.214-1.213,8.69-8.69.04.041c.119.125.235.246.358.369,1.109,1.089,2.43,2.251,4.088,2.251h.017l2.014-.009h.053a8.221,8.221,0,0,1,2.348.423l.09.035-1.06.416-2.872,1.125a3.564,3.564,0,0,0-2.36,3.409h0c0,.071,0,.142.009.213,0,.015,0,.031,0,.046s0,.055.007.083.006.058.011.086,0,.032.006.048.008.054.012.082,0,.028.007.043.01.058.016.087c.016.086.037.174.061.261.006.024.013.048.02.073a3.6,3.6,0,0,0,.368.848c.008.013.016.027.024.04l.024.039a3.714,3.714,0,0,0,3.835,1.654l.1-.014,3.938-.533,12.518,12.519a.935.935,0,0,1,0,1.311Zm9.214-15.044a5.353,5.353,0,0,0-1.539,4.2,3.724,3.724,0,0,1-1.184,3.148l-4.534,4.529-.042-.042-.015-.015-12.983-12.982-.026-.026-.01-.01-.016-.014-.012-.01-.016-.014-.012-.011-.016-.012-.013-.011-.016-.012-.013-.01-.019-.014-.02-.014-.019-.012-.013-.009-.017-.011-.014-.008-.017-.011-.013-.007-.019-.01-.012-.007-.022-.011-.01,0-.032-.016h0l-.031-.014-.01,0-.023-.01-.01,0-.024-.008-.011,0-.023-.009-.012,0-.027-.009-.007,0-.035-.01h0a.261.261,0,0,0-.032-.008l-.011,0-.024-.005-.014,0-.022,0-.013,0-.022,0-.014,0-.023,0-.012,0-.034,0h-.2l-.028,0h-.014l-.028,0h-.011l-.032,0-4.619.625a.289.289,0,0,0-.041.006c-.97.161-1.255-.349-1.34-.667a.922.922,0,0,1,.57-1.145l.025-.01,10.44-4.09a8.188,8.188,0,0,1,2.35-.424h.053l2.014.01h.016c1.658,0,2.979-1.163,4.1-2.261.115-.115.233-.238.354-.364l.014-.015,8.69,8.69Zm0,0" transform="translate(-1659.236 -3233.676)" fill="#fff"/>
    </g>
  </g>
</svg>
