<svg xmlns="http://www.w3.org/2000/svg" width="90" height="90" viewBox="0 0 90 90">
  <g id="Grupo_134908" data-name="Grupo 134908" transform="translate(-1181 -1655.53)">
    <circle id="Elipse_5212" data-name="Elipse 5212" cx="45" cy="45" r="45" transform="translate(1181 1655.53)" fill="#b13e8d"/>
    <g id="Grupo_134706" data-name="Grupo 134706" transform="translate(1197.196 1668.201)">
      <path id="Trazado_190674" data-name="Trazado 190674" d="M2692.846,3137.8h.288a15.257,15.257,0,0,0,11.893-5.885.935.935,0,0,0-.157-1.31,5.51,5.51,0,0,0-1.192-.728l-.019-.008-6.937-2.687v-1.284a5.942,5.942,0,0,0,2.08-3.549,2.941,2.941,0,0,0,1.445-.667,2.877,2.877,0,0,0,.382-3.959v-2.094a7.749,7.749,0,0,0-15.5,0v2.15a2.721,2.721,0,0,0-.617,1.725,2.87,2.87,0,0,0,1,2.179,2.939,2.939,0,0,0,1.443.667,5.832,5.832,0,0,0,2.2,3.638v1.2l-6.93,2.687-.019.008a5.482,5.482,0,0,0-1.191.728.933.933,0,0,0-.157,1.31,15.255,15.255,0,0,0,11.891,5.885h.092Zm-2.757-5.581-1.419-2.844,1.127-.437,1.794,2.214-1.209.859-.014.01Zm7.126-2.844-1.419,2.844-.278-.2-.014-.01-1.212-.861,1.793-2.213Zm-4.272,3.108.743.527-.177.266h-1.132l-.177-.266Zm-.24,2.661h.481l.1.785c-.225.006-.447.006-.672,0Zm2.436.613-.161-1.318.23-.347a1.383,1.383,0,0,0,2.006-.532h0l1.75-3.507,3.912,1.514a13.377,13.377,0,0,1-7.737,4.189Zm.12-11.093a4.043,4.043,0,0,1-1.762.682h-.009l-.032,0h-.01l-.062.008h-.007l-.026,0-.02,0-.024,0-.025,0h-.02l-.042,0h-.018l-.03,0h-.018l-.037,0h-.165a4.056,4.056,0,0,1-4.215-3.929v-.046l0-.048c0-.017,0-.034,0-.05v-3.578a13.006,13.006,0,0,0,5.778-1.236l.007,0,.037-.018.017-.008.149-.072.01,0,.033-.016.02-.01.039-.019.014-.007.047-.024.006,0,.032-.017.021-.01.013-.007.091-.047.016-.008q.244-.127.482-.265l.059-.035.011-.006.008,0c.065-.038.13-.077.194-.116.228.245.42.45.583.623.278.3.5.534.624.674v4.218c0,.016,0,.032,0,.047v.05c0,.017,0,.032,0,.049a4.073,4.073,0,0,1-1.729,3.184l-.036.024Zm3.771-4.4a1.027,1.027,0,0,1-.136.1v-1.723a1.012,1.012,0,0,1,.166.126l.012.011a.99.99,0,0,1,.307.724,1,1,0,0,1-.349.762ZM2687,3115.624a5.881,5.881,0,1,1,11.763,0v.68l0-.009-.005-.009v0l-.005-.009h0l-.006-.01h0c-.015-.025-.031-.05-.049-.076h0l-.007-.01h0a10.711,10.711,0,0,0-.881-1l-.036-.038-.085-.091-.045-.048-.023-.024-.045-.048-.13-.139-.04-.042-.07-.075-.031-.033-.374-.4h0a1.394,1.394,0,0,0-1.787-.219,11.186,11.186,0,0,1-6.763,1.823,1.381,1.381,0,0,0-.323.014l-.071.013-.035.008a1.4,1.4,0,0,0-.626.334c-.027.025-.052.051-.076.077l0,0-.022.024,0,0-.019.022-.005.006-.016.021-.007.008-.015.02-.006.008-.015.02-.007.01-.013.019-.007.01-.012.019-.007.01-.012.02a.065.065,0,0,0-.006.01.192.192,0,0,0-.012.021l-.006.009-.011.021-.005.01a.213.213,0,0,0-.012.022l0,.008-.012.024,0,.008h0Zm-.617,3.875a.926.926,0,0,1,.3-.657l.019-.016a1.211,1.211,0,0,1,.167-.13v1.666a1.2,1.2,0,0,1-.137-.1,1.009,1.009,0,0,1-.348-.763Zm6.64,7.746h.1l.049,0h.021l.066,0h.009l.063,0h.025l.045,0,.027,0,.044,0,.025,0,.055-.005h.014l.067-.008.024,0,.043-.005.028,0,.042-.005.027,0,.048-.007.02,0,.065-.011.023,0,.045-.008.026,0,.042-.008.026-.005.044-.008.024,0,.063-.014.022,0,.044-.01.031-.007.034-.008.034-.008.03-.008.037-.01.024-.006q.072-.018.142-.04l.016,0,.046-.014.015,0,.049-.015h0l.113-.037v.553l-1.912,2.361-1.916-2.365v-.429a8.268,8.268,0,0,0,1.926.193Zm-10.009,4.318,3.907-1.515,1.75,3.507h0a1.383,1.383,0,0,0,2.005.532l.231.347-.161,1.316a13.371,13.371,0,0,1-7.732-4.188Zm0,0" transform="translate(-2664.142 -3107.875)" fill="#fff"/>
      <path id="Trazado_190675" data-name="Trazado 190675" d="M2595.439,3320.932a5.527,5.527,0,0,0-1.191-.729l-.019-.007-6.937-2.687v-1.285a5.942,5.942,0,0,0,2.08-3.549,2.93,2.93,0,0,0,1.445-.667,2.876,2.876,0,0,0,.382-3.959v-2.094a7.748,7.748,0,1,0-15.5,0v2.149a2.723,2.723,0,0,0-.617,1.726,2.87,2.87,0,0,0,1,2.178,2.933,2.933,0,0,0,1.443.667,5.831,5.831,0,0,0,2.2,3.638v1.2l-6.929,2.686-.019.008a5.428,5.428,0,0,0-1.192.728.935.935,0,0,0-.158,1.31,15.26,15.26,0,0,0,11.893,5.885h.38a15.258,15.258,0,0,0,11.893-5.885.935.935,0,0,0-.158-1.31Zm-7.654-1.229-1.42,2.845-.285-.2-.006,0-1.212-.86,1.793-2.213Zm-7.127,2.845-1.419-2.845,1.127-.436.875,1.08.918,1.133-1.209.859-.006,0Zm3.19,3.709c-.225.005-.447.005-.673,0l.1-.786h.48Zm.229-2.653h-1.132l-.176-.266.743-.527.742.527Zm1.75-8.612a4.034,4.034,0,0,1-1.616.66h0l-.037.006h0l-.106.016h-.01l-.03,0-.015,0-.051.006h-.015l-.025,0h-.021l-.023,0-.026,0h-.018l-.042,0h-.111l-.046,0h-.11a4.055,4.055,0,0,1-4.215-3.927c0-.015,0-.032,0-.048v-.047c0-.017,0-.033,0-.05v-3.578h.013a13.131,13.131,0,0,0,7.071-1.936c.228.245.42.45.583.623l.4.423c.094.1.172.186.229.25v4.232c0,.01,0,.02,0,.03l0,.053c0,.017,0,.033,0,.049a4.073,4.073,0,0,1-1.733,3.187l-.032.021Zm3.772-4.4a1.051,1.051,0,0,1-.137.1v-1.723a1.01,1.01,0,0,1,.166.125l.016.014a.99.99,0,0,1,.3.722,1,1,0,0,1-.348.763Zm-6.15-10.519a5.888,5.888,0,0,1,5.882,5.881v.679a7.762,7.762,0,0,0-1-1.167c-.213-.227-.477-.509-.805-.861l-.038-.041a1.4,1.4,0,0,0-1.761-.235l-.026.017a11.2,11.2,0,0,1-6.763,1.823c-.036,0-.072,0-.108,0a1.4,1.4,0,0,0-.946.373,1.245,1.245,0,0,0-.094.1h0l-.02.024,0,0-.019.023,0,0-.018.023,0,0-.018.024,0,0-.018.025,0,0-.017.026,0,0a1.393,1.393,0,0,0-.1.175v-1.019a5.888,5.888,0,0,1,5.881-5.882Zm-6.5,9.756a.926.926,0,0,1,.3-.658l.018-.016a1.2,1.2,0,0,1,.167-.13v1.666a.915.915,0,0,1-.137-.1,1,1,0,0,1-.349-.763Zm6.641,7.745h.1l.049,0h.021l.065,0h.01l.064,0h.025l.044,0,.027,0,.044,0,.025,0,.055-.005h.013l.067-.008.024,0,.044-.005.028,0,.042-.006.027,0,.048-.007.02,0,.066-.011.022,0,.045-.008.026,0,.042-.008.026,0,.044-.009.023,0,.064-.014.021,0,.044-.01.031-.007.034-.008.033-.007.031-.008.035-.009.026-.007.14-.039.017,0,.045-.014.015,0,.049-.015h0l.111-.037v.553l-1.912,2.36-1.916-2.365v-.425a8.4,8.4,0,0,0,1.927.189Zm-10.009,4.319,3.907-1.515,1.75,3.507a1.382,1.382,0,0,0,2.006.532l.231.348-.16,1.317a13.375,13.375,0,0,1-7.733-4.188Zm12.125,4.189-.161-1.317.231-.348a1.382,1.382,0,0,0,2.005-.532l1.75-3.507,3.911,1.515a13.374,13.374,0,0,1-7.737,4.189Zm0,0" transform="translate(-2571.234 -3269.47)" fill="#fff"/>
      <path id="Trazado_190676" data-name="Trazado 190676" d="M2814.3,3320.932a5.553,5.553,0,0,0-1.191-.729l-.02-.007-6.937-2.687v-1.285a5.943,5.943,0,0,0,2.08-3.549,2.931,2.931,0,0,0,1.445-.667,2.877,2.877,0,0,0,.382-3.959v-2.094a7.748,7.748,0,1,0-15.5,0v2.149a2.719,2.719,0,0,0-.617,1.726,2.87,2.87,0,0,0,1,2.178,2.936,2.936,0,0,0,1.443.667,5.83,5.83,0,0,0,2.2,3.638v1.2l-6.929,2.686-.019.008a5.437,5.437,0,0,0-1.191.728.935.935,0,0,0-.158,1.31,15.259,15.259,0,0,0,11.893,5.885h.379a15.26,15.26,0,0,0,11.893-5.885.935.935,0,0,0-.157-1.31Zm-7.654-1.229-1.419,2.845-.278-.2-.014-.01-1.212-.86,1.793-2.213Zm-7.126,2.845-1.419-2.845,1.126-.436,1.794,2.213-1.209.859-.017.012Zm3.19,3.709c-.225.005-.447.005-.672,0l.1-.786h.48Zm.229-2.653h-1.132l-.177-.266.742-.527.742.527Zm1.75-8.612a4.03,4.03,0,0,1-1.616.66h0l-.037.006h0l-.106.016h-.01l-.031,0-.014,0-.052.006h-.015l-.025,0h-.02l-.024,0-.027,0h-.018l-.042,0h-.111l-.046,0h-.11a4.056,4.056,0,0,1-4.216-3.93c0-.014,0-.028,0-.042l0-.055c0-.016,0-.031,0-.046v-3.578h.12a13.166,13.166,0,0,0,6.963-1.938c.229.245.42.45.583.623.278.3.5.534.624.674v4.217c0,.016,0,.031,0,.047v.05c0,.017,0,.033,0,.049a4.073,4.073,0,0,1-1.733,3.186l-.032.021Zm3.771-4.4a1.048,1.048,0,0,1-.137.1v-1.723a1.01,1.01,0,0,1,.166.125l.015.013a.99.99,0,0,1,.3.723,1,1,0,0,1-.349.763Zm-12.031-4.638a5.881,5.881,0,0,1,11.763,0v.68a.061.061,0,0,0,0-.008h0a.046.046,0,0,0-.005-.01v0l0-.009h0l-.006-.01h0c-.015-.025-.031-.05-.048-.076h0l-.007-.01h0a10.762,10.762,0,0,0-.881-1l-.036-.038c-.22-.235-.5-.53-.843-.9a1.4,1.4,0,0,0-1.788-.218,11.2,11.2,0,0,1-6.762,1.823,1.4,1.4,0,0,0-1.054.369l-.025.024-.011.011-.014.014-.013.013-.011.012-.013.015-.01.011-.013.015-.01.011-.013.016-.009.011-.013.016a.067.067,0,0,1-.008.011l-.012.018-.008.01-.012.018-.007.011-.012.018-.007.011-.011.018-.007.011a.117.117,0,0,0-.011.019l-.007.011-.01.018-.007.012-.01.018a.11.11,0,0,0-.006.013l-.01.018-.007.015-.008.017h0v-1.019h0Zm-.617,3.875a.929.929,0,0,1,.3-.658l.019-.016a1.169,1.169,0,0,1,.168-.13v1.666a.932.932,0,0,1-.137-.1,1,1,0,0,1-.349-.763Zm6.641,7.745h.1l.049,0h.021l.065,0h.009l.063,0h.025l.044,0,.028,0,.044,0,.025,0,.056-.005h.013l.067-.008.024,0,.043-.005.028,0,.042-.006.027,0,.048-.007.02,0,.065-.011.022,0,.045-.008.025,0,.042-.008.026,0,.044-.009.023,0,.064-.014.021,0,.045-.01.03-.007.034-.008.033-.007.031-.008.036-.009.025-.007c.047-.012.094-.025.14-.039l.017,0,.045-.014.015,0,.049-.015h0l.111-.037v.553l-1.912,2.36-1.916-2.365v-.448a7.855,7.855,0,0,0,1.926.211Zm-10.009,4.319,3.907-1.515,1.75,3.507a1.382,1.382,0,0,0,2.006.532l.231.348-.161,1.317a13.375,13.375,0,0,1-7.733-4.188Zm12.125,4.189-.161-1.317.231-.348a1.382,1.382,0,0,0,2.006-.532h0l1.75-3.507,3.911,1.515a13.373,13.373,0,0,1-7.737,4.189Zm0,0" transform="translate(-2757.052 -3269.47)" fill="#fff"/>
      <path id="Trazado_190677" data-name="Trazado 190677" d="M2868.711,3240.091a.933.933,0,0,1-.878-.618,20.983,20.983,0,0,0-4.26-7.067.934.934,0,1,1,1.38-1.258,22.845,22.845,0,0,1,4.636,7.694.933.933,0,0,1-.562,1.194.944.944,0,0,1-.316.055Zm0,0" transform="translate(-2819.227 -3212.276)" fill="#fff"/>
      <path id="Trazado_190678" data-name="Trazado 190678" d="M2618.85,3239.538a.948.948,0,0,1-.314-.054.933.933,0,0,1-.565-1.194,22.835,22.835,0,0,1,4.751-7.84.934.934,0,1,1,1.372,1.266,20.988,20.988,0,0,0-4.365,7.2.934.934,0,0,1-.879.619Zm0,0" transform="translate(-2610.868 -3211.688)" fill="#fff"/>
      <path id="Trazado_190679" data-name="Trazado 190679" d="M2728.229,3473.6a23.1,23.1,0,0,1-5.208-.594.933.933,0,0,1-.423-1.595l.01-.009a.934.934,0,0,1,.981-.182,21.362,21.362,0,0,0,9.525-.057.933.933,0,1,1,.43,1.816,23.066,23.066,0,0,1-5.314.62Zm0,0" transform="translate(-2699.49 -3416.293)" fill="#fff"/>
    </g>
  </g>
</svg>
