<svg xmlns="http://www.w3.org/2000/svg" width="90" height="90" viewBox="0 0 90 90">
  <g id="Grupo_134910" data-name="Grupo 134910" transform="translate(-970 -2051.53)">
    <path id="Trazado_190755" data-name="Trazado 190755" d="M45,0A45,45,0,1,1,0,45,45,45,0,0,1,45,0Z" transform="translate(970 2051.53)" fill="#b53e89"/>
    <g id="Grupo_134559" data-name="Grupo 134559" transform="translate(-402.164 600.487)">
      <path id="Trazado_190460" data-name="Trazado 190460" d="M1410.854,1523.1a33.366,33.366,0,1,1,33.366-33.366,33.406,33.406,0,0,1-33.366,33.366Zm0,0" transform="translate(6.311 6.311)" fill="#fff"/>
      <path id="Trazado_190461" data-name="Trazado 190461" d="M1427.46,1477.472a28.864,28.864,0,1,0,28.862,28.864,28.9,28.9,0,0,0-28.862-28.864Zm0,0" transform="translate(-10.295 -10.293)" fill="#b13e8d"/>
      <path id="Trazado_190462" data-name="Trazado 190462" d="M1441.464,1534.293a3.061,3.061,0,0,1-2.151-.879l-7.208-7.064a3.074,3.074,0,1,1,4.3-4.393l5.063,4.963,12.085-11.779a3.075,3.075,0,1,1,4.293,4.4l-14.237,13.877a3.07,3.07,0,0,1-2.147.872Zm0,0" transform="translate(-26.186 -28.238)" fill="#fff"/>
    </g>
  </g>
</svg>
