<svg xmlns="http://www.w3.org/2000/svg" xmlns:xlink="http://www.w3.org/1999/xlink" width="190" height="112" viewBox="0 0 190 112">
  <defs>
    <linearGradient id="linear-gradient" x1="0.5" x2="0.5" y2="1" gradientUnits="objectBoundingBox">
      <stop offset="0" stop-color="#f7ca2e" stop-opacity="0"/>
      <stop offset="0.091" stop-color="#f7ca2e" stop-opacity="0.129"/>
      <stop offset="0.283" stop-color="#f7ca2e" stop-opacity="0.388"/>
      <stop offset="0.465" stop-color="#f7ca2e" stop-opacity="0.612"/>
      <stop offset="0.633" stop-color="#f7ca2e" stop-opacity="0.78"/>
      <stop offset="0.784" stop-color="#f7ca2e" stop-opacity="0.902"/>
      <stop offset="0.911" stop-color="#f7ca2e" stop-opacity="0.969"/>
      <stop offset="1" stop-color="#f7ca2e"/>
    </linearGradient>
    <linearGradient id="linear-gradient-2" x1="0.5" x2="0.5" y2="1" gradientUnits="objectBoundingBox">
      <stop offset="0" stop-color="#b13e8d" stop-opacity="0"/>
      <stop offset="0.091" stop-color="#b13e8d" stop-opacity="0.129"/>
      <stop offset="0.283" stop-color="#b13e8d" stop-opacity="0.388"/>
      <stop offset="0.465" stop-color="#b13e8d" stop-opacity="0.612"/>
      <stop offset="0.633" stop-color="#b13e8d" stop-opacity="0.78"/>
      <stop offset="0.784" stop-color="#b13e8d"/>
      <stop offset="0.911" stop-color="#b13e8d" stop-opacity="0.969"/>
      <stop offset="1" stop-color="#b13e8d"/>
    </linearGradient>
    <filter id="Rectángulo_40718" x="41" y="4" width="108" height="108" filterUnits="userSpaceOnUse">
      <feOffset dy="3" input="SourceAlpha"/>
      <feGaussianBlur stdDeviation="3" result="blur"/>
      <feFlood flood-opacity="0.161"/>
      <feComposite operator="in" in2="blur"/>
      <feComposite in="SourceGraphic"/>
    </filter>
    <clipPath id="clip-path">
      <rect id="Rectángulo_42345" data-name="Rectángulo 42345" width="58.016" height="72.27" fill="none"/>
    </clipPath>
  </defs>
  <g id="Grupo_134911" data-name="Grupo 134911" transform="translate(-150 -2531.982)">
    <g id="Grupo_134718" data-name="Grupo 134718" transform="translate(8951 10653.982)">
      <g id="Grupo_134613" data-name="Grupo 134613" transform="translate(-8981 -9951)">
        <g id="Grupo_128316" data-name="Grupo 128316" transform="translate(0 -87)">
          <rect id="Rectángulo_40586" data-name="Rectángulo 40586" width="190" height="20" transform="translate(180 1961)" fill="none"/>
          <g id="Grupo_108405" data-name="Grupo 108405" transform="translate(209.5 1980)">
            <path id="Rectángulo_5242" data-name="Rectángulo 5242" d="M0,0H12a0,0,0,0,1,0,0V43.333a3,3,0,0,1-3,3H3a3,3,0,0,1-3-3V0A0,0,0,0,1,0,0Z" transform="translate(0 0)" fill="url(#linear-gradient)"/>
          </g>
          <g id="Grupo_108406" data-name="Grupo 108406" transform="translate(340 1968) rotate(180)">
            <path id="Rectángulo_5242-2" data-name="Rectángulo 5242" d="M0,0H12a0,0,0,0,1,0,0V49a3,3,0,0,1-3,3H3a3,3,0,0,1-3-3V0A0,0,0,0,1,0,0Z" transform="translate(0 0)" fill="url(#linear-gradient-2)"/>
          </g>
          <g transform="matrix(1, 0, 0, 1, 180, 1916)" filter="url(#Rectángulo_40718)">
            <path id="Rectángulo_40718-2" data-name="Rectángulo 40718" d="M10,0H80A10,10,0,0,1,90,10V90a0,0,0,0,1,0,0H10A10,10,0,0,1,0,80V10A10,10,0,0,1,10,0Z" transform="translate(50 10)" fill="#f6f6f6"/>
          </g>
        </g>
      </g>
    </g>
    <g id="Grupo_134717" data-name="Grupo 134717" transform="translate(-1504.151 92.751)">
      <path id="Trazado_190690" data-name="Trazado 190690" d="M1861.653,2641.865h-6a1.055,1.055,0,0,1,0-2.11h6a1.055,1.055,0,1,1,0,2.11Zm0,0" transform="translate(-110.314 -149.349)" fill="#603eb7"/>
      <path id="Trazado_190691" data-name="Trazado 190691" d="M1861.653,2611.135h-6a1.055,1.055,0,0,1,0-2.11h6a1.055,1.055,0,1,1,0,2.11Zm0,0" transform="translate(-110.314 -124.024)" fill="#603eb7"/>
      <path id="Trazado_190692" data-name="Trazado 190692" d="M1861.653,2580.408h-6a1.055,1.055,0,0,1,0-2.11h6a1.055,1.055,0,1,1,0,2.11Zm0,0" transform="translate(-110.314 -98.702)" fill="#603eb7"/>
      <path id="Trazado_190693" data-name="Trazado 190693" d="M1783.3,2672.6H1760.58a1.055,1.055,0,1,1,0-2.109H1783.3a1.055,1.055,0,1,1,0,2.109Zm0,0" transform="translate(-31.963 -174.675)" fill="#603eb7"/>
      <path id="Trazado_190694" data-name="Trazado 190694" d="M1781.012,2703.322H1760.58a1.055,1.055,0,1,1,0-2.11h20.432a1.055,1.055,0,0,1,0,2.11Zm0,0" transform="translate(-31.963 -199.996)" fill="#603eb7"/>
      <path id="Trazado_190695" data-name="Trazado 190695" d="M1778.456,2734.048H1760.58a1.055,1.055,0,1,1,0-2.11h17.876a1.055,1.055,0,1,1,0,2.11Zm0,0" transform="translate(-31.963 -225.319)" fill="#603eb7"/>
      <g id="Grupo_134716" data-name="Grupo 134716" transform="translate(1720.74 2458.529)">
        <g id="Grupo_134715" data-name="Grupo 134715" clip-path="url(#clip-path)">
          <path id="Trazado_190696" data-name="Trazado 190696" d="M1778.814,2764.778H1760.58a1.055,1.055,0,1,1,0-2.11h18.234a1.055,1.055,0,1,1,0,2.11Zm0,0" transform="translate(-1752.703 -2709.173)" fill="#603eb7"/>
          <path id="Trazado_190697" data-name="Trazado 190697" d="M1778.362,2525.974l-6.622-6.621a1.747,1.747,0,0,0-2.467,0l-.117.118-1.645-1.6a12.321,12.321,0,0,0,2.539-5,1.054,1.054,0,1,0-2.049-.5,10.243,10.243,0,0,1-9.962,7.8,10.357,10.357,0,0,1-2.445-.29c-.029-.01-.058-.019-.088-.027a10.444,10.444,0,0,1-1.742-.608,10.346,10.346,0,0,1-4.381-3.815,10.455,10.455,0,0,1-1.223-2.79,10.617,10.617,0,0,1-.36-2.121c-.011-.2-.017-.4-.017-.606a10.2,10.2,0,0,1,2.85-7.1l.019-.02.024-.024.035-.036.018-.018.054-.056.055-.054.03-.029.017-.016a10.293,10.293,0,0,1,7.555-2.891q.372.015.739.055a10.712,10.712,0,0,1,1.841.388,10.521,10.521,0,0,1,2.681,1.241,10.361,10.361,0,0,1,2.161,1.925,1.043,1.043,0,0,0,.146.141,10.21,10.21,0,0,1,2.092,4.487,1.055,1.055,0,1,0,2.069-.41,12.328,12.328,0,0,0-2.448-5.321V2467.99a1.055,1.055,0,0,0-.309-.76l-8.072-8.072-.017-.017,0,0-.013-.012-.005,0-.036-.031,0,0-.017-.013h0c-.02-.016-.041-.031-.061-.045h0a1.056,1.056,0,0,0-.278-.132h0c-.024-.008-.049-.014-.074-.02h0a1.02,1.02,0,0,0-.243-.026h-10.375a1.055,1.055,0,1,0,0,2.11h9.332v6.369a1.705,1.705,0,0,0,1.7,1.7h6.369v31.075q-.419-.32-.87-.606a12.2,12.2,0,0,0-5.191-1.866h-.014V2476a.205.205,0,0,0,0-.021v0a.167.167,0,0,0,0-.022.047.047,0,0,0,0-.009.123.123,0,0,0,0-.014.039.039,0,0,0,0-.01l0-.015a.132.132,0,0,0,0-.014l0-.013v-.012l0-.01,0-.012a.078.078,0,0,1,0-.01c0-.007,0-.014,0-.021l0-.01a.064.064,0,0,0,0-.012s0-.006,0-.009,0-.008,0-.013a.093.093,0,0,0,0-.014l0-.015a.07.07,0,0,1,0-.014.064.064,0,0,1,0-.009l0-.012a.057.057,0,0,0,0-.01l-.007-.02,0-.009a.07.07,0,0,1-.005-.013l0-.009a.085.085,0,0,0-.005-.013.02.02,0,0,0,0-.008.188.188,0,0,0-.009-.021l0-.006a.138.138,0,0,0-.007-.015l0-.007-.008-.017,0,0-.01-.021,0-.005a.185.185,0,0,0-.009-.016.024.024,0,0,1,0-.006c0-.005-.006-.011-.01-.016l0,0-.013-.021a.008.008,0,0,0,0,0l-.009-.015-.005-.008-.008-.012-.005-.008-.013-.017-.006-.008a.112.112,0,0,0-.008-.011l-.007-.009a.034.034,0,0,1-.008-.009l-.008-.009-.006-.008-.016-.019-.006-.006a.077.077,0,0,0-.01-.01l-.005-.006-.01-.011,0,0-.011-.011-8.072-8.072a.091.091,0,0,1-.011-.011l0,0-.012-.01,0,0-.012-.01,0-.005-.019-.016-.008-.006-.009-.008-.008-.007-.01-.008-.01-.007-.007-.006-.018-.012-.007-.005-.012-.008-.008,0-.014-.009-.006,0-.019-.012-.005,0-.016-.008-.005,0-.017-.01,0,0-.021-.011,0,0-.017-.008-.005,0-.018-.008h0l-.022-.01h0l-.019-.008-.005,0-.02-.007h0l-.022-.007-.005,0-.017,0-.007,0-.018-.006h0l-.022-.006h0l-.019,0h-.006l-.047-.01h0l-.021,0h0l-.049-.006h0a.967.967,0,0,0-.113,0h-18.872v-5.948h11.757a1.055,1.055,0,1,0,0-2.11h-11.991a1.878,1.878,0,0,0-1.876,1.876v6.183h-6.309a1.878,1.878,0,0,0-1.876,1.875v51.347a1.8,1.8,0,0,0,1.8,1.8h32.084a12.412,12.412,0,0,0,10.909-2.564l1.642,1.6-.142.143a1.746,1.746,0,0,0,0,2.467l6.672,6.671a2.229,2.229,0,0,0,3.148,0l1.021-1.021a2.3,2.3,0,0,0,0-3.249Zm-18.714-63.523,4.47,4.47h-4.47Zm-3.715,12.529h-4.47v-4.47Zm-32.591,44.838v-50.8h26.01v6.37a1.7,1.7,0,0,0,1.7,1.7h6.37v20.452a12.162,12.162,0,0,0-8.022,3.509l-.016.016-.032.031-.064.063-.066.066-.023.023c-.013.014-.026.028-.04.041l-.031.033-.016.017a12.408,12.408,0,0,0,1.489,18.478h-27.262Zm53.528,7.913-1.021,1.021a.12.12,0,0,1-.164,0l-6.413-6.414,1.236-1.235,6.363,6.363a.193.193,0,0,1,0,.265Zm0,0" transform="translate(-1721.145 -2458.792)" fill="#603eb7"/>
        </g>
      </g>
    </g>
  </g>
</svg>
