<svg xmlns="http://www.w3.org/2000/svg" xmlns:xlink="http://www.w3.org/1999/xlink" width="1373.182" height="413.01" viewBox="0 0 1373.182 413.01">
  <defs>
    <clipPath id="clip-path">
      <path id="Trazado_190760" data-name="Trazado 190760" d="M.42,413.01H1372.886l.3-396.543c0-9.095-9.254-16.467-20.67-16.467L20.67.347C9.254.347,0,7.72,0,16.815Z" transform="translate(-270.398)" fill="#7fc733"/>
    </clipPath>
    <linearGradient id="linear-gradient" x1="0.073" y1="0.938" x2="0.981" y2="1.029" gradientUnits="objectBoundingBox">
      <stop offset="0" stop-color="#6836bf"/>
      <stop offset="0.256" stop-color="#6836bf"/>
      <stop offset="0.637" stop-color="#6836bf"/>
      <stop offset="1" stop-color="#6836bf"/>
    </linearGradient>
  </defs>
  <g id="Enmascarar_grupo_190" data-name="Enmascarar grupo 190" transform="translate(1102.784 413.01) rotate(180)" opacity="0.152" clip-path="url(#clip-path)">
    <g id="Grupo_134783" data-name="Grupo 134783" transform="translate(-285.594 -818.257)">
      <path id="Trazado_190756" data-name="Trazado 190756" d="M-12.694,499.123s203.276,76.735,314.36-82.962S556.465,67.446,775.515,83.016s286.721,0,286.721,0,60.469-36.621,89.452-65.6S1117.249.073,1117.249.073H-28.224v488.25Z" transform="translate(28.224 696.74)" fill="url(#linear-gradient)"/>
      <path id="Unión_33" data-name="Unión 33" d="M168.646,4.07A262.293,262.293,0,0,0,113.16,20.838,224.151,224.151,0,0,0,62.9,50.316,171.982,171.982,0,0,0,24.051,92.469,146.663,146.663,0,0,0,2.778,147.26a188.87,188.87,0,0,0-1.7,52.315,161.015,161.015,0,0,0,13.655,50.152c.831,1.805,1.729,3.64,2.755,5.615a138.814,138.814,0,0,0,41.042,47.571,164.109,164.109,0,0,0,27.024,16.178,183.575,183.575,0,0,0,29.771,11.114,203.4,203.4,0,0,0,55.386,7.2c28.6,0,56.556-4.766,86.151-9.813l.045-.013,2.191-.37c20.338-3.469,36.96-5.078,52.312-5.078,15.615,0,29.395,1.688,42.12,5.161a116.819,116.819,0,0,1,19.831,7.345,106.443,106.443,0,0,1,18.519,11.324,133.089,133.089,0,0,1,20.887,19.915,183.838,183.838,0,0,1,16.769,23.35c10.129,16.481,18.567,34.8,26.726,52.52l.025.052c7.338,15.92,14.923,32.383,23.732,47.543a213.806,213.806,0,0,0,14.4,21.838,151.61,151.61,0,0,0,17.42,19.449,147.081,147.081,0,0,0,99.347,39.28h.464a150.84,150.84,0,0,0,31.661-3.576,153.7,153.7,0,0,0,31.757-10.608c22.235-10.313,38.938-25.083,48.322-42.712a71.666,71.666,0,0,0,6.338-16.479,82.626,82.626,0,0,0,2.313-16.426c.5-10.933-.8-22.064-2.077-32.823v-.036c-1.742-14.77-3.538-30.049-.794-45.349a76.413,76.413,0,0,1,4.844-16.474,70.722,70.722,0,0,1,7.815-13.831c5.755-7.926,13.206-14.87,22.8-21.22,17.783-11.775,40.163-19.548,61.8-27.063l.042-.018c11.654-4.047,23.7-8.229,34.643-12.935,12.26-5.269,21.916-10.7,29.523-16.6q3.026-2.346,5.944-4.947h185.3V188.365s6.519-112.823-146.441-75.61c-.051.011-.1.023-.148.036l-.41.1c-5.341,1.308-10.816,2.782-16.361,4.406a580.948,580.948,0,0,1-82.656,17.43c-.15.022-.286.042-.436.062l-.9.125q-14.726,2.029-29.348,3.423c-.025,0-.051.006-.074.009l-1.069.1c-.244.025-.48.049-.719.071l-.28.025c-19.928,1.859-40.637,3.013-61.9,3.443-26.657.533-52.113-.109-75.361-1.382l-.574-.032c-.363-.018-.735-.038-1.1-.059-.561-.035-1.123-.065-1.687-.1l-.092-.006q-4.3-.25-8.6-.535c-9.884-.656-19.774-1.442-29.6-2.356-15.822-1.474-29.883-3.129-41.67-4.7q-4.522-.6-8.952-1.236l-.055,0c-19.5-2.78-30.8-5.013-30.8-5.013l-.072.007a282.548,282.548,0,0,1-40.94-13.409c-25.481-10.389-49.554-23.7-67.676-34.135C400.164,59.574,364.08,39.344,327.132,24.458A360.508,360.508,0,0,0,271.216,6.7a280.738,280.738,0,0,0-28.83-4.953A254.15,254.15,0,0,0,212.879,0,243.616,243.616,0,0,0,168.646,4.07Z" transform="translate(0 1010.053) rotate(-69)" fill="#3e2072" stroke="rgba(0,0,0,0)" stroke-miterlimit="10" stroke-width="1" opacity="0.15" style="mix-blend-mode: color-burn;isolation: isolate"/>
    </g>
  </g>
</svg>
