<svg xmlns="http://www.w3.org/2000/svg" xmlns:xlink="http://www.w3.org/1999/xlink" width="51.712" height="50.081" viewBox="0 0 51.712 50.081">
  <defs>
    <clipPath id="clip-path">
      <rect id="Rectángulo_42378" data-name="Rectángulo 42378" width="51.712" height="39.352" fill="none"/>
    </clipPath>
  </defs>
  <g id="Grupo_134839" data-name="Grupo 134839" transform="translate(-1485.893 9290.642)">
    <g id="Grupo_134837" data-name="Grupo 134837" transform="translate(1485.893 -9290.642)">
      <g id="Grupo_134835" data-name="Grupo 134835">
        <g id="Grupo_134834" data-name="Grupo 134834">
          <g id="Grupo_134833" data-name="Grupo 134833" clip-path="url(#clip-path)">
            <path id="Trazado_190833" data-name="Trazado 190833" d="M-554.734,488.439a.756.756,0,0,0-.222-.535l-.88-.879a.756.756,0,0,0-1.07,0,.756.756,0,0,0,0,1.07l.344.344-2.629,2.629-8.081-8.08,2.63-2.63,5.762,5.762a.756.756,0,0,0,.535.222.755.755,0,0,0,.536-.222.757.757,0,0,0,0-1.07l-6.3-6.3a.756.756,0,0,0-1.07,0l-3.165,3.165-.063-.063a1.884,1.884,0,0,0-1.341-.555,1.884,1.884,0,0,0-1.341.555l-2.538,2.538a1.884,1.884,0,0,0-.555,1.341,1.892,1.892,0,0,0,.1.612l-5.261-.241a.76.76,0,0,0-.57.221l-2.483,2.483-4.737-.57a1.9,1.9,0,0,0-.379-2.134l-2.538-2.538a1.883,1.883,0,0,0-1.341-.555,1.884,1.884,0,0,0-1.341.555l-.062.063-3.165-3.165a.757.757,0,0,0-1.071,0l-1.243,1.243a.757.757,0,0,0,0,1.07.757.757,0,0,0,1.07,0l.708-.708,2.629,2.63-8.08,8.081-2.63-2.63,5.385-5.385a.757.757,0,0,0,0-1.07.757.757,0,0,0-1.07,0l-5.92,5.92a.756.756,0,0,0,0,1.07l3.165,3.165-.062.062a1.883,1.883,0,0,0-.555,1.341,1.884,1.884,0,0,0,.555,1.341l2.538,2.538a1.891,1.891,0,0,0,1.341.554,1.921,1.921,0,0,0,.553-.082l4.814,4.815a2.692,2.692,0,0,0-.583,1.68,2.7,2.7,0,0,0,.795,1.919l.044.044a2.7,2.7,0,0,0,1.918.794h.032a2.7,2.7,0,0,0,.792,1.949l.044.044h0a2.7,2.7,0,0,0,1.918.793h.033a2.7,2.7,0,0,0,.793,1.951l.044.044a2.693,2.693,0,0,0,1.918.794h.032a2.7,2.7,0,0,0,.792,1.949l.044.044a2.7,2.7,0,0,0,1.919.793,2.7,2.7,0,0,0,1.679-.581l.176.176a2.71,2.71,0,0,0,1.922.8,2.711,2.711,0,0,0,1.923-.8,2.7,2.7,0,0,0,.8-1.923c0-.016,0-.033,0-.05h.048a2.711,2.711,0,0,0,1.923-.8,2.712,2.712,0,0,0,.794-1.971h.049a2.7,2.7,0,0,0,1.923-.8,2.713,2.713,0,0,0,.794-1.971h.05a2.7,2.7,0,0,0,1.923-.8,2.722,2.722,0,0,0,0-3.845l-.162-.162,1.42-1.42a.757.757,0,0,0,0-1.07.757.757,0,0,0-1.071,0l-1.42,1.42-7.419-7.42h2.2a.756.756,0,0,0,.535-.222l1.626-1.625a.756.756,0,0,0,0-1.07.757.757,0,0,0-1.071,0l-1.4,1.4h-6.137a.757.757,0,0,0-.535.222l-2.023,2.023a1.2,1.2,0,0,1-.858.355,1.205,1.205,0,0,1-.858-.355,1.211,1.211,0,0,1-.356-.859,1.21,1.21,0,0,1,.355-.858l4.885-4.884.021-.021,2.488-2.489,6.3.288,8.883,8.883-3.086,3.086a.757.757,0,0,0,0,1.07.754.754,0,0,0,.535.222.754.754,0,0,0,.535-.222l3.167-3.167a1.9,1.9,0,0,0,.806.182,1.889,1.889,0,0,0,1.341-.555l2.538-2.538a1.883,1.883,0,0,0,.555-1.341,1.883,1.883,0,0,0-.555-1.341l-.062-.062,3.165-3.165a.759.759,0,0,0,.222-.536ZM-602,495.525a.379.379,0,0,1-.112-.271.381.381,0,0,1,.112-.271l10.345-10.345a.382.382,0,0,1,.271-.112.382.382,0,0,1,.271.112l2.537,2.538a.383.383,0,0,1,0,.541l-10.345,10.345a.383.383,0,0,1-.541,0Zm9.5,11.467-.044-.044a1.2,1.2,0,0,1,0-1.7,1.2,1.2,0,0,1,.847-.35,1.194,1.194,0,0,1,.848.351l.044.044a1.2,1.2,0,0,1,.145,1.518c-.058.049-.114.1-.168.155s-.105.11-.154.168a1.2,1.2,0,0,1-1.518-.145Zm2.787,2.787-.044-.044a1.2,1.2,0,0,1-.146-1.518c.058-.049.115-.1.169-.154s.105-.111.154-.169a1.2,1.2,0,0,1,1.518.145l.044.044a1.2,1.2,0,0,1,.145,1.519c-.058.049-.114.1-.169.154s-.105.111-.154.169a1.2,1.2,0,0,1-1.518-.145Zm2.787,2.787-.044-.044a1.2,1.2,0,0,1-.146-1.519c.058-.049.114-.1.168-.154s.105-.111.154-.168a1.2,1.2,0,0,1,.67-.2,1.194,1.194,0,0,1,.848.351l.044.044a1.2,1.2,0,0,1,.146,1.518c-.058.049-.114.1-.169.155s-.105.11-.154.168a1.2,1.2,0,0,1-1.518-.145Zm4.482,2.787a1.2,1.2,0,0,1-1.7,0l-.044-.044a1.2,1.2,0,0,1-.146-1.518c.058-.049.115-.1.169-.154s.105-.111.155-.169a1.2,1.2,0,0,1,1.518.145l.044.045a1.2,1.2,0,0,1,0,1.7Zm-5.095-21.395a2.713,2.713,0,0,0-.8,1.928,2.713,2.713,0,0,0,.8,1.928,2.709,2.709,0,0,0,1.929.8,2.706,2.706,0,0,0,1.928-.8l1.8-1.8h1.8l9.722,9.723a1.206,1.206,0,0,1,0,1.7,1.2,1.2,0,0,1-.852.353,1.2,1.2,0,0,1-.746-.26c-.032-.035-5.931-5.919-5.931-5.919a.757.757,0,0,0-1.071,0,.757.757,0,0,0,0,1.071l5.825,5.825c.034.033.068.065.1.1a1.207,1.207,0,0,1-.093,1.6,1.2,1.2,0,0,1-.853.353,1.193,1.193,0,0,1-.745-.26c-.032-.034-5.932-5.919-5.932-5.919a.757.757,0,0,0-1.07,0,.757.757,0,0,0,0,1.07l5.826,5.825c.034.034.068.066.1.1a1.206,1.206,0,0,1-.094,1.6,1.207,1.207,0,0,1-1.6.094c-.032-.035-5.932-5.92-5.932-5.92a.756.756,0,0,0-1.07,0,.756.756,0,0,0,0,1.07l5.825,5.826c.034.034.068.066.1.1a1.2,1.2,0,0,1,.259.745,1.2,1.2,0,0,1-.352.851,1.206,1.206,0,0,1-.855.355,1.205,1.205,0,0,1-.853-.353l-.358-.358a2.715,2.715,0,0,0-.648-2.794l-.044-.044a2.7,2.7,0,0,0-1.919-.795h-.031c0-.01,0-.021,0-.031a2.694,2.694,0,0,0-.795-1.919l-.044-.044a2.7,2.7,0,0,0-1.95-.792,2.7,2.7,0,0,0-.792-1.95l-.044-.044a2.7,2.7,0,0,0-1.918-.795h-.032a2.705,2.705,0,0,0-.793-1.95l-.044-.044a2.7,2.7,0,0,0-1.918-.795,2.72,2.72,0,0,0-.876.145l-4.839-4.84,9.074-9.073,4.586.552Zm28.409-.145-2.538,2.538a.383.383,0,0,1-.541,0l-.078-.078,0,0,0,0-10.26-10.26a.381.381,0,0,1-.112-.271.382.382,0,0,1,.112-.271l2.537-2.538a.38.38,0,0,1,.271-.112.38.38,0,0,1,.27.112l10.345,10.346a.38.38,0,0,1,.112.271.381.381,0,0,1-.112.27Zm0,0" transform="translate(606.395 -478.368)" fill="#f7ca18"/>
          </g>
        </g>
        <path id="Trazado_190834" data-name="Trazado 190834" d="M-262.81,586.191a.757.757,0,0,0-1.07,0,.757.757,0,0,0,0,1.07l.483.483a.755.755,0,0,0,.536.222.754.754,0,0,0,.535-.222.756.756,0,0,0,0-1.07Zm0,0" transform="translate(307.274 -572.255)" fill="#f7ca18"/>
        <path id="Trazado_190835" data-name="Trazado 190835" d="M-553.631,601.322l.483-.483a.757.757,0,0,0,0-1.07.757.757,0,0,0-1.07,0l-.484.484a.757.757,0,0,0,0,1.07.755.755,0,0,0,.536.222.754.754,0,0,0,.535-.222Zm0,0" transform="translate(561.415 -584.12)" fill="#f7ca18"/>
      </g>
    </g>
    <g id="Grupo_134838" data-name="Grupo 134838" transform="translate(1496.165 -9271.727)">
      <path id="Trazado_190839" data-name="Trazado 190839" d="M-803.9,806.37a15.583,15.583,0,0,1-15.583,15.583,15.583,15.583,0,0,1-15.584-15.583,15.59,15.59,0,0,1,.567-4.179,15.541,15.541,0,0,1,2.753-5.438,15.556,15.556,0,0,1,12.263-5.966A15.583,15.583,0,0,1-803.9,806.37Zm0,0" transform="translate(835.071 -790.786)" fill="#f7ca18"/>
      <path id="Trazado_190840" data-name="Trazado 190840" d="M-803.553,832.88A10.589,10.589,0,0,1-814.13,822.3a10.589,10.589,0,0,1,10.577-10.577A10.589,10.589,0,0,1-792.976,822.3a10.589,10.589,0,0,1-10.577,10.577Zm0,0" transform="translate(819.137 -806.72)" fill="none" stroke="#fff" stroke-miterlimit="10" stroke-width="3"/>
      <path id="Trazado_190841" data-name="Trazado 190841" d="M-779.037,835.481a.9.9,0,0,0,.9.9.9.9,0,0,0,.9-.9,2.946,2.946,0,0,0-2.47-2.7v-.333a.9.9,0,0,0-.9-.9.9.9,0,0,0-.9.9v.333a2.946,2.946,0,0,0-2.47,2.7c0,.955,1.012,1.609,2.47,2.431v2.2a1.022,1.022,0,0,1-.674-.817.9.9,0,0,0-.9-.9.9.9,0,0,0-.9.9,2.945,2.945,0,0,0,2.47,2.7v.333a.9.9,0,0,0,.9.9.9.9,0,0,0,.9-.9v-.333a2.946,2.946,0,0,0,2.47-2.7c0-.956-1.012-1.609-2.47-2.432v-2.2a1.023,1.023,0,0,1,.674.817Zm-3.127-.136a1.136,1.136,0,0,1,.657-.68v1.16a4.167,4.167,0,0,1-.657-.48Zm3.11,4.083a1.137,1.137,0,0,1-.656.68v-1.16a4.129,4.129,0,0,1,.656.48Zm0,0" transform="translate(796.193 -821.803)" fill="#fff"/>
    </g>
  </g>
</svg>
