<svg id="Grupo_134818" data-name="Grupo 134818" xmlns="http://www.w3.org/2000/svg" xmlns:xlink="http://www.w3.org/1999/xlink" width="42.013" height="45.566" viewBox="0 0 42.013 45.566">
  <defs>
    <clipPath id="clip-path">
      <rect id="Rectángulo_42373" data-name="Rectángulo 42373" width="42.013" height="45.566" fill="none"/>
    </clipPath>
  </defs>
  <path id="Trazado_190770" data-name="Trazado 190770" d="M-578.836,1748.218h-9.011a1.414,1.414,0,0,1-1.414-1.413,1.414,1.414,0,0,1,1.414-1.414h9.011a1.414,1.414,0,0,1,1.413,1.414,1.414,1.414,0,0,1-1.413,1.413Zm0,0" transform="translate(597.07 -1736.678)" fill="#76ffd9"/>
  <g id="Grupo_134817" data-name="Grupo 134817" transform="translate(0)">
    <g id="Grupo_134816" data-name="Grupo 134816" clip-path="url(#clip-path)">
      <path id="Trazado_190771" data-name="Trazado 190771" d="M-645.837,1709.648c-5.265-.353-9.212-2.709-10.828-6.465-1.557-3.616-1.131-8.184,1.267-13.576a51.017,51.017,0,0,1,6.369-10.3h7.011c.494.793,1.189,1.932,1.977,3.285a.665.665,0,0,0,.576.331.661.661,0,0,0,.334-.09.666.666,0,0,0,.24-.91c-.592-1.017-1.132-1.913-1.576-2.637a2.081,2.081,0,0,0,1.782-2.057,2.074,2.074,0,0,0-.64-1.5c2.38-1.735,3.529-3.379,3.415-4.9-.171-2.273-1.657-2.339-2.852-2.392a4.787,4.787,0,0,1-2.76-.744c-1.44-1.014-2.615-.458-3.859.131a9.293,9.293,0,0,1-7.034.754c-1.1-.259-2.418-.438-2.891.481-.406.787.114,1.887,1.741,3.678.832.916,1.84,1.882,2.733,2.7a2.079,2.079,0,0,0-1.022,1.789,2.082,2.082,0,0,0,1.267,1.914c-3.938,5.14-10.964,16.057-7.3,24.563,1.821,4.231,6.181,6.879,11.961,7.266l.045,0a.666.666,0,0,0,.663-.621.666.666,0,0,0-.619-.709Zm-8.257-39.921a3.79,3.79,0,0,1,1.374.156,10.568,10.568,0,0,0,7.909-.846c1.222-.578,1.748-.791,2.523-.246a6.048,6.048,0,0,0,3.467.985c1.213.054,1.5.066,1.584,1.162s-1.221,2.639-3.583,4.216h-1.587a9.864,9.864,0,0,0,1.426-3.18.666.666,0,0,0-.488-.8.665.665,0,0,0-.8.488,8.6,8.6,0,0,1-1.81,3.5H-645.4v-2.231a.665.665,0,0,0-.665-.665.665.665,0,0,0-.665.665v2.231h-2.428c-3.672-3.249-4.806-4.9-4.931-5.427Zm0,0" transform="translate(658.998 -1667.106)" fill="#f7ca18"/>
    </g>
  </g>
  <path id="Trazado_190772" data-name="Trazado 190772" d="M-551.129,1821.981a.665.665,0,0,0-.745.575.665.665,0,0,0,.575.745,10.9,10.9,0,0,1,9.477,10.791,10.893,10.893,0,0,1-10.881,10.881,10.894,10.894,0,0,1-10.881-10.881,10.94,10.94,0,0,1,9.955-10.841.666.666,0,0,0,.607-.719.667.667,0,0,0-.719-.607,12.157,12.157,0,0,0-4.6,1.331c-.815-1.694-1.75-3.491-2.785-5.353a.666.666,0,0,0-.9-.258.666.666,0,0,0-.258.905c1.044,1.878,1.983,3.687,2.8,5.388a12.282,12.282,0,0,0-2.187,1.871,12.163,12.163,0,0,0-3.035,6.052c-.222-.889-1.468-1.667-3.4-2.753v-4.187c1.193.22,2.106,1.012,2.106,1.925a.665.665,0,0,0,.665.665.665.665,0,0,0,.665-.665,3.626,3.626,0,0,0-3.437-3.272v-.95a.665.665,0,0,0-.666-.665.665.665,0,0,0-.665.665v.95a3.627,3.627,0,0,0-3.437,3.272c0,1.015,1.3,1.839,3.437,3.042v4.186c-1.193-.22-2.106-1.012-2.106-1.925a.666.666,0,0,0-.665-.665.666.666,0,0,0-.665.665,3.626,3.626,0,0,0,3.437,3.272v.95a.665.665,0,0,0,.665.665.665.665,0,0,0,.666-.665v-.95a3.972,3.972,0,0,0,3.23-2.234q-.033.45-.034.9a12.166,12.166,0,0,0,3.255,8.291,19.215,19.215,0,0,1-5.292,1.018.666.666,0,0,0-.629.7.665.665,0,0,0,.664.63h.036a20.269,20.269,0,0,0,6.29-1.324,12.158,12.158,0,0,0,7.888,2.9,12.225,12.225,0,0,0,12.212-12.211,12.232,12.232,0,0,0-10.638-12.111Zm-19.491,5.655c-.756-.51-.9-.757-.927-.815a2.3,2.3,0,0,1,2.106-1.9v3.438c-.429-.247-.836-.491-1.179-.723Zm2.51,6.439v-3.437c.429.247.836.491,1.179.723.756.51.9.757.927.815a2.3,2.3,0,0,1-2.106,1.9Zm0,0" transform="translate(582.504 -1800.844)" fill="#f7ca18"/>
  <path id="Trazado_190773" data-name="Trazado 190773" d="M-387.095,1888.3a.665.665,0,0,0,.665-.665,9.864,9.864,0,0,0-9.853-9.854.665.665,0,0,0-.665.665.665.665,0,0,0,.665.665,8.533,8.533,0,0,1,8.523,8.523.665.665,0,0,0,.665.665Zm0,0" transform="translate(426.084 -1854.383)" fill="#f7ca18"/>
  <path id="Trazado_190774" data-name="Trazado 190774" d="M-478.469,1961.3a.665.665,0,0,0-.665-.666.665.665,0,0,0-.665.666,9.864,9.864,0,0,0,9.853,9.853.665.665,0,0,0,.665-.665.665.665,0,0,0-.665-.666,8.532,8.532,0,0,1-8.522-8.522Zm0,0" transform="translate(499.748 -1928.047)" fill="#f7ca18"/>
  <path id="Trazado_190775" data-name="Trazado 190775" d="M-409.792,1930.54a.666.666,0,0,0,.665.666.666.666,0,0,0,.665-.666,2.183,2.183,0,0,0-1.83-2v-.246a.665.665,0,0,0-.665-.665.665.665,0,0,0-.665.665v.246a2.183,2.183,0,0,0-1.83,2c0,.708.75,1.192,1.83,1.8v1.627a.757.757,0,0,1-.5-.605.665.665,0,0,0-.665-.665.665.665,0,0,0-.665.665,2.182,2.182,0,0,0,1.83,2v.247a.665.665,0,0,0,.665.665.665.665,0,0,0,.665-.665v-.247a2.182,2.182,0,0,0,1.83-2c0-.708-.75-1.193-1.83-1.8v-1.627a.758.758,0,0,1,.5.606Zm-2.317-.1a.843.843,0,0,1,.487-.5v.859a3.092,3.092,0,0,1-.487-.356Zm2.3,3.025a.842.842,0,0,1-.486.5v-.859a3.075,3.075,0,0,1,.486.356Zm0,0" transform="translate(440.758 -1898.703)" fill="#f7ca18"/>
</svg>
