<svg xmlns="http://www.w3.org/2000/svg" xmlns:xlink="http://www.w3.org/1999/xlink" width="1464.346" height="412.863" viewBox="0 0 1464.346 412.863">
  <defs>
    <clipPath id="clip-path">
      <path id="Trazado_190849" data-name="Trazado 190849" d="M.041,0H1463.625l.315,396.4c0,9.091-9.868,16.461-22.042,16.461L21.636,412.516c-12.173,0-22.042-7.37-22.042-16.461Z" transform="translate(136 2167)" fill="#7fc733"/>
    </clipPath>
    <linearGradient id="linear-gradient" x1="0.073" y1="0.062" x2="0.981" y2="-0.029" gradientUnits="objectBoundingBox">
      <stop offset="0" stop-color="#b13e8d"/>
      <stop offset="0.256" stop-color="#b13e8d"/>
      <stop offset="0.637" stop-color="#b13e8d"/>
      <stop offset="1" stop-color="#b13e8d" stop-opacity="0.51"/>
    </linearGradient>
  </defs>
  <g id="Enmascarar_grupo_191" data-name="Enmascarar grupo 191" transform="translate(-135.594 -2167)" opacity="0.154" clip-path="url(#clip-path)">
    <g id="Grupo_134843" data-name="Grupo 134843" transform="translate(40.994 2116.494)">
      <path id="Trazado_190842" data-name="Trazado 190842" d="M-8238.074-9493.96s272.092-76.707,420.784,82.933,341.056,348.592,634.264,333.026,384.456-137.26,384.456-137.26,34.173-65.133,72.967-36.158,0,256.33,0,256.33H-8258.861v-488.075Z" transform="translate(8333.12 9579.858)" fill="url(#linear-gradient)"/>
      <path id="Uni贸n_34" data-name="Uni贸n 34" d="M157.178,783.649A197.541,197.541,0,0,1,101.2,768.226,173.245,173.245,0,0,1,52.112,735.75a160.06,160.06,0,0,1-35.749-50.183C7.024,665.02,1.646,641.959.384,617.023A304.675,304.675,0,0,1,4.54,549.468a285.916,285.916,0,0,1,19.932-66.5c1.071-2.432,2.215-4.91,3.51-7.583a229.043,229.043,0,0,1,48.207-66.26,223.116,223.116,0,0,1,30.025-24.015,214.36,214.36,0,0,1,32.317-17.768,194.9,194.9,0,0,1,58.594-15.61c29.838-3.243,58.456-.24,88.756,2.94l.046.012,2.244.23c20.823,2.186,37.979,2.386,53.994.646a150.95,150.95,0,0,0,44.524-11.46,136.295,136.295,0,0,0,21.519-11.759,145.721,145.721,0,0,0,20.6-16.766,209.812,209.812,0,0,0,24.048-28.158A315.311,315.311,0,0,0,473,255.279c12.435-22.491,23.314-47.176,33.835-71.044l.032-.07c9.459-21.45,19.239-43.629,30.146-64.26,5.87-11.1,11.6-20.89,17.5-29.914A248.874,248.874,0,0,1,574.886,62.83c30.7-35.353,70.1-58,108.089-62.132l.483-.053a121.4,121.4,0,0,1,32.623,1.042,115.308,115.308,0,0,1,31.925,10.136c22.026,10.835,37.776,28.068,45.566,49.834a92.207,92.207,0,0,1,4.743,20.621,125.307,125.307,0,0,1,.55,21.01c-.716,14.1-3.341,28.665-5.888,42.743l0,.046c-3.492,19.325-7.1,39.315-5.971,58.818a104.808,104.808,0,0,0,3.186,20.785,80.15,80.15,0,0,0,6.584,17.024,75.888,75.888,0,0,0,21.373,24.9c17.216,13.232,39.681,20.761,61.4,28.039l.042.019c11.7,3.919,23.791,7.969,34.673,12.823,12.191,5.434,21.648,11.374,28.915,18.145q2.891,2.694,5.64,5.733l193.295-21.009-11.39,130.09s-5.99,145.37-161.334,114.521c-.053-.01-.1-.02-.151-.031l-.417-.079c-5.423-1.089-10.968-2.377-16.568-3.852C926.568,545.228,898.3,540.8,868,538.8c-.155-.011-.294-.022-.448-.03l-.921-.06q-15.13-.959-30.226-1.105c-.026,0-.053,0-.076,0l-1.1-.009c-.252,0-.5-.009-.741-.01-.1,0-.193,0-.29,0-20.577-.147-42.05.706-64.186,2.56-27.747,2.332-54.374,6.05-78.771,10.335-.2.034-.4.071-.6.106-.381.065-.771.133-1.153.2-.59.108-1.179.211-1.771.318l-.1.017q-4.514.81-9.031,1.667C668.2,554.76,657.8,556.9,647.437,559.2c-16.672,3.7-31.527,7.439-44,10.807q-4.787,1.293-9.48,2.615l-.057.011c-20.659,5.811-32.7,9.983-32.7,9.983h-.074A318.183,318.183,0,0,0,516.9,604.619c-27.758,16.343-54.38,36.309-74.468,51.878-37.451,29.025-77.388,59.314-117.617,82.78-21.369,12.46-41.106,22.054-60.343,29.335a278.086,278.086,0,0,1-30.637,9.683,229.457,229.457,0,0,1-30.978,5.611A198.3,198.3,0,0,1,157.178,783.649Z" transform="translate(835.516 0) rotate(69)" fill="#6e590d" stroke="rgba(0,0,0,0)" stroke-miterlimit="10" stroke-width="1" opacity="0.15" style="mix-blend-mode: color-burn;isolation: isolate"/>
      <path id="Uni贸n_35" data-name="Uni贸n 35" d="M134.565,331.17A265.6,265.6,0,0,1,90.58,320.878a202.286,202.286,0,0,1-39.938-17.764c-12.587-7.448-23.019-15.918-31.01-25.172C10.99,267.938,5.2,257,2.43,245.428A83.964,83.964,0,0,1,.719,214.513,75.839,75.839,0,0,1,11.165,184.98c.644-1.059,1.341-2.139,2.137-3.3,7.489-10.87,18.292-20.228,32.117-27.816A140.915,140.915,0,0,1,66.67,144.5a175.765,175.765,0,0,1,23.459-6.357,211.117,211.117,0,0,1,43.738-3.869c22.613.2,44.747,3.211,68.179,6.4l.037.009,1.735.234a325.816,325.816,0,0,0,41.392,3.365,164.639,164.639,0,0,0,33.264-2.754,112.136,112.136,0,0,0,15.627-4.2,90.568,90.568,0,0,0,14.562-6.561,96.048,96.048,0,0,0,16.374-11.617,112.746,112.746,0,0,0,13.095-13.677c7.892-9.664,14.435-20.429,20.762-30.837l.019-.031c5.69-9.353,11.572-19.024,18.429-27.918a126.782,126.782,0,0,1,11.234-12.8,102.265,102.265,0,0,1,13.636-11.366C423.165,7.957,451.689-.248,480.484.006l.368,0a158.745,158.745,0,0,1,25.054,2.334,153.917,153.917,0,0,1,25.182,6.488c17.651,6.247,30.96,15.089,38.5,25.568a36.831,36.831,0,0,1,7.068,19.5c.472,6.461-.482,13.026-1.412,19.374v.022c-1.275,8.713-2.588,17.725-.312,26.783a37.725,37.725,0,0,0,3.946,9.765,41.687,41.687,0,0,0,6.274,8.225c4.605,4.723,10.545,8.877,18.171,12.695,14.14,7.079,31.89,11.828,49.05,16.418l.032.011c9.242,2.471,18.8,5.025,27.479,7.883,9.728,3.2,17.4,6.474,23.456,10.01q2.409,1.406,4.734,2.964l146.495,1.295.7,59.34s5.942,66.692-115.25,43.641q-.058-.01-.116-.023l-.325-.06c-4.231-.81-8.57-1.719-12.966-2.717a603.089,603.089,0,0,0-65.469-10.875l-.344-.04-.709-.079q-11.658-1.3-23.227-2.228l-.059-.005-.846-.067-.569-.046-.222-.017c-15.766-1.237-32.148-2.063-48.964-2.465-21.08-.5-41.2-.3-59.571.29l-.454.014c-.285.01-.58.018-.866.029-.444.015-.888.029-1.333.045l-.073,0q-3.4.118-6.8.255c-7.809.319-15.623.715-23.387,1.185-12.5.761-23.6,1.64-32.913,2.484q-3.568.323-7.069.668H453.7c-15.4,1.507-24.313,2.748-24.313,2.748l-.058-.005a275.781,275.781,0,0,0-32.272,7.635c-20.074,5.958-39.011,13.654-53.267,19.691C317.214,300,288.829,311.7,259.72,320.233a353.337,353.337,0,0,1-44.084,10.1c-7.64,1.22-15.3,2.137-22.758,2.725-7.807.617-15.653.894-23.316.827A257.185,257.185,0,0,1,134.565,331.17Z" transform="translate(1126.079 411.134) rotate(-2)" fill="#6a2554" stroke="rgba(0,0,0,0)" stroke-miterlimit="10" stroke-width="1" opacity="0.15" style="mix-blend-mode: color-burn;isolation: isolate"/>
      <circle id="Elipse_5234" data-name="Elipse 5234" cx="97.131" cy="97.131" r="97.131" transform="translate(97.131 225.187) rotate(30)" fill="#fff"/>
      <circle id="Elipse_5235" data-name="Elipse 5235" cx="27.698" cy="27.698" r="27.698" transform="translate(255.227 372.868) rotate(30)" fill="#fff"/>
    </g>
  </g>
</svg>
