<svg xmlns="http://www.w3.org/2000/svg" xmlns:xlink="http://www.w3.org/1999/xlink" width="190" height="112" viewBox="0 0 190 112">
  <defs>
    <linearGradient id="linear-gradient" x1="0.5" x2="0.5" y2="1" gradientUnits="objectBoundingBox">
      <stop offset="0" stop-color="#f7ca2e" stop-opacity="0"/>
      <stop offset="0.091" stop-color="#f7ca2e" stop-opacity="0.129"/>
      <stop offset="0.283" stop-color="#f7ca2e" stop-opacity="0.388"/>
      <stop offset="0.465" stop-color="#f7ca2e" stop-opacity="0.612"/>
      <stop offset="0.633" stop-color="#f7ca2e" stop-opacity="0.78"/>
      <stop offset="0.784" stop-color="#f7ca2e" stop-opacity="0.902"/>
      <stop offset="0.911" stop-color="#f7ca2e" stop-opacity="0.969"/>
      <stop offset="1" stop-color="#f7ca2e"/>
    </linearGradient>
    <linearGradient id="linear-gradient-2" x1="0.5" x2="0.5" y2="1" gradientUnits="objectBoundingBox">
      <stop offset="0" stop-color="#b13e8d" stop-opacity="0"/>
      <stop offset="0.091" stop-color="#b13e8d" stop-opacity="0.129"/>
      <stop offset="0.283" stop-color="#b13e8d" stop-opacity="0.388"/>
      <stop offset="0.465" stop-color="#b13e8d" stop-opacity="0.612"/>
      <stop offset="0.633" stop-color="#b13e8d" stop-opacity="0.78"/>
      <stop offset="0.784" stop-color="#b13e8d"/>
      <stop offset="0.911" stop-color="#b13e8d" stop-opacity="0.969"/>
      <stop offset="1" stop-color="#b13e8d"/>
    </linearGradient>
    <filter id="Rectángulo_40718" x="41" y="4" width="108" height="108" filterUnits="userSpaceOnUse">
      <feOffset dy="3" input="SourceAlpha"/>
      <feGaussianBlur stdDeviation="3" result="blur"/>
      <feFlood flood-opacity="0.161"/>
      <feComposite operator="in" in2="blur"/>
      <feComposite in="SourceGraphic"/>
    </filter>
  </defs>
  <g id="Grupo_134844" data-name="Grupo 134844" transform="translate(-153 -410)">
    <g id="Grupo_134311" data-name="Grupo 134311" transform="translate(-27 -1419)">
      <g id="Grupo_128316" data-name="Grupo 128316" transform="translate(0 -87)">
        <rect id="Rectángulo_40586" data-name="Rectángulo 40586" width="190" height="20" transform="translate(180 1961)" fill="none"/>
        <g id="Grupo_108405" data-name="Grupo 108405" transform="translate(209.5 1980)">
          <path id="Rectángulo_5242" data-name="Rectángulo 5242" d="M0,0H12a0,0,0,0,1,0,0V43.333a3,3,0,0,1-3,3H3a3,3,0,0,1-3-3V0A0,0,0,0,1,0,0Z" transform="translate(0 0)" fill="url(#linear-gradient)"/>
        </g>
        <g id="Grupo_108406" data-name="Grupo 108406" transform="translate(340 1968) rotate(180)">
          <path id="Rectángulo_5242-2" data-name="Rectángulo 5242" d="M0,0H12a0,0,0,0,1,0,0V49a3,3,0,0,1-3,3H3a3,3,0,0,1-3-3V0A0,0,0,0,1,0,0Z" transform="translate(0 0)" fill="url(#linear-gradient-2)"/>
        </g>
        <g transform="matrix(1, 0, 0, 1, 180, 1916)" filter="url(#Rectángulo_40718)">
          <path id="Rectángulo_40718-2" data-name="Rectángulo 40718" d="M10,0H80A10,10,0,0,1,90,10V90a0,0,0,0,1,0,0H10A10,10,0,0,1,0,80V10A10,10,0,0,1,10,0Z" transform="translate(50 10)" fill="#f6f6f6"/>
        </g>
      </g>
    </g>
    <g id="Grupo_134731" data-name="Grupo 134731" transform="translate(917.403 -1599.671)">
      <path id="Trazado_190719" data-name="Trazado 190719" d="M-312.763,2205.408" transform="translate(-324.493 -145.56)" fill="#603eb7"/>
      <path id="Trazado_190720" data-name="Trazado 190720" d="M-580.734,2102.63a9.214,9.214,0,0,0-9.2,9.2v2.61a3.178,3.178,0,0,0-.739,2.037,3.352,3.352,0,0,0,1.167,2.545,3.4,3.4,0,0,0,1.756.794,7.126,7.126,0,0,0,2.637,4.394l.007,1.536-8.363,3.242-.019.008a6.772,6.772,0,0,0-3.94,5.372,1.028,1.028,0,0,0,.138.634,18.864,18.864,0,0,0,13.7,9.177,19.254,19.254,0,0,0,2.741.2,19.175,19.175,0,0,0,3.164-.263l.04-.008a18.855,18.855,0,0,0,13.561-9.683,1.031,1.031,0,0,0,.1-.7A6.837,6.837,0,0,0-567.82,2129l-.021-.008-8.375-3.243v-1.642a7.042,7.042,0,0,0,2.507-4.292,3.442,3.442,0,0,0,1.752-.789,3.355,3.355,0,0,0,1.167-2.545,3.352,3.352,0,0,0-.741-2.1v-2.542a9.213,9.213,0,0,0-9.2-9.2Zm-7.121,15.03a1.332,1.332,0,0,1-.31-.2,1.294,1.294,0,0,1-.449-.982,1.2,1.2,0,0,1,.39-.856l.019-.017a1.61,1.61,0,0,1,.35-.245Zm3.452,10.028,2.251,2.778h0l-1.961,1.393-1.791-3.59Zm3.744,1.34-2.387-2.947,0-.7a8.892,8.892,0,0,0,2.346.294h.215l.07,0h0l.069,0h.009l.067,0h.012l.068,0h.006l.067,0h.007l.068-.005h.01l.068-.006h.008l.069-.007h0l.069-.008h.009l.067-.009h.01l.139-.02h.007l.067-.011h.009l.069-.011h0l.07-.013h0l.068-.013.01,0,.066-.013.009,0,.139-.03h0l.069-.016h.006l.07-.017.145-.038q.255-.07.5-.158v.819Zm1.011,3.625-.285.43h-1.452l-.285-.43,1.011-.718Zm-4.666,9.315a16.742,16.742,0,0,1-5.41-2.113v-3.412a1.032,1.032,0,0,0-1.031-1.031,1.031,1.031,0,0,0-1.031,1.031v1.929a17.215,17.215,0,0,1-3.548-4.113,4.719,4.719,0,0,1,2.621-3.351l4.876-1.891,2.134,4.277a1.568,1.568,0,0,0,1.024.822,1.569,1.569,0,0,0,.381.047,1.566,1.566,0,0,0,.908-.29l.036-.025.33.5Zm3.759.336q-.866.016-1.715-.052l1.2-7.108h.815l1.2,7.07q-.741.076-1.5.09Zm11.955-11.4a4.781,4.781,0,0,1,2.507,2.874,17.2,17.2,0,0,1-3.435,4.248v-1.586a1.031,1.031,0,0,0-1.031-1.031,1.032,1.032,0,0,0-1.031,1.031v3.161a16.773,16.773,0,0,1-5.43,2.278l-1.276-7.538.33-.5.036.025a1.563,1.563,0,0,0,.908.29,1.577,1.577,0,0,0,.381-.047,1.568,1.568,0,0,0,1.023-.822l2.134-4.277Zm-6.814-2.638-1.791,3.59-1.964-1.4h0l2.25-2.777Zm-.261-9.625v.018c0,.014,0,.027,0,.041l0,.061c0,.019,0,.038,0,.057a4.971,4.971,0,0,1-2.116,3.894l-.038.025a4.939,4.939,0,0,1-1.972.806h0l-.044.007h0l-.125.019-.017,0-.034,0-.021,0-.058.007-.021,0-.029,0-.028,0-.026,0-.034,0-.022,0-.052,0h-.021l-.036,0h-.078l-.056,0h-.134a5.009,5.009,0,0,1-5.143-4.8c0-.016,0-.033,0-.05v-.062c0-.02,0-.04,0-.06v-4.382h0a15.514,15.514,0,0,0,7.087-1.524,15.791,15.791,0,0,0,1.507-.819l.048.051c.067.073.132.142.2.209l.5.538c.35.373.628.669.773.835Zm.733-7.336-.312-.333-.027-.028-.044-.047-.016-.017-.07-.074-.019-.02-.113-.12-.025-.027-.193-.207-.012-.013-.06-.064-.039-.042-.011-.013-.072-.077-.025-.026a1.583,1.583,0,0,0-1.882-.295c-.042.022-.083.047-.124.073l-.057.037a13.693,13.693,0,0,1-1.425.8l-.013.007-.07.034a13.36,13.36,0,0,1-6.369,1.334l-.087,0h-.018l-.125-.009c-.05,0-.1,0-.15,0a1.524,1.524,0,0,0-.208.018h-.011a1.593,1.593,0,0,0-.828.4c-.019.018-.037.035-.055.053l-.005.005-.02.021-.009.009-.019.021-.009.011-.018.021-.009.011-.017.02s-.007.009-.009.013l-.016.021a.088.088,0,0,0-.009.013l-.016.021-.009.013-.014.021-.01.014a.2.2,0,0,1-.013.021l-.009.015-.013.021-.009.016-.012.02c0,.006-.006.012-.009.018l-.011.019-.009.018-.01.02-.01.021-.013.027-.012.027-.005.013c0,.009-.007.018-.011.026v0l-.134.026v-1.364a7.149,7.149,0,0,1,7.141-7.14,7.149,7.149,0,0,1,7.141,7.14v1.33l-.026,0c-.042-.483-.282-.738-1.323-1.849Zm1.639,6.151a1.305,1.305,0,0,1-.309.2v-2.36l.011.005.011.006.03.015,0,0a1.34,1.34,0,0,1,.291.205l.017.015a1.293,1.293,0,0,1,.394.932,1.29,1.29,0,0,1-.449.981Zm0,0" transform="translate(-88.746 -60.447)" fill="#603eb7"/>
      <path id="Trazado_190721" data-name="Trazado 190721" d="M-637.255,2058.817h-5.3a27.233,27.233,0,0,0-3.607-8.707l3.747-3.748a3.03,3.03,0,0,0,.894-2.158,3.032,3.032,0,0,0-.894-2.158l-4.2-4.2a3.055,3.055,0,0,0-4.316,0l-3.747,3.747a27.247,27.247,0,0,0-8.707-3.607v-5.3a3.055,3.055,0,0,0-3.052-3.052H-667a1.031,1.031,0,0,0-1.031,1.031A1.031,1.031,0,0,0-667,2031.7h.57a.99.99,0,0,1,.99.989v5.8a1.447,1.447,0,0,0,1.155,1.412,25.2,25.2,0,0,1,8.9,3.688,1.446,1.446,0,0,0,1.815-.182l4.1-4.1a.989.989,0,0,1,1.4,0l4.2,4.2a.982.982,0,0,1,.289.7.981.981,0,0,1-.29.7l-4.1,4.1a1.448,1.448,0,0,0-.182,1.815,25.2,25.2,0,0,1,3.689,8.9,1.447,1.447,0,0,0,1.412,1.156h5.8a.99.99,0,0,1,.989.989v5.938a.99.99,0,0,1-.99.989h-5.8a1.447,1.447,0,0,0-1.412,1.156,25.216,25.216,0,0,1-3.689,8.9,1.446,1.446,0,0,0,.182,1.815l4.1,4.1a.99.99,0,0,1,0,1.4l-4.2,4.2a.99.99,0,0,1-1.4,0l-4.1-4.1a1.447,1.447,0,0,0-1.815-.182,25.2,25.2,0,0,1-8.9,3.689,1.447,1.447,0,0,0-1.155,1.412v5.8a.99.99,0,0,1-.989.99h-5.938a.991.991,0,0,1-.989-.99v-5.8a1.447,1.447,0,0,0-1.156-1.412,25.194,25.194,0,0,1-8.9-3.689,1.448,1.448,0,0,0-1.816.182l-4.1,4.1a.99.99,0,0,1-1.4,0l-4.2-4.2a.991.991,0,0,1,0-1.4l4.1-4.1a1.448,1.448,0,0,0,.183-1.815,25.194,25.194,0,0,1-3.689-8.9,1.447,1.447,0,0,0-1.412-1.156h-5.8a.99.99,0,0,1-.989-.989v-5.938a.99.99,0,0,1,.989-.989h5.8a1.448,1.448,0,0,0,1.412-1.156,25.2,25.2,0,0,1,3.689-8.9,1.448,1.448,0,0,0-.182-1.815l-4.1-4.1a.985.985,0,0,1-.289-.7.983.983,0,0,1,.289-.7l4.2-4.2a.991.991,0,0,1,1.4,0l4.1,4.1a1.447,1.447,0,0,0,1.815.181,25.186,25.186,0,0,1,8.9-3.688,1.448,1.448,0,0,0,1.155-1.412v-5.8a.99.99,0,0,1,.989-.99h.555a1.031,1.031,0,0,0,1.031-1.031,1.031,1.031,0,0,0-1.031-1.031h-.555a3.055,3.055,0,0,0-3.051,3.052v5.3a27.233,27.233,0,0,0-8.707,3.608l-3.747-3.748a3.033,3.033,0,0,0-2.158-.894,3.034,3.034,0,0,0-2.159.894l-4.2,4.2a3.034,3.034,0,0,0-.894,2.158,3.032,3.032,0,0,0,.894,2.158l3.748,3.748a27.225,27.225,0,0,0-3.607,8.707h-5.3a3.055,3.055,0,0,0-3.052,3.052v5.938a3.056,3.056,0,0,0,3.052,3.052h5.3a27.225,27.225,0,0,0,3.607,8.707l-3.748,3.747a3.055,3.055,0,0,0,0,4.316l4.2,4.2a3.056,3.056,0,0,0,4.316,0l3.747-3.748a27.259,27.259,0,0,0,8.707,3.608v5.3a3.056,3.056,0,0,0,3.052,3.052h5.938a3.056,3.056,0,0,0,3.052-3.052v-5.3a27.252,27.252,0,0,0,8.706-3.608l3.747,3.747a3.032,3.032,0,0,0,2.158.894,3.031,3.031,0,0,0,2.158-.894l4.2-4.2a3.055,3.055,0,0,0,0-4.316l-3.748-3.747a27.266,27.266,0,0,0,3.608-8.707h5.3a3.055,3.055,0,0,0,3.051-3.052v-5.938a3.054,3.054,0,0,0-3.051-3.051Zm0,0" transform="translate(0 0)" fill="#603eb7"/>
    </g>
  </g>
</svg>
