<svg xmlns="http://www.w3.org/2000/svg" xmlns:xlink="http://www.w3.org/1999/xlink" width="190" height="112" viewBox="0 0 190 112">
  <defs>
    <linearGradient id="linear-gradient" x1="0.5" x2="0.5" y2="1" gradientUnits="objectBoundingBox">
      <stop offset="0" stop-color="#f7ca2e" stop-opacity="0"/>
      <stop offset="0.091" stop-color="#f7ca2e" stop-opacity="0.129"/>
      <stop offset="0.283" stop-color="#f7ca2e" stop-opacity="0.388"/>
      <stop offset="0.465" stop-color="#f7ca2e" stop-opacity="0.612"/>
      <stop offset="0.633" stop-color="#f7ca2e" stop-opacity="0.78"/>
      <stop offset="0.784" stop-color="#f7ca2e" stop-opacity="0.902"/>
      <stop offset="0.911" stop-color="#f7ca2e" stop-opacity="0.969"/>
      <stop offset="1" stop-color="#f7ca2e"/>
    </linearGradient>
    <linearGradient id="linear-gradient-2" x1="0.5" x2="0.5" y2="1" gradientUnits="objectBoundingBox">
      <stop offset="0" stop-color="#b13e8d" stop-opacity="0"/>
      <stop offset="0.091" stop-color="#b13e8d" stop-opacity="0.129"/>
      <stop offset="0.283" stop-color="#b13e8d" stop-opacity="0.388"/>
      <stop offset="0.465" stop-color="#b13e8d" stop-opacity="0.612"/>
      <stop offset="0.633" stop-color="#b13e8d" stop-opacity="0.78"/>
      <stop offset="0.784" stop-color="#b13e8d"/>
      <stop offset="0.911" stop-color="#b13e8d" stop-opacity="0.969"/>
      <stop offset="1" stop-color="#b13e8d"/>
    </linearGradient>
    <filter id="Rectángulo_40718" x="41" y="4" width="108" height="108" filterUnits="userSpaceOnUse">
      <feOffset dy="3" input="SourceAlpha"/>
      <feGaussianBlur stdDeviation="3" result="blur"/>
      <feFlood flood-opacity="0.161"/>
      <feComposite operator="in" in2="blur"/>
      <feComposite in="SourceGraphic"/>
    </filter>
    <clipPath id="clip-path">
      <rect id="Rectángulo_42356" data-name="Rectángulo 42356" width="65.343" height="69.04" fill="none"/>
    </clipPath>
  </defs>
  <g id="Grupo_134845" data-name="Grupo 134845" transform="translate(-153 -655.33)">
    <g id="Grupo_134322" data-name="Grupo 134322" transform="translate(-27 -1173.67)">
      <g id="Grupo_128316" data-name="Grupo 128316" transform="translate(0 -87)">
        <rect id="Rectángulo_40586" data-name="Rectángulo 40586" width="190" height="20" transform="translate(180 1961)" fill="none"/>
        <g id="Grupo_108405" data-name="Grupo 108405" transform="translate(209.5 1980)">
          <path id="Rectángulo_5242" data-name="Rectángulo 5242" d="M0,0H12a0,0,0,0,1,0,0V43.333a3,3,0,0,1-3,3H3a3,3,0,0,1-3-3V0A0,0,0,0,1,0,0Z" transform="translate(0 0)" fill="url(#linear-gradient)"/>
        </g>
        <g id="Grupo_108406" data-name="Grupo 108406" transform="translate(340 1968) rotate(180)">
          <path id="Rectángulo_5242-2" data-name="Rectángulo 5242" d="M0,0H12a0,0,0,0,1,0,0V49a3,3,0,0,1-3,3H3a3,3,0,0,1-3-3V0A0,0,0,0,1,0,0Z" transform="translate(0 0)" fill="url(#linear-gradient-2)"/>
        </g>
        <g transform="matrix(1, 0, 0, 1, 180, 1916)" filter="url(#Rectángulo_40718)">
          <path id="Rectángulo_40718-2" data-name="Rectángulo 40718" d="M10,0H80A10,10,0,0,1,90,10V90a0,0,0,0,1,0,0H10A10,10,0,0,1,0,80V10A10,10,0,0,1,10,0Z" transform="translate(50 10)" fill="#f6f6f6"/>
        </g>
      </g>
    </g>
    <g id="Grupo_134738" data-name="Grupo 134738" transform="translate(929.187 -1902.598)">
      <g id="Grupo_134737" data-name="Grupo 134737" transform="translate(-713.859 2578.574)">
        <g id="Grupo_134736" data-name="Grupo 134736" transform="translate(0)" clip-path="url(#clip-path)">
          <path id="Trazado_190722" data-name="Trazado 190722" d="M-653.647,2618.758c-.005-.006-.01-.012-.015-.018a.936.936,0,0,0-.071-.068,12.256,12.256,0,0,0-5.188-3.116v-.895a9,9,0,0,0,2.564-1.655,8.98,8.98,0,0,0,2.755-4.976,14.5,14.5,0,0,0,5.69-11.5,14.344,14.344,0,0,0-1.122-5.591,1.007,1.007,0,0,0-1.317-.538,1,1,0,0,0-.537,1.317,12.354,12.354,0,0,1,.965,4.811,12.483,12.483,0,0,1-3.383,8.525l.349-4.181c.357-.006.718-.019,1.087-.044a1.007,1.007,0,0,0,.937-1.072,1.008,1.008,0,0,0-1.072-.936,19.961,19.961,0,0,1-10.146-1.934,1.007,1.007,0,0,0-1,.008,1.007,1.007,0,0,0-.5.869v.982a27.869,27.869,0,0,1-3.626-.53,14.7,14.7,0,0,0,1.294-3.519c.739-.339,1.483-.721,2.233-1.152a1.006,1.006,0,0,0,.492-1.031,1.007,1.007,0,0,0-.789-.827c-.019,0-.651-.138-1.6-.4a15.318,15.318,0,0,0-.925-4.814,8.535,8.535,0,0,0-.656-1.4,12.485,12.485,0,0,1,4.856-.985,12.392,12.392,0,0,1,9.712,4.663,1,1,0,0,0,.785.376,1,1,0,0,0,.629-.221,1.007,1.007,0,0,0,.156-1.415,14.4,14.4,0,0,0-11.281-5.416,14.49,14.49,0,0,0-6.086,1.344,12.449,12.449,0,0,0-4.02-2.8,21.478,21.478,0,0,0-9.222-1.713c-3.979.1-8.736,1.278-11.966,4.065a14.377,14.377,0,0,0-5.008-.892,14.474,14.474,0,0,0-14.458,14.458,14.535,14.535,0,0,0,5.5,11.351,8.977,8.977,0,0,0,2.78,5.122,9,9,0,0,0,2.658,1.694v.854a12.171,12.171,0,0,0-5.14,3.065c-.05.05-.1.1-.146.154a12.113,12.113,0,0,0-3.427,8.472v1.094a1.006,1.006,0,0,0,1.006,1.006,1.006,1.006,0,0,0,1.006-1.006v-1.094a10.11,10.11,0,0,1,2.24-6.373l3.327,3.126a1,1,0,0,0,.689.273,1,1,0,0,0,.7-.286l2.163-2.112v18.646h-9.122v-8.444a1.006,1.006,0,0,0-1.006-1.006,1.006,1.006,0,0,0-1.006,1.006v9.45a1.007,1.007,0,0,0,1.006,1.006h14.051v4.041a1.006,1.006,0,0,0,1.006,1.006h3.533a1.006,1.006,0,0,0,1.005-1.006,1,1,0,0,0-1.005-1.006h-2.526v-15.744a12.024,12.024,0,0,1,2.784-7.728,10.464,10.464,0,0,1,1.407-1.439,12.059,12.059,0,0,1,4.057-2.32,3.883,3.883,0,0,0,1.1,2.18,3.916,3.916,0,0,0,.826.633,4.062,4.062,0,0,0,3.883,0,3.921,3.921,0,0,0,1.928-2.811,11.951,11.951,0,0,1,4.058,2.321,5.047,5.047,0,0,1,1.406,1.44,12.1,12.1,0,0,1,2.787,7.725v15.743h-17.976a1.006,1.006,0,0,0-1.006,1.007,1.006,1.006,0,0,0,1.006,1.006h18.981a1.006,1.006,0,0,0,1.006-1.006v-4.042h16.372a1.006,1.006,0,0,0,1.006-1.006v-14.28a12.227,12.227,0,0,0-2.71-7.667c-.23-.285-.474-.558-.729-.82Zm-2.232.686-2.585,2.428-2.048-2a3.5,3.5,0,0,0,1.52-2.224,10.09,10.09,0,0,1,3.112,1.795Zm-10.927-19.075a33.727,33.727,0,0,0,4.1.466,1,1,0,0,0,.748-.273,1.006,1.006,0,0,0,.315-.731v-.495a22.42,22.42,0,0,0,6.667,1.494l-.511,6.133a7.032,7.032,0,0,1-6.967,6.409,7.033,7.033,0,0,1-6.967-6.409c0-.029-.007-.058-.012-.086a4.877,4.877,0,0,0,3.052-4.517,4.82,4.82,0,0,0-.427-1.991Zm2.505,19.5-2.049,2-2.59-2.435a10.281,10.281,0,0,1,3.119-1.788,3.493,3.493,0,0,0,1.52,2.224Zm-4.091-17.515a2.862,2.862,0,0,1-2.859,2.859c-.03,0-.06,0-.091,0l.475-5.687a2.862,2.862,0,0,1,2.474,2.831Zm-2.306-4.84.1-1.2q1.1-.274,2.246-.667a13.356,13.356,0,0,1-1.024,2.209,4.862,4.862,0,0,0-1.323-.344Zm-22.157-12.565a.993.993,0,0,0,.213-.208c2.81-2.635,7.276-3.737,10.992-3.831,4.541-.115,9.631,1.2,12.093,4.3a.947.947,0,0,0,.1.125,6.815,6.815,0,0,1,1,1.82,13.574,13.574,0,0,1,.769,3.494,18.547,18.547,0,0,1-4.9-2.419,1.006,1.006,0,0,0-1.409.2,1.006,1.006,0,0,0,.2,1.409,22.848,22.848,0,0,0,6.758,3.144l-.158.069a1.134,1.134,0,0,0-.12.052,23.641,23.641,0,0,1-4.3,1.412,1,1,0,0,0-.245.054,23.374,23.374,0,0,1-9.49.016,23.356,23.356,0,0,1-7.241-2.675,1.006,1.006,0,0,0-1.34.234,8.975,8.975,0,0,1-3.918,2.609,1.006,1.006,0,0,0-.623,1.279,1.006,1.006,0,0,0,1.279.623c.1-.033.187-.067.28-.1l.081.965a4.847,4.847,0,0,0-1.786.567c-1.381-2.541-1.515-5.832-.377-9.594a8.4,8.4,0,0,1,2.156-3.539Zm.649,20.261c-.03,0-.06,0-.09,0a2.863,2.863,0,0,1-2.86-2.859,2.862,2.862,0,0,1,2.475-2.831Zm-17-7.181a7.578,7.578,0,0,0,.758.517l.528,6.327a12.35,12.35,0,0,1-3.191-8.947,12.476,12.476,0,0,1,12.565-11.842,12.384,12.384,0,0,1,3.335.489,10.192,10.192,0,0,0-1.731,3.332,15.072,15.072,0,0,0-.154,9.6,12.492,12.492,0,0,1-1.367-.614,1.007,1.007,0,0,0-1.188.148,1.042,1.042,0,0,0-.312.759v.952c-4.9-.415-7.11-1.62-7.988-2.294a1,1,0,0,0-1.136-.061l-.025.016a.991.991,0,0,0-.1,1.622Zm3.479,8.929-.62-7.438a26.144,26.144,0,0,0,7.336,1.31l.057,0a1,1,0,0,0,.691-.275,1.009,1.009,0,0,0,.315-.731v-.5c.414.165.908.344,1.473.521a4.838,4.838,0,0,0-.7,2.506,4.878,4.878,0,0,0,4.873,4.872c.1,0,.2-.006.307-.012.03.168.066.336.1.5a1.05,1.05,0,0,0-.032.116,7.019,7.019,0,0,1-6.839,5.536,7.032,7.032,0,0,1-6.967-6.409Zm3.071,14.91-2.593-2.438a10.154,10.154,0,0,1,3.121-1.787,3.468,3.468,0,0,0,.951,1.768,3.537,3.537,0,0,0,.567.46Zm2.9-3.879a1.469,1.469,0,0,1-.432-1.043v-1.682a9.053,9.053,0,0,0,1.426.115,8.881,8.881,0,0,0,1.518-.131v1.7a1.474,1.474,0,0,1-1.472,1.473,1.463,1.463,0,0,1-1.041-.43Zm3.9,11.831v10.7h-1.91v-18.757l2.278,2.223a1,1,0,0,0,.763.284,14.1,14.1,0,0,0-1.13,5.554Zm1.084-7.951-2.048-2a3.5,3.5,0,0,0,1.52-2.229,10.04,10.04,0,0,1,3.123,1.789Zm9.135-5.628a14.05,14.05,0,0,0-4.56,2.269,12.069,12.069,0,0,0-5.033-2.959v-.9a9.088,9.088,0,0,0,4.453-4.117A10.394,10.394,0,0,0-688.8,2613a10.377,10.377,0,0,0,3.172,2Zm5.814.76v.747a1.9,1.9,0,0,1-1.9,1.9,1.885,1.885,0,0,1-1.344-.558,1.888,1.888,0,0,1-.557-1.343v-2.177a10.416,10.416,0,0,0,1.847.166,10.435,10.435,0,0,0,1.955-.185Zm-1.955-3.275a8.423,8.423,0,0,1-8.344-7.677l-.632-7.57c0-.013,0-.025,0-.037l-.237-2.835a11.324,11.324,0,0,0,2.036-1.579,26.394,26.394,0,0,0,7.109,2.512,26.063,26.063,0,0,0,5.164.519,25.365,25.365,0,0,0,4.029-.322l-.144,1.718c0,.006,0,.012,0,.018l-.633,7.577a8.423,8.423,0,0,1-8.344,7.676Zm10.591,5.05q-.395.408-.751.853a13.966,13.966,0,0,0-5.873-3.386v-1.292A10.389,10.389,0,0,0-674.74,2613a10.352,10.352,0,0,0,3.185-5.78l.142.005a8.975,8.975,0,0,0,2.866,5.783,9,9,0,0,0,2.657,1.694v.857a12.288,12.288,0,0,0-5.163,3.1.934.934,0,0,0-.127.125Zm7.712,21.741h-4.117v-10.7a14.194,14.194,0,0,0-2.805-8.445c-.058-.078-.114-.156-.173-.232.07-.093.142-.183.215-.273l3.325,3.125a1.006,1.006,0,0,0,1.392-.013l2.163-2.112Zm-.409-23.568v-1.683a9.058,9.058,0,0,0,1.426.115,8.977,8.977,0,0,0,1.519-.131v1.7a1.474,1.474,0,0,1-1.473,1.473,1.474,1.474,0,0,1-1.472-1.473Zm11.658,23.568h-9.236v-18.757l2.277,2.223a1,1,0,0,0,.7.287,1,1,0,0,0,.689-.273l3.314-3.115a10.19,10.19,0,0,1,2.253,6.361Zm0,0" transform="translate(713.254 -2578.84)" fill="#603eb7"/>
        </g>
      </g>
    </g>
  </g>
</svg>
