<svg id="Grupo_134901" data-name="Grupo 134901" xmlns="http://www.w3.org/2000/svg" width="51.028" height="77.746" viewBox="0 0 51.028 77.746">
  <rect id="Rectángulo_42377" data-name="Rectángulo 42377" width="32.84" height="5.194" transform="translate(9.094 8.711)" fill="#f7ca18"/>
  <path id="Trazado_190791" data-name="Trazado 190791" d="M-568.77,3023.742a1.146,1.146,0,0,0-1.145,1.146v3.448H-616.36v-55.915a1.145,1.145,0,0,0-1.145-1.146,1.146,1.146,0,0,0-1.146,1.146v57.06a1.146,1.146,0,0,0,1.146,1.146h48.737a1.146,1.146,0,0,0,1.145-1.146v-4.594a1.147,1.147,0,0,0-1.146-1.146Zm0,0" transform="translate(618.652 -2952.882)" fill="#f7ca18"/>
  <path id="Trazado_190792" data-name="Trazado 190792" d="M-568.773,2874.366H-617.51a1.145,1.145,0,0,0-1.145,1.145v14.14a1.145,1.145,0,0,0,1.145,1.146,1.145,1.145,0,0,0,1.146-1.146v-12.995h46.446v65.462a1.145,1.145,0,0,0,1.146,1.145,1.146,1.146,0,0,0,1.145-1.145v-66.607a1.145,1.145,0,0,0-1.145-1.145Zm0,0" transform="translate(618.655 -2874.366)" fill="#f7ca18"/>
  <path id="Trazado_190793" data-name="Trazado 190793" d="M-575.631,2962.762h22.447a1.146,1.146,0,0,0,1.146-1.146,1.146,1.146,0,0,0-1.146-1.145h-22.447a1.145,1.145,0,0,0-1.145,1.145,1.145,1.145,0,0,0,1.145,1.146Zm0,0" transform="translate(584.725 -2944.128)" fill="#f7ca18"/>
  <path id="Trazado_190794" data-name="Trazado 190794" d="M-428.07,2960.471h-5.963a1.146,1.146,0,0,0-1.146,1.145,1.146,1.146,0,0,0,1.146,1.146h5.963a1.146,1.146,0,0,0,1.146-1.146,1.146,1.146,0,0,0-1.146-1.145Zm0,0" transform="translate(470.004 -2944.128)" fill="#f7ca18"/>
  <path id="Trazado_190795" data-name="Trazado 190795" d="M-498.433,2979.784H-520.88a1.145,1.145,0,0,0-1.146,1.146,1.146,1.146,0,0,0,1.146,1.146h22.447a1.146,1.146,0,0,0,1.145-1.146,1.146,1.146,0,0,0-1.145-1.146Zm0,0" transform="translate(540.367 -2959.775)" fill="#f7ca18"/>
  <path id="Trazado_190796" data-name="Trazado 190796" d="M-575.631,2982.075h5.963a1.146,1.146,0,0,0,1.145-1.146,1.146,1.146,0,0,0-1.145-1.146h-5.963a1.145,1.145,0,0,0-1.145,1.146,1.145,1.145,0,0,0,1.145,1.146Zm0,0" transform="translate(584.725 -2959.775)" fill="#f7ca18"/>
  <path id="Trazado_190797" data-name="Trazado 190797" d="M-504.833,3061.438h13.261a1.145,1.145,0,0,0,1.146-1.146,1.145,1.145,0,0,0-1.146-1.145h-13.261a1.146,1.146,0,0,0-1.146,1.145,1.146,1.146,0,0,0,1.146,1.146Zm0,0" transform="translate(527.366 -3024.074)" fill="#f7ca18"/>
  <path id="Trazado_190798" data-name="Trazado 190798" d="M-413.743,3059.147h-2.606a1.145,1.145,0,0,0-1.146,1.145,1.146,1.146,0,0,0,1.146,1.146h2.606a1.146,1.146,0,0,0,1.146-1.146,1.146,1.146,0,0,0-1.146-1.145Zm0,0" transform="translate(455.677 -3024.074)" fill="#f7ca18"/>
  <path id="Trazado_190799" data-name="Trazado 190799" d="M-459.225,3078.46h-13.261a1.146,1.146,0,0,0-1.146,1.146,1.146,1.146,0,0,0,1.146,1.146h13.261a1.146,1.146,0,0,0,1.145-1.146,1.146,1.146,0,0,0-1.145-1.146Zm0,0" transform="translate(501.159 -3039.721)" fill="#f7ca18"/>
  <path id="Trazado_190800" data-name="Trazado 190800" d="M-504.833,3080.751h2.606a1.146,1.146,0,0,0,1.146-1.146,1.146,1.146,0,0,0-1.146-1.146h-2.606a1.146,1.146,0,0,0-1.146,1.146,1.146,1.146,0,0,0,1.146,1.146Zm0,0" transform="translate(527.366 -3039.721)" fill="#f7ca18"/>
  <path id="Trazado_190801" data-name="Trazado 190801" d="M-504.833,3123.669h13.261a1.145,1.145,0,0,0,1.146-1.146,1.145,1.145,0,0,0-1.146-1.146h-13.261a1.146,1.146,0,0,0-1.146,1.146,1.146,1.146,0,0,0,1.146,1.146Zm0,0" transform="translate(527.366 -3074.493)" fill="#f7ca18"/>
  <path id="Trazado_190802" data-name="Trazado 190802" d="M-413.743,3121.378h-2.606a1.145,1.145,0,0,0-1.146,1.146,1.146,1.146,0,0,0,1.146,1.146h2.606a1.146,1.146,0,0,0,1.146-1.146,1.146,1.146,0,0,0-1.146-1.146Zm0,0" transform="translate(455.677 -3074.493)" fill="#f7ca18"/>
  <path id="Trazado_190803" data-name="Trazado 190803" d="M-459.225,3140.69h-13.261a1.146,1.146,0,0,0-1.146,1.146,1.146,1.146,0,0,0,1.146,1.146h13.261a1.145,1.145,0,0,0,1.145-1.146,1.146,1.146,0,0,0-1.145-1.146Zm0,0" transform="translate(501.159 -3090.139)" fill="#f7ca18"/>
  <path id="Trazado_190804" data-name="Trazado 190804" d="M-504.833,3142.981h2.606a1.145,1.145,0,0,0,1.146-1.146,1.146,1.146,0,0,0-1.146-1.146h-2.606a1.146,1.146,0,0,0-1.146,1.146,1.146,1.146,0,0,0,1.146,1.146Zm0,0" transform="translate(527.366 -3090.139)" fill="#f7ca18"/>
  <path id="Trazado_190805" data-name="Trazado 190805" d="M-490.426,3184.753a1.146,1.146,0,0,0-1.146-1.146h-13.262a1.146,1.146,0,0,0-1.146,1.146,1.146,1.146,0,0,0,1.146,1.146h13.262a1.146,1.146,0,0,0,1.146-1.146Zm0,0" transform="translate(527.366 -3124.911)" fill="#f7ca18"/>
  <path id="Trazado_190806" data-name="Trazado 190806" d="M-413.743,3183.608h-2.606a1.145,1.145,0,0,0-1.146,1.146,1.146,1.146,0,0,0,1.146,1.146h2.606a1.146,1.146,0,0,0,1.146-1.146,1.146,1.146,0,0,0-1.146-1.146Zm0,0" transform="translate(455.677 -3124.911)" fill="#f7ca18"/>
  <path id="Trazado_190807" data-name="Trazado 190807" d="M-472.486,3205.216h13.261a1.145,1.145,0,0,0,1.145-1.146,1.145,1.145,0,0,0-1.145-1.146h-13.261a1.145,1.145,0,0,0-1.146,1.146,1.145,1.145,0,0,0,1.146,1.146Zm0,0" transform="translate(501.159 -3140.561)" fill="#f7ca18"/>
  <path id="Trazado_190808" data-name="Trazado 190808" d="M-504.833,3202.925a1.146,1.146,0,0,0-1.146,1.146,1.146,1.146,0,0,0,1.146,1.146h2.606a1.145,1.145,0,0,0,1.146-1.146,1.145,1.145,0,0,0-1.146-1.146Zm0,0" transform="translate(527.366 -3140.561)" fill="#f7ca18"/>
  <path id="Trazado_190809" data-name="Trazado 190809" d="M-600.116,3009.094a1.145,1.145,0,0,0,1.146,1.145h41.7a1.144,1.144,0,0,0,1.146-1.145,1.145,1.145,0,0,0-1.146-1.145h-41.7a1.145,1.145,0,0,0-1.146,1.145Zm0,0" transform="translate(603.635 -2982.594)" fill="#f7ca18"/>
  <path id="Trazado_190810" data-name="Trazado 190810" d="M-560.624,3054.144a1.158,1.158,0,0,0,1.632,0,1.2,1.2,0,0,0,.133-.161l4.918-4.918a1.14,1.14,0,0,0,0-1.607,1.139,1.139,0,0,0-1.608,0l-4.249,4.249-.552-.552a1.157,1.157,0,0,0-1.632,0,1.157,1.157,0,0,0,0,1.631Zm0,0" transform="translate(573.012 -3014.333)" fill="#f7ca18"/>
  <path id="Trazado_190811" data-name="Trazado 190811" d="M-555.576,3109.8l-4.249,4.249-.552-.551a1.157,1.157,0,0,0-1.632,0,1.158,1.158,0,0,0,0,1.632l1.357,1.357a1.158,1.158,0,0,0,1.632,0,1.226,1.226,0,0,0,.133-.161l4.918-4.918a1.141,1.141,0,0,0,0-1.608,1.14,1.14,0,0,0-1.607,0Zm0,0" transform="translate(573.034 -3064.844)" fill="#f7ca18"/>
  <path id="Trazado_190812" data-name="Trazado 190812" d="M-553.969,3172.03a1.142,1.142,0,0,0-1.607,0l-4.249,4.25-.552-.551a1.157,1.157,0,0,0-1.632,0,1.158,1.158,0,0,0,0,1.632l1.357,1.358a1.158,1.158,0,0,0,1.632,0,1.241,1.241,0,0,0,.133-.161l4.918-4.918a1.14,1.14,0,0,0,0-1.608Zm0,0" transform="translate(573.034 -3115.262)" fill="#f7ca18"/>
</svg>
