<svg xmlns="http://www.w3.org/2000/svg" xmlns:xlink="http://www.w3.org/1999/xlink" width="1600" height="604.042" viewBox="0 0 1600 604.042">
  <defs>
    <clipPath id="clip-path">
      <path id="Trazado_189419" data-name="Trazado 189419" d="M1599.511,604.042H.344L0,24.084A24.084,24.084,0,0,1,24.084,0L1575.916.508A24.084,24.084,0,0,1,1600,24.592Z" transform="translate(0)" fill="#7fc733"/>
    </clipPath>
    <linearGradient id="linear-gradient" x1="0.927" y1="0.938" x2="0.019" y2="1.029" gradientUnits="objectBoundingBox">
      <stop offset="0" stop-color="#7fc733"/>
      <stop offset="0.256" stop-color="#7fc733"/>
      <stop offset="0.637" stop-color="#7fc733"/>
      <stop offset="1" stop-color="#7fc733" stop-opacity="0.51"/>
    </linearGradient>
  </defs>
  <g id="Enmascarar_grupo_138" data-name="Enmascarar grupo 138" transform="translate(1600 604.042) rotate(180)" opacity="0.151" clip-path="url(#clip-path)">
    <g id="Grupo_131874" data-name="Grupo 131874" transform="translate(-475.403 -1196.731)">
      <path id="Trazado_189412" data-name="Trazado 189412" d="M1671.422,729.879s-297.3,112.227-459.764-121.335S839.007,98.536,518.638,121.308,98.566,322.126,98.566,322.126s-37.338,95.292-79.727,52.9S18.839,0,18.839,0h1675.3V714.083Z" transform="translate(403.492 1019.114)" fill="url(#linear-gradient)"/>
      <path id="Uni贸n_26" data-name="Uni贸n 26" d="M246.652,827.568A383.618,383.618,0,0,1,165.5,803.044,327.828,327.828,0,0,1,92,759.93c-23.122-18.166-42.238-38.912-56.822-61.649A214.5,214.5,0,0,1,4.063,618.146a276.229,276.229,0,0,1-2.488-76.513,235.49,235.49,0,0,1,19.971-73.35c1.215-2.64,2.528-5.324,4.029-8.212C39.667,432.99,59.857,409.585,85.6,390.5a240.022,240.022,0,0,1,39.523-23.662,268.49,268.49,0,0,1,43.541-16.254c25.4-7.089,51.893-10.537,81-10.537,41.834,0,82.715,6.97,126,14.352l.066.019,3.2.541c29.745,5.073,54.056,7.427,76.508,7.427,22.837,0,42.991-2.468,61.6-7.549a170.849,170.849,0,0,0,29-10.742,155.68,155.68,0,0,0,27.085-16.562A194.647,194.647,0,0,0,603.685,298.4a268.864,268.864,0,0,0,24.525-34.15c14.814-24.1,27.154-50.9,39.088-76.812l.036-.076C678.066,164.08,689.16,140,702.043,117.832A312.715,312.715,0,0,1,723.1,85.893a221.735,221.735,0,0,1,25.477-28.444C787.66,20.943,840.613,0,893.88,0h.679a220.609,220.609,0,0,1,46.306,5.231A224.786,224.786,0,0,1,987.31,20.745c32.519,15.083,56.949,36.684,70.673,62.467a104.815,104.815,0,0,1,9.269,24.1,120.844,120.844,0,0,1,3.383,24.024c.733,15.99-1.177,32.27-3.038,48.005v.053c-2.548,21.6-5.174,43.947-1.162,66.325a111.754,111.754,0,0,0,7.084,24.093,103.426,103.426,0,0,0,11.429,20.228c8.416,11.593,19.314,21.748,33.34,31.035,26.008,17.221,58.74,28.59,90.386,39.581l.061.026c17.044,5.919,34.663,12.035,50.667,18.918,17.93,7.706,32.053,15.651,43.179,24.272q4.426,3.431,8.693,7.236h271V558.03s9.535,165.008-214.176,110.582c-.074-.016-.146-.034-.216-.053l-.6-.142c-7.811-1.913-15.819-4.069-23.929-6.444-37.193-10.906-77.753-19.456-120.888-25.493-.22-.032-.417-.061-.637-.091l-1.31-.182q-21.538-2.967-42.923-5.006c-.036-.006-.074-.008-.108-.013l-1.564-.146c-.356-.036-.7-.072-1.051-.1l-.409-.036c-29.145-2.719-59.433-4.406-90.537-5.035-38.987-.78-76.217.159-110.218,2.021l-.84.047c-.53.026-1.075.055-1.606.087-.821.051-1.643.1-2.467.142l-.134.008q-6.288.365-12.578.782c-14.456.96-28.921,2.109-43.3,3.446-23.141,2.156-43.7,4.576-60.945,6.869q-6.613.88-13.093,1.807l-.08,0c-28.522,4.066-45.043,7.332-45.043,7.332l-.106-.011a413.237,413.237,0,0,0-59.876,19.612c-37.268,15.195-72.475,34.661-98.979,49.923-49.415,28.453-102.19,58.04-156.227,79.812-28.7,11.559-55.452,20.05-81.78,25.969a410.573,410.573,0,0,1-42.165,7.244,371.715,371.715,0,0,1-43.155,2.558A356.3,356.3,0,0,1,246.652,827.568Z" transform="translate(1319.469 1775.946) rotate(-111)" fill="#4c771e" stroke="rgba(0,0,0,0)" stroke-miterlimit="10" stroke-width="1" opacity="0.15" style="mix-blend-mode: color-burn;isolation: isolate"/>
      <path id="Uni贸n_27" data-name="Uni贸n 27" d="M145.728,488.832a226.726,226.726,0,0,1-47.947-14.486,193.7,193.7,0,0,1-43.426-25.466,148.526,148.526,0,0,1-33.572-36.416A126.672,126.672,0,0,1,2.4,365.131a163.1,163.1,0,0,1-1.47-45.195,139.1,139.1,0,0,1,11.8-43.329c.717-1.558,1.493-3.145,2.38-4.85a119.942,119.942,0,0,1,35.465-41.1,141.962,141.962,0,0,1,23.35-13.976,158.674,158.674,0,0,1,25.725-9.6,175.787,175.787,0,0,1,47.86-6.223c24.716,0,48.871,4.117,74.443,8.476l.04.011,1.893.32c17.574,3,31.937,4.388,45.2,4.388a136.851,136.851,0,0,0,36.4-4.459,101.058,101.058,0,0,0,17.136-6.344,91.916,91.916,0,0,0,16-9.784,115.064,115.064,0,0,0,18.049-17.2,158.987,158.987,0,0,0,14.49-20.174c8.752-14.236,16.043-30.066,23.094-45.371l.021-.046c6.341-13.753,12.9-27.974,20.507-41.071a184.952,184.952,0,0,1,12.444-18.867,131.2,131.2,0,0,1,15.052-16.8A127.108,127.108,0,0,1,528.127,0h.4a130.351,130.351,0,0,1,27.358,3.089,132.857,132.857,0,0,1,27.442,9.164c19.213,8.909,33.647,21.67,41.756,36.9a61.912,61.912,0,0,1,5.475,14.236,71.382,71.382,0,0,1,2,14.19c.433,9.444-.7,19.06-1.795,28.356v.031c-1.505,12.76-3.057,25.959-.687,39.177a65.947,65.947,0,0,0,4.186,14.232,60.931,60.931,0,0,0,6.752,11.948,74.6,74.6,0,0,0,19.7,18.332c15.365,10.172,34.705,16.888,53.4,23.381l.035.015c10.071,3.495,20.481,7.108,29.935,11.174,10.593,4.552,18.938,9.244,25.511,14.337q2.614,2.027,5.137,4.275H934.852V329.62s5.633,97.468-126.541,65.32l-.127-.032-.355-.085c-4.615-1.13-9.347-2.4-14.137-3.807a502.258,502.258,0,0,0-71.424-15.058l-.376-.053-.774-.107q-12.725-1.753-25.361-2.958l-.064-.008-.924-.086c-.209-.021-.414-.041-.621-.06l-.242-.022c-17.219-1.606-35.114-2.6-53.49-2.974-23.035-.461-45.032.093-65.12,1.194l-.5.027c-.313.016-.635.034-.948.053l-1.458.083-.08,0q-3.715.215-7.432.462c-8.54.566-17.087,1.245-25.58,2.034-13.672,1.274-25.822,2.7-36.008,4.058q-3.905.519-7.736,1.068l-.047,0c-16.852,2.4-26.612,4.331-26.612,4.331l-.064-.006a244.2,244.2,0,0,0-35.375,11.583c-22.019,8.975-42.819,20.474-58.479,29.49-29.2,16.806-60.377,34.283-92.3,47.142a311.6,311.6,0,0,1-48.318,15.34,243.173,243.173,0,0,1-24.912,4.279,219.771,219.771,0,0,1-25.5,1.51A210.463,210.463,0,0,1,145.728,488.832Z" transform="matrix(-0.999, 0.035, -0.035, -0.999, 951.5, 1279.246)" fill="#4c771e" stroke="rgba(0,0,0,0)" stroke-miterlimit="10" stroke-width="1" opacity="0.15" style="mix-blend-mode: color-burn;isolation: isolate"/>
      <ellipse id="Elipse_5154" data-name="Elipse 5154" cx="106.128" cy="106.128" rx="106.128" ry="106.128" transform="translate(2072.637 1456.977) rotate(-150)" fill="#fff"/>
      <ellipse id="Elipse_5155" data-name="Elipse 5155" cx="30.264" cy="30.264" rx="30.264" ry="30.264" transform="translate(1899.895 1295.615) rotate(-150)" fill="#fff"/>
    </g>
  </g>
</svg>
