<svg xmlns="http://www.w3.org/2000/svg" xmlns:xlink="http://www.w3.org/1999/xlink" width="88" height="88" viewBox="0 0 88 88">
  <defs>
    <filter id="Rect치ngulo_40821" x="0" y="0" width="88" height="88" filterUnits="userSpaceOnUse">
      <feOffset dy="3" input="SourceAlpha"/>
      <feGaussianBlur stdDeviation="3" result="blur"/>
      <feFlood flood-opacity="0.161"/>
      <feComposite operator="in" in2="blur"/>
      <feComposite in="SourceGraphic"/>
    </filter>
  </defs>
  <g id="Grupo_134674" data-name="Grupo 134674" transform="translate(-941.333 -193)">
    <g id="Grupo_128460" data-name="Grupo 128460" transform="translate(35 -43)">
      <g transform="matrix(1, 0, 0, 1, 906.33, 236)" filter="url(#Rect치ngulo_40821)">
        <path id="Rect치ngulo_40821-2" data-name="Rect치ngulo 40821" d="M10,0H60A10,10,0,0,1,70,10V70a0,0,0,0,1,0,0H10A10,10,0,0,1,0,60V10A10,10,0,0,1,10,0Z" transform="translate(9 6)" fill="#7fc733"/>
      </g>
    </g>
    <g id="Grupo_134620" data-name="Grupo 134620" transform="translate(962.282 207.855)">
      <path id="Trazado_190551" data-name="Trazado 190551" d="M491.861,2217.705" transform="translate(-476.326 -2193.041)" fill="#f1aa4b"/>
      <path id="Trazado_190552" data-name="Trazado 190552" d="M420.2,2034.525h-1.41a2.926,2.926,0,0,0-2.923,2.923v.1l-9.808,3.71a.808.808,0,1,0,.572,1.511l9.236-3.493v32.2l-20.38-7.708a.881.881,0,0,0-.135-.041l-.014,0-.009,0h0a.8.8,0,0,0-.156-.012,2.368,2.368,0,0,1-2.24-1.656l-.009-.032a2.37,2.37,0,0,1-.1-.63v-12.033a2.372,2.372,0,0,1,.1-.63l.009-.033a2.367,2.367,0,0,1,2.242-1.655h.014a.794.794,0,0,0,.14-.013.774.774,0,0,0,.16-.046l7.618-2.881a.808.808,0,1,0-.571-1.511l-7.5,2.838a3.985,3.985,0,0,0-3.435,2.263h-6.07v-2.411a.808.808,0,1,0-1.616,0v2.411H381.3a4.821,4.821,0,0,0-4.816,4.816v5.738a4.822,4.822,0,0,0,4.816,4.816h.028l4.663,23.767a3.525,3.525,0,0,0,4.142,2.783l1.78-.349a3.533,3.533,0,0,0,2.784-4.143l-1.738-8.859a.808.808,0,0,0-1.586.311l1.738,8.859a1.916,1.916,0,0,1-1.509,2.246l-1.78.349a1.915,1.915,0,0,1-2.246-1.509l-4.6-23.456h5.748l1.911,9.74a.808.808,0,1,0,1.586-.311l-1.85-9.429H391.6a3.986,3.986,0,0,0,3.435,2.262l20.838,7.881v.1a2.926,2.926,0,0,0,2.923,2.922h1.41a2.926,2.926,0,0,0,2.923-2.922v-35.85a2.926,2.926,0,0,0-2.923-2.923ZM381.3,2061.442a3.2,3.2,0,0,1-3.2-3.2V2052.5a3.2,3.2,0,0,1,3.2-3.2h9.913c0,.016,0,.033,0,.05s0,.032,0,.049v11.941c0,.016,0,.033,0,.05s0,.033,0,.049Zm40.213,11.855a1.308,1.308,0,0,1-1.307,1.307h-1.41a1.308,1.308,0,0,1-1.307-1.307v-35.85a1.309,1.309,0,0,1,1.307-1.307h1.41a1.309,1.309,0,0,1,1.307,1.307Zm0,0" transform="translate(-376.482 -2034.525)" fill="#603eb7"/>
    </g>
  </g>
</svg>
